G04*
G04 #@! TF.GenerationSoftware,Altium Limited,Altium Designer,20.2.8 (258)*
G04*
G04 Layer_Color=32768*
%FSLAX44Y44*%
%MOMM*%
G71*
G04*
G04 #@! TF.SameCoordinates,D032E148-705B-442B-B370-39794CB6FC5C*
G04*
G04*
G04 #@! TF.FilePolarity,Positive*
G04*
G01*
G75*
%ADD10C,0.1500*%
%ADD25C,0.0100*%
%ADD60C,0.2000*%
%ADD61C,0.0500*%
D10*
X224000Y-42000D02*
G03*
X224000Y-42000I-2000J0D01*
G01*
X190000Y25000D02*
G03*
X190000Y25000I-2000J0D01*
G01*
X89335Y55000D02*
G03*
X89335Y55000I-13335J0D01*
G01*
X299275Y54905D02*
G03*
X299275Y54905I-1500J0D01*
G01*
X136665Y44985D02*
X163335D01*
X136665Y31015D02*
Y44985D01*
Y31015D02*
X163335D01*
Y44985D01*
X136665Y68015D02*
X163335D01*
Y81985D01*
X136665D02*
X163335D01*
X136665Y68015D02*
Y81985D01*
X165920Y64650D02*
Y77350D01*
X176080Y64650D02*
Y77350D01*
X136665Y60985D02*
X163335D01*
X136665Y47015D02*
Y60985D01*
Y47015D02*
X163335D01*
Y60985D01*
X169963Y-76571D02*
Y-62601D01*
X196633D01*
Y-76571D02*
Y-62601D01*
X169963Y-76571D02*
X196633D01*
X175740Y-55800D02*
Y-43100D01*
X165580D02*
X165580Y-55800D01*
X363335Y-46985D02*
Y-33015D01*
X336665Y-46985D02*
X363335D01*
X336665D02*
Y-33015D01*
X363335D01*
X225665Y35015D02*
X252335D01*
Y48985D01*
X225665D02*
X252335D01*
X225665Y35015D02*
Y48985D01*
X232015Y-32335D02*
Y-5665D01*
Y-32335D02*
X245985D01*
Y-5665D01*
X232015D02*
X245985D01*
X219015Y-32335D02*
Y-5665D01*
Y-32335D02*
X232985D01*
Y-5665D01*
X219015D02*
X232985D01*
X430665Y-65015D02*
X457335D01*
X430665Y-78985D02*
Y-65015D01*
Y-78985D02*
X457335D01*
Y-65015D01*
X430665Y-45015D02*
X457335D01*
X430665Y-58985D02*
Y-45015D01*
Y-58985D02*
X457335D01*
Y-45015D01*
X136395Y10565D02*
X163065Y10565D01*
Y24535D01*
X136395D02*
X163065D01*
X136395Y10565D02*
Y24535D01*
Y-12465D02*
X163065D01*
X136395Y-26435D02*
Y-12465D01*
Y-26435D02*
X163065D01*
Y-12465D01*
X136395Y3535D02*
X163065D01*
X136395D02*
X136395Y-10435D01*
X163065D01*
Y3535D01*
X165650Y19900D02*
X165650Y7200D01*
X175810D02*
Y19900D01*
X136325Y-52435D02*
X162995D01*
Y-38465D01*
X136325D02*
X162995D01*
X136325Y-52435D02*
Y-38465D01*
Y-59465D02*
X162995D01*
X136325Y-73435D02*
Y-59465D01*
Y-73435D02*
X162995D01*
Y-59465D01*
X273665Y-42015D02*
X300335D01*
X273665Y-55985D02*
Y-42015D01*
Y-55985D02*
X300335D01*
Y-42015D01*
X315665Y1505D02*
X342335D01*
Y15475D01*
X315665D02*
X342335D01*
X315665Y1505D02*
Y15475D01*
X187125Y-23570D02*
X218875D01*
X187125Y-46430D02*
Y-23570D01*
Y-46430D02*
X218875D01*
Y-23570D01*
X206430Y28125D02*
Y59875D01*
X183570D02*
X206430D01*
X183570Y28125D02*
Y59875D01*
Y28125D02*
X206430D01*
X299445Y-34875D02*
Y-3125D01*
X290555Y-34875D02*
X299445D01*
X290555D02*
Y-3125D01*
X299445D01*
X458585Y21015D02*
Y34985D01*
X431915Y21015D02*
X458585D01*
X431915D02*
Y34985D01*
X458585D01*
X429515Y41665D02*
X443485D01*
X429515D02*
Y68335D01*
X443485D01*
Y41665D02*
Y68335D01*
X390665Y-78985D02*
Y-65015D01*
X417335D01*
Y-78985D02*
Y-65015D01*
X390665Y-78985D02*
X417335D01*
X273665Y-68985D02*
Y-55015D01*
X300335D01*
Y-68985D02*
Y-55015D01*
X273665Y-68985D02*
X300335D01*
X390665Y-58985D02*
Y-45015D01*
X417335D01*
Y-58985D02*
Y-45015D01*
X390665Y-58985D02*
X417335D01*
X342335Y-19015D02*
X342335Y-32985D01*
X315665Y-32985D02*
X342335Y-32985D01*
X315665Y-32985D02*
Y-19015D01*
X342335D01*
X323665Y81985D02*
X323665Y68015D01*
X323665Y81985D02*
X350335D01*
X350335Y68015D02*
X350335Y81985D01*
X323665Y68015D02*
X350335D01*
X351335Y53015D02*
X351335Y66985D01*
X324665Y53015D02*
X351335D01*
X324665D02*
Y66985D01*
X351335Y66985D01*
X414015Y52335D02*
X427985D01*
Y25665D02*
Y52335D01*
X414015Y25665D02*
X427985D01*
X414015D02*
Y52335D01*
X411015Y-13335D02*
X424985D01*
X411015D02*
Y13335D01*
X424985D01*
Y-13335D02*
Y13335D01*
X241665Y-82985D02*
Y-69015D01*
X268335D01*
Y-82985D02*
Y-69015D01*
X241665Y-82985D02*
X268335D01*
X292570Y55760D02*
Y86240D01*
X282410Y55760D02*
X292570D01*
X282410Y86240D02*
X282410Y55760D01*
X282410Y86240D02*
X292570D01*
X395080Y-15240D02*
Y15240D01*
X384920Y-15240D02*
X395080D01*
X384920D02*
Y15240D01*
X395080D01*
X399445Y23760D02*
Y54240D01*
X390555Y23760D02*
X399445D01*
X390555D02*
Y54240D01*
X399445D01*
X432665Y-31985D02*
Y-18015D01*
X459335D01*
Y-31985D02*
Y-18015D01*
X432665Y-31985D02*
X459335D01*
X351015Y-3665D02*
X364985D01*
Y-30335D02*
Y-3665D01*
X351015Y-30335D02*
X364985D01*
X351015D02*
Y-3665D01*
X447015Y17835D02*
X460985D01*
Y-8835D02*
Y17835D01*
X447015Y-8835D02*
X460985D01*
X447015D02*
Y17835D01*
X342335Y-14495D02*
Y-525D01*
X315665Y-14495D02*
X342335D01*
X315665D02*
Y-525D01*
X342335D01*
X342335Y29985D02*
X342335Y16015D01*
X315665Y16015D02*
X342335Y16015D01*
X315665Y16015D02*
Y29985D01*
X342335D01*
X249505Y57665D02*
X263475D01*
X249505D02*
Y84335D01*
X263475D01*
Y57665D02*
Y84335D01*
X309015Y59665D02*
X322985D01*
X309015D02*
Y86335D01*
X322985D01*
Y59665D02*
Y86335D01*
X358967Y45967D02*
Y59937D01*
X385637D01*
Y45967D02*
Y59937D01*
X358967Y45967D02*
X385637D01*
X315665Y37015D02*
Y50985D01*
X342335D01*
Y37015D02*
Y50985D01*
X315665Y37015D02*
X342335D01*
X357665Y18015D02*
Y31985D01*
X384335D01*
Y18015D02*
Y31985D01*
X357665Y18015D02*
X384335D01*
X396665Y-31985D02*
Y-18015D01*
X423335D01*
Y-31985D02*
Y-18015D01*
X396665Y-31985D02*
X423335D01*
D25*
X82000Y-56000D02*
G03*
X82000Y-56000I-6000J0D01*
G01*
Y-500D02*
G03*
X82000Y-500I-6000J0D01*
G01*
X446650Y67700D02*
X459350D01*
Y42300D02*
Y67700D01*
X446650Y42300D02*
X459350D01*
X446650D02*
Y67700D01*
X362700Y-46350D02*
Y-33650D01*
X337300Y-46350D02*
X362700D01*
X337300D02*
Y-33650D01*
X362700D01*
D60*
X233490Y-27940D02*
G03*
X233490Y-27940I-2000J0D01*
G01*
X444255Y-18780D02*
Y16780D01*
X427745D02*
X444255D01*
X427745Y-18780D02*
Y16780D01*
Y-18780D02*
X444255D01*
X283125Y54670D02*
X314875D01*
Y1330D02*
Y54670D01*
X283125Y1330D02*
X314875D01*
X283125D02*
Y54670D01*
D61*
X129660Y-64450D02*
G03*
X129660Y-64450I-6000J0D01*
G01*
Y-41450D02*
G03*
X129660Y-41450I-6000J0D01*
G01*
X129730Y-11450D02*
G03*
X129730Y-11450I-6000J0D01*
G01*
X129730Y11550D02*
G03*
X129730Y11550I-6000J0D01*
G01*
X130000Y41000D02*
G03*
X130000Y41000I-6000J0D01*
G01*
Y64000D02*
G03*
X130000Y64000I-6000J0D01*
G01*
M02*
