M48
;Layer_Color=9474304
;FILE_FORMAT=4:4
METRIC,LZ
;TYPE=PLATED
T1F00S00C0.3000
T2F00S00C1.2000
T3F00S00C1.6500
%
T01
X00108Y-00083
X00162
X00187Y-00021
X0017Y00029
X0018Y00051
X00109Y00075
Y00025
Y-00027
X00196Y-00013
Y00002
X00234039Y0000715
X00245952Y-00002461
X00261Y00001
X00296Y-00005
X00299Y00031
X00287349Y00075261
X00244Y00066
X00235Y00071
X00226Y00065
X00192Y00064
X00253Y00054
X00243Y0003
X00246121Y-00039207
X00234Y-00059
X00233Y-00069
X00239Y-00078
X00225Y-00083
X002Y-00059
X00265731Y-00055339
X0028077Y-00077624
X00332Y-0005
X00347Y-00019
X00357Y0
X00389
Y00025
Y00052
X00423Y00056
X00436Y00073
X00466Y00059
X00454Y-00013
X00427Y-00025
X00426Y-00052
Y-00072
X00467Y-00064
X00495Y-0006
X00524Y-00073
X00528Y-00023
Y00016
X00384Y-0005
X00347Y00052
X00355Y0007
X00603Y00006
T02
X00076Y-00056
Y-000005
Y00055
X00124Y00064
Y00041
X0012373Y0001155
X0012373Y-0001145
X0012366Y-0004145
Y-0006445
T03
X00602Y-000778
Y000778
M30
