G04*
G04 #@! TF.GenerationSoftware,Altium Limited,Altium Designer,20.2.8 (258)*
G04*
G04 Layer_Physical_Order=2*
G04 Layer_Color=16711680*
%FSLAX44Y44*%
%MOMM*%
G71*
G04*
G04 #@! TF.SameCoordinates,1B73D90B-C723-4D7B-A954-5B6EDA06906F*
G04*
G04*
G04 #@! TF.FilePolarity,Positive*
G04*
G01*
G75*
%ADD11R,1.5000X1.5000*%
%ADD13R,0.7500X1.0000*%
%ADD14R,1.0000X0.7500*%
%ADD39C,0.3000*%
%ADD45C,0.8000*%
%ADD47C,0.3500*%
%ADD48C,0.5000*%
%ADD49C,0.6000*%
%ADD50C,1.5000*%
%ADD51C,3.2000*%
%ADD52R,2.2000X2.2000*%
%ADD53R,1.3000X1.3000*%
%ADD54C,2.2000*%
%ADD55C,0.6000*%
%ADD56R,1.5000X0.4000*%
G36*
X458000Y63000D02*
Y56000D01*
X460000Y54000D01*
X463511D01*
X463838Y53781D01*
X464384Y53673D01*
X464898Y53460D01*
X465454D01*
X466000Y53351D01*
X474810D01*
Y45720D01*
X483850D01*
Y44450D01*
X485120D01*
Y35410D01*
X492890D01*
X495000Y34469D01*
Y29032D01*
X492890Y28090D01*
X492500Y28090D01*
X474810D01*
Y10010D01*
X490500D01*
X492890Y10010D01*
X493000Y7556D01*
Y5144D01*
X492890Y2690D01*
X474810D01*
Y-14000D01*
X471000D01*
X467000Y-18000D01*
Y-25000D01*
X464000Y-28000D01*
X342000D01*
Y-19000D01*
X333000Y-10000D01*
Y50000D01*
X350000D01*
X354000Y54000D01*
Y64000D01*
X356000Y66000D01*
X455000D01*
X458000Y63000D01*
D02*
G37*
G36*
X225000Y74000D02*
X225043Y73118D01*
X225387Y71387D01*
X226062Y69757D01*
X227043Y68290D01*
X228290Y67042D01*
X229757Y66062D01*
X231387Y65387D01*
X233118Y65043D01*
X234000Y65000D01*
X312297D01*
X330351Y47663D01*
Y10094D01*
X327851Y8758D01*
X327162Y9219D01*
X325000Y9649D01*
X325000Y9649D01*
X316910D01*
Y11540D01*
X304330D01*
Y-3540D01*
X316910D01*
Y-1648D01*
X322660D01*
X330351Y-9340D01*
Y-12000D01*
X330351Y-12000D01*
X330781Y-14161D01*
X332006Y-15994D01*
X336000Y-19988D01*
Y-31000D01*
X339352D01*
Y-32000D01*
X339460Y-32546D01*
Y-33102D01*
X339673Y-33616D01*
X339781Y-34162D01*
X340090Y-34624D01*
X340303Y-35138D01*
X340697Y-35531D01*
X341006Y-35994D01*
X341469Y-36303D01*
X341862Y-36697D01*
X342376Y-36909D01*
X342838Y-37219D01*
X343384Y-37327D01*
X343898Y-37540D01*
X344454D01*
X345000Y-37648D01*
X345546Y-37540D01*
X346102D01*
X346616Y-37327D01*
X347162Y-37219D01*
X347624Y-36909D01*
X348138Y-36697D01*
X348531Y-36303D01*
X348994Y-35994D01*
X349303Y-35531D01*
X349697Y-35138D01*
X349910Y-34624D01*
X350219Y-34162D01*
X350327Y-33616D01*
X350540Y-33102D01*
Y-32546D01*
X350648Y-32000D01*
Y-31000D01*
X463000D01*
X463882Y-30957D01*
X465613Y-30613D01*
X467243Y-29938D01*
X468710Y-28958D01*
X469958Y-27710D01*
X470938Y-26243D01*
X471613Y-24613D01*
X471957Y-22882D01*
X472000Y-22000D01*
Y-21204D01*
X472609Y-19734D01*
X473734Y-18609D01*
X475204Y-18000D01*
X493000D01*
X493781Y-17924D01*
X495223Y-17327D01*
X496327Y-16223D01*
X496924Y-14781D01*
X497000Y-14000D01*
X497000Y19000D01*
X531000D01*
Y-69000D01*
X531000Y-69000D01*
Y-69886D01*
X530654Y-71625D01*
X529976Y-73263D01*
X528991Y-74737D01*
X527737Y-75991D01*
X526263Y-76976D01*
X524625Y-77654D01*
X522886Y-78000D01*
X354000D01*
X354000Y-78000D01*
X353219Y-78077D01*
X351778Y-78674D01*
X350674Y-79778D01*
X350077Y-81220D01*
X350000Y-82000D01*
Y-95280D01*
X349500Y-97792D01*
X348521Y-100158D01*
X347098Y-102287D01*
X345287Y-104098D01*
X343158Y-105520D01*
X340792Y-106500D01*
X338280Y-107000D01*
X337000D01*
X111000Y-107000D01*
Y93000D01*
X225000D01*
Y74000D01*
D02*
G37*
%LPC*%
G36*
X482580Y43180D02*
X474810D01*
Y35410D01*
X482580D01*
Y43180D01*
D02*
G37*
G36*
X125322Y84040D02*
X122678D01*
X120125Y83356D01*
X117835Y82034D01*
X115966Y80165D01*
X114644Y77875D01*
X113960Y75322D01*
Y72678D01*
X114644Y70125D01*
X115966Y67835D01*
X117835Y65966D01*
X120125Y64644D01*
X122678Y63960D01*
X125322D01*
X127875Y64644D01*
X130165Y65966D01*
X132034Y67835D01*
X133356Y70125D01*
X134040Y72678D01*
Y75322D01*
X133356Y77875D01*
X132034Y80165D01*
X130165Y82034D01*
X127875Y83356D01*
X125322Y84040D01*
D02*
G37*
G36*
Y61040D02*
X125270D01*
Y52270D01*
X134040D01*
Y52322D01*
X133356Y54875D01*
X132034Y57165D01*
X130165Y59034D01*
X127875Y60356D01*
X125322Y61040D01*
D02*
G37*
G36*
X122730D02*
X122678D01*
X120125Y60356D01*
X117835Y59034D01*
X115966Y57165D01*
X114644Y54875D01*
X113960Y52322D01*
Y52270D01*
X122730D01*
Y61040D01*
D02*
G37*
G36*
X290270Y53910D02*
Y48890D01*
X296540D01*
Y53910D01*
X290270D01*
D02*
G37*
G36*
X271730D02*
X265460D01*
Y48890D01*
X271730D01*
Y53910D01*
D02*
G37*
G36*
X296540Y46350D02*
X290270D01*
Y41330D01*
X296540D01*
Y46350D01*
D02*
G37*
G36*
X271730D02*
X265460D01*
Y41330D01*
X271730D01*
Y46350D01*
D02*
G37*
G36*
X281460Y53910D02*
X278960Y53910D01*
X274270D01*
Y47620D01*
Y41330D01*
X278960D01*
X280540Y41330D01*
X283040Y41330D01*
X287730D01*
Y47620D01*
Y53910D01*
X283040D01*
X281460Y53910D01*
D02*
G37*
G36*
X134040Y49730D02*
X125270D01*
Y40960D01*
X125322D01*
X127875Y41644D01*
X130165Y42966D01*
X132034Y44835D01*
X133356Y47125D01*
X134040Y49678D01*
Y49730D01*
D02*
G37*
G36*
X122730D02*
X113960D01*
Y49678D01*
X114644Y47125D01*
X115966Y44835D01*
X117835Y42966D01*
X120125Y41644D01*
X122678Y40960D01*
X122730D01*
Y49730D01*
D02*
G37*
G36*
X239910Y56540D02*
X227330D01*
Y43040D01*
X227330Y41460D01*
X227330D01*
Y40540D01*
X227330D01*
Y28004D01*
X225861Y27097D01*
X224670Y27726D01*
Y40540D01*
X224670D01*
Y41460D01*
X224670D01*
Y56540D01*
X212090D01*
X211540Y54910D01*
X192270D01*
Y48620D01*
X189730D01*
Y54910D01*
X183925D01*
X183138Y55697D01*
X181102Y56540D01*
X178898D01*
X176862Y55697D01*
X175303Y54138D01*
X174460Y52102D01*
Y49898D01*
X175303Y47862D01*
X175626Y47539D01*
Y29000D01*
X175959Y27326D01*
X176907Y25907D01*
X199407Y3407D01*
X199231Y518D01*
X193087Y-5626D01*
X192194Y-6962D01*
X191881Y-8539D01*
Y-9284D01*
X191303Y-9862D01*
X190460Y-11898D01*
Y-14102D01*
X191303Y-16138D01*
X192862Y-17697D01*
X194898Y-18540D01*
X197102D01*
X198881Y-20509D01*
Y-26090D01*
X183460D01*
Y-38670D01*
X208128D01*
X208902Y-40000D01*
X208128Y-41330D01*
X192270D01*
Y-47620D01*
Y-53910D01*
X212090D01*
Y-55540D01*
X224670D01*
Y-40460D01*
X224670D01*
Y-39540D01*
X224670D01*
Y-27153D01*
X225705Y-26417D01*
X227330Y-27330D01*
Y-39540D01*
X227330D01*
Y-40460D01*
X227330D01*
Y-55540D01*
X227330D01*
X228460Y-57898D01*
Y-60102D01*
X229194Y-61874D01*
X229862Y-64303D01*
X228303Y-65862D01*
X227460Y-67898D01*
Y-70102D01*
X228303Y-72138D01*
X229862Y-73697D01*
X231898Y-74540D01*
X234102D01*
X236138Y-73697D01*
X236893Y-72941D01*
X237576Y-72806D01*
X238913Y-71913D01*
X252571Y-58254D01*
X254881Y-59211D01*
Y-69269D01*
X240690Y-83460D01*
X239873D01*
X237837Y-84303D01*
X236278Y-85862D01*
X235435Y-87898D01*
Y-90102D01*
X236278Y-92138D01*
X237837Y-93697D01*
X239873Y-94540D01*
X242077D01*
X244113Y-93697D01*
X245672Y-92138D01*
X246515Y-90102D01*
Y-89285D01*
X261913Y-73888D01*
X262806Y-72551D01*
X263119Y-70975D01*
Y-30211D01*
X265429Y-29254D01*
X268090Y-31915D01*
Y-40540D01*
X268090D01*
Y-41460D01*
X268090D01*
Y-56540D01*
X280670D01*
Y-41460D01*
X280670D01*
Y-40540D01*
X280670D01*
Y-27906D01*
X282000Y-27137D01*
X283330Y-27906D01*
Y-40540D01*
X283330D01*
Y-41460D01*
X283330D01*
Y-56540D01*
X293099D01*
X294135Y-59040D01*
X276707Y-76467D01*
X275814Y-77804D01*
X275501Y-79380D01*
Y-83133D01*
X274923Y-83711D01*
X274080Y-85747D01*
Y-87951D01*
X274923Y-89987D01*
X276482Y-91546D01*
X278518Y-92389D01*
X280722D01*
X282758Y-91546D01*
X284317Y-89987D01*
X285160Y-87951D01*
Y-85747D01*
X284317Y-83711D01*
X283739Y-83133D01*
Y-81086D01*
X308913Y-55913D01*
X308914Y-55910D01*
X319730D01*
Y-49620D01*
Y-43330D01*
X298460D01*
Y-52079D01*
X298410Y-52113D01*
X295910Y-50777D01*
Y-41460D01*
X295910D01*
Y-40999D01*
X296006Y-40782D01*
X298460Y-40670D01*
Y-40670D01*
X328540D01*
Y-28540D01*
X328540D01*
Y-23460D01*
X323460D01*
Y-28090D01*
X320535D01*
X315533Y-23087D01*
X314196Y-22194D01*
X312620Y-21881D01*
X304706D01*
X295865Y-13040D01*
X296901Y-10540D01*
X297102D01*
X299138Y-9697D01*
X300697Y-8138D01*
X301540Y-6102D01*
Y-3898D01*
X301498Y-3797D01*
X301670Y-3540D01*
X301670D01*
Y11540D01*
X294754D01*
X293549Y14040D01*
X293806Y14424D01*
X294119Y16000D01*
Y26090D01*
X296540D01*
Y38670D01*
X281460D01*
Y38670D01*
X280540D01*
Y38670D01*
X265460D01*
Y32285D01*
X262087Y28913D01*
X261194Y27576D01*
X260881Y26000D01*
Y9000D01*
X261194Y7424D01*
X262087Y6087D01*
X264587Y3587D01*
X265924Y2694D01*
X267170Y2447D01*
Y-2381D01*
X264500D01*
X262924Y-2694D01*
X261587Y-3587D01*
X259596Y-5578D01*
X257287Y-4622D01*
Y29453D01*
X256973Y31029D01*
X256080Y32365D01*
X239910Y48535D01*
Y56540D01*
D02*
G37*
G36*
X518290Y15390D02*
X510520D01*
Y7620D01*
X518290D01*
Y15390D01*
D02*
G37*
G36*
X507980D02*
X500210D01*
Y7620D01*
X507980D01*
Y15390D01*
D02*
G37*
G36*
X125052Y21590D02*
X122408D01*
X119855Y20906D01*
X117565Y19584D01*
X115696Y17715D01*
X114374Y15425D01*
X113690Y12872D01*
Y10228D01*
X114374Y7675D01*
X115696Y5385D01*
X117565Y3516D01*
X119855Y2194D01*
X122408Y1510D01*
X125052D01*
X127605Y2194D01*
X129895Y3516D01*
X131764Y5385D01*
X133086Y7675D01*
X133770Y10228D01*
Y12872D01*
X133086Y15425D01*
X131764Y17715D01*
X129895Y19584D01*
X127605Y20906D01*
X125052Y21590D01*
D02*
G37*
G36*
X518290Y5080D02*
X510520D01*
Y-2690D01*
X518290D01*
Y5080D01*
D02*
G37*
G36*
X507980D02*
X500210D01*
Y-2690D01*
X507980D01*
Y5080D01*
D02*
G37*
G36*
X125052Y-1410D02*
X125000D01*
Y-10180D01*
X133770D01*
Y-10128D01*
X133086Y-7575D01*
X131764Y-5285D01*
X129895Y-3416D01*
X127605Y-2094D01*
X125052Y-1410D01*
D02*
G37*
G36*
X122460D02*
X122408D01*
X119855Y-2094D01*
X117565Y-3416D01*
X115696Y-5285D01*
X114374Y-7575D01*
X113690Y-10128D01*
Y-10180D01*
X122460D01*
Y-1410D01*
D02*
G37*
G36*
X133770Y-12720D02*
X125000D01*
Y-21490D01*
X125052D01*
X127605Y-20806D01*
X129895Y-19484D01*
X131764Y-17615D01*
X133086Y-15325D01*
X133770Y-12772D01*
Y-12720D01*
D02*
G37*
G36*
X122460D02*
X113690D01*
Y-12772D01*
X114374Y-15325D01*
X115696Y-17615D01*
X117565Y-19484D01*
X119855Y-20806D01*
X122408Y-21490D01*
X122460D01*
Y-12720D01*
D02*
G37*
G36*
X518290Y-10010D02*
X500210D01*
Y-28090D01*
X518290D01*
Y-10010D01*
D02*
G37*
G36*
X492890Y-22710D02*
X474810D01*
Y-40790D01*
X492890D01*
Y-22710D01*
D02*
G37*
G36*
X189730Y-41330D02*
X183460D01*
Y-46350D01*
X189730D01*
Y-41330D01*
D02*
G37*
G36*
X328540Y-43330D02*
X322270D01*
Y-48350D01*
X328540D01*
Y-43330D01*
D02*
G37*
G36*
X518290Y-35410D02*
X500210D01*
Y-53490D01*
X518290D01*
Y-35410D01*
D02*
G37*
G36*
X189730Y-48890D02*
X183460D01*
Y-53910D01*
X189730D01*
Y-48890D01*
D02*
G37*
G36*
X328540Y-50890D02*
X322270D01*
Y-55910D01*
X328540D01*
Y-50890D01*
D02*
G37*
G36*
X124982Y-41410D02*
X122338D01*
X119785Y-42094D01*
X117495Y-43416D01*
X115626Y-45285D01*
X114304Y-47575D01*
X113620Y-50128D01*
Y-52772D01*
X114304Y-55325D01*
X115626Y-57615D01*
X117495Y-59484D01*
X119785Y-60806D01*
X122338Y-61490D01*
X124982D01*
X127535Y-60806D01*
X129825Y-59484D01*
X131694Y-57615D01*
X133016Y-55325D01*
X133700Y-52772D01*
Y-50128D01*
X133016Y-47575D01*
X131694Y-45285D01*
X129825Y-43416D01*
X127535Y-42094D01*
X124982Y-41410D01*
D02*
G37*
G36*
Y-64410D02*
X124930D01*
Y-73180D01*
X133700D01*
Y-73128D01*
X133016Y-70575D01*
X131694Y-68285D01*
X129825Y-66416D01*
X127535Y-65094D01*
X124982Y-64410D01*
D02*
G37*
G36*
X122390D02*
X122338D01*
X119785Y-65094D01*
X117495Y-66416D01*
X115626Y-68285D01*
X114304Y-70575D01*
X113620Y-73128D01*
Y-73180D01*
X122390D01*
Y-64410D01*
D02*
G37*
G36*
X133700Y-75720D02*
X124930D01*
Y-84490D01*
X124982D01*
X127535Y-83806D01*
X129825Y-82484D01*
X131694Y-80615D01*
X133016Y-78325D01*
X133700Y-75772D01*
Y-75720D01*
D02*
G37*
G36*
X122390D02*
X113620D01*
Y-75772D01*
X114304Y-78325D01*
X115626Y-80615D01*
X117495Y-82484D01*
X119785Y-83806D01*
X122338Y-84490D01*
X122390D01*
Y-75720D01*
D02*
G37*
%LPD*%
G36*
X249048Y-10312D02*
Y-50126D01*
X242218Y-56956D01*
X239801Y-56236D01*
X239910Y-55540D01*
X239910D01*
Y-40460D01*
X239910D01*
Y-39540D01*
X239910D01*
Y-24460D01*
X238119D01*
Y-16000D01*
X237806Y-14424D01*
X236913Y-13087D01*
X236754Y-12929D01*
X237711Y-10619D01*
X243500D01*
X245076Y-10306D01*
X246413Y-9413D01*
X246548Y-9277D01*
X249048Y-10312D01*
D02*
G37*
D11*
X20000Y-60000D02*
D03*
X630000Y60000D02*
D03*
D13*
X289620Y-49000D02*
D03*
X274380D02*
D03*
X289620Y-33000D02*
D03*
X274380D02*
D03*
X218380Y-48000D02*
D03*
X233620D02*
D03*
X218380Y-32000D02*
D03*
X233620D02*
D03*
X218380Y33000D02*
D03*
X233620D02*
D03*
X218380Y49000D02*
D03*
X233620D02*
D03*
X310620Y4000D02*
D03*
X295380D02*
D03*
D14*
X273000Y47620D02*
D03*
Y32380D02*
D03*
X289000Y47620D02*
D03*
Y32380D02*
D03*
X306000Y-34380D02*
D03*
Y-49620D02*
D03*
X321000Y-34380D02*
D03*
Y-49620D02*
D03*
X191000Y-32380D02*
D03*
Y-47620D02*
D03*
X205000D02*
D03*
Y-32380D02*
D03*
X204000Y33380D02*
D03*
Y48620D02*
D03*
X191000Y33380D02*
D03*
Y48620D02*
D03*
D39*
X295380Y-3000D02*
G03*
X292380Y0I-3000J0D01*
G01*
X218790Y48590D02*
G03*
X218380Y49000I-410J0D01*
G01*
X218000Y48620D02*
G03*
X218380Y49000I0J380D01*
G01*
X234000Y32428D02*
G03*
X234240Y32380I240J572D01*
G01*
X234000Y32620D02*
G03*
X233620Y33000I-380J0D01*
G01*
D02*
G03*
X234000Y32428I620J0D01*
G01*
X218380Y-48000D02*
G03*
X218790Y-47590I0J410D01*
G01*
X203000Y-47620D02*
G03*
X203380Y-48000I380J0D01*
G01*
X233620Y-32000D02*
G03*
X235000Y-33380I1380J0D01*
G01*
X233620Y-32000D02*
G03*
X234000Y-31620I0J380D01*
G01*
X204000Y18000D02*
Y33380D01*
Y18000D02*
X209000Y13000D01*
X242000Y5000D02*
Y24000D01*
X204539Y0D02*
X237000D01*
X312620Y-26000D02*
X321000Y-34380D01*
X303000Y-26000D02*
X312620D01*
X290000Y-13000D02*
X303000Y-26000D01*
X277210Y-13000D02*
X290000D01*
X277210Y0D02*
X292380D01*
X218790Y19500D02*
Y48590D01*
X204000Y48620D02*
X218000D01*
X203000D02*
X204000D01*
X234000Y32428D02*
Y32620D01*
Y18000D02*
Y32428D01*
X218790Y-47590D02*
Y-19500D01*
X203380Y-48000D02*
X218380D01*
X203000Y-32380D02*
Y-18000D01*
X286620Y32380D02*
X290000Y29000D01*
X234000Y-31620D02*
Y-16000D01*
X231000Y-13000D02*
X234000Y-16000D01*
X218790Y-13000D02*
X231000D01*
X203000Y-18000D02*
X208000Y-13000D01*
X218790Y13000D02*
X229000D01*
X234000Y18000D01*
X240975Y-89000D02*
X259000Y-70975D01*
Y-12000D01*
X306000Y-53000D02*
Y-49620D01*
X279620Y-79380D02*
X306000Y-53000D01*
X236000Y-69000D02*
X253167Y-51832D01*
X233000Y-69000D02*
X236000D01*
X253167Y-51832D02*
Y29453D01*
X289620Y-33000D02*
X291000Y-34380D01*
X306000D01*
X259000Y-12000D02*
X264500Y-6500D01*
X233620Y49000D02*
X253167Y29453D01*
X243500Y-6500D02*
X245952Y-4048D01*
Y-2461D01*
X203000Y-32380D02*
X205000D01*
X191000D02*
X203000D01*
X274380Y-33000D02*
Y-32380D01*
X265000Y-23000D02*
X274380Y-32380D01*
X265000Y-23000D02*
Y-15000D01*
X267000Y-13000D01*
X277210D01*
X191000Y33380D02*
X203000D01*
X289620Y-33000D02*
Y-21620D01*
X287500Y-19500D02*
X289620Y-21620D01*
X277210Y-19500D02*
X287500D01*
X274380Y-49000D02*
Y-33000D01*
X265000Y26000D02*
X270000Y31000D01*
X279620Y-84849D02*
Y-79380D01*
X264500Y-6500D02*
X277210D01*
X233620Y-58620D02*
Y-48000D01*
X237000Y0D02*
X242000Y5000D01*
X196000Y-8539D02*
X204539Y0D01*
X265000Y9000D02*
Y26000D01*
Y9000D02*
X267500Y6500D01*
X277210D01*
X290000Y16000D02*
Y29000D01*
X287000Y13000D02*
X290000Y16000D01*
X277210Y13000D02*
X287000D01*
X218790Y-6500D02*
X243500D01*
X196000Y-13000D02*
Y-8539D01*
X289620Y-49000D02*
Y-33000D01*
X209000Y13000D02*
X218790D01*
X208000Y-13000D02*
X218790D01*
D45*
X96000Y96000D02*
X101000Y101000D01*
X436000Y73000D02*
X513000D01*
X347000D02*
X436000D01*
X513000D02*
X580000Y6000D01*
X319000Y101000D02*
X347000Y73000D01*
X603250Y6000D02*
Y77500D01*
Y-77500D02*
Y6000D01*
X101000Y101000D02*
X319000D01*
X580000Y6000D02*
X603250D01*
D47*
X180000Y29000D02*
X202500Y6500D01*
X180000Y29000D02*
Y51000D01*
X202500Y6500D02*
X218790D01*
X233389D01*
X234039Y7150D01*
D48*
X235000Y77000D02*
Y77000D01*
X242000Y84000D01*
X319000D01*
X344000Y59000D01*
X348000D01*
D49*
X523000Y10000D02*
Y44000D01*
X336000Y-12000D02*
Y-7000D01*
Y-12000D02*
X345000Y-21000D01*
Y-32000D02*
Y-21000D01*
X248000Y75000D02*
X312000D01*
X336000Y-7000D02*
Y51000D01*
X312000Y75000D02*
X336000Y51000D01*
X310620Y4000D02*
X325000D01*
X336000Y-7000D01*
X244000Y71000D02*
X248000Y75000D01*
X519350Y6350D02*
X523000Y10000D01*
X508000Y59000D02*
X523000Y44000D01*
X466000Y59000D02*
X508000D01*
X509250Y6350D02*
X519350D01*
D50*
X123730Y11550D02*
D03*
X123730Y-11450D02*
D03*
X123660Y-51450D02*
D03*
Y-74450D02*
D03*
X124000Y51000D02*
D03*
Y74000D02*
D03*
D51*
X572750Y-57150D02*
D03*
Y57150D02*
D03*
D52*
X603250Y77500D02*
D03*
Y-77500D02*
D03*
D53*
X509250Y-44450D02*
D03*
X483850Y-31750D02*
D03*
X509250Y-19050D02*
D03*
X483850Y-6350D02*
D03*
X509250Y6350D02*
D03*
X483850Y19050D02*
D03*
X509250Y31750D02*
D03*
X483850Y44450D02*
D03*
D54*
X96000Y96000D02*
D03*
D55*
X603000Y6000D02*
D03*
X180000Y51000D02*
D03*
X242000Y24000D02*
D03*
X311000Y28000D02*
D03*
X253000Y54000D02*
D03*
X186000Y90000D02*
D03*
X528000Y16000D02*
D03*
X347000Y-84000D02*
D03*
X114000Y90000D02*
D03*
X246121Y-39207D02*
D03*
X345000Y-32000D02*
D03*
X296000Y-5000D02*
D03*
X222000Y90000D02*
D03*
X114000Y32000D02*
D03*
Y-31000D02*
D03*
Y-104000D02*
D03*
X162000D02*
D03*
X207000D02*
D03*
X251000D02*
D03*
X528000Y-23000D02*
D03*
X524000Y-73000D02*
D03*
X467000Y-64000D02*
D03*
Y-45000D02*
D03*
X384000Y-50000D02*
D03*
X333000Y-37000D02*
D03*
X261000Y1000D02*
D03*
X196000Y2000D02*
D03*
X244000Y71000D02*
D03*
X240975Y-89000D02*
D03*
X245952Y-2461D02*
D03*
X235000Y77000D02*
D03*
X348000Y59000D02*
D03*
X233000Y-69000D02*
D03*
X343000Y-102000D02*
D03*
X200000Y-59000D02*
D03*
X171000Y-76000D02*
D03*
X169000Y51000D02*
D03*
X272000Y-60000D02*
D03*
X279620Y-86849D02*
D03*
X209000Y62000D02*
D03*
X312000Y-61000D02*
D03*
X299000Y-104000D02*
D03*
X234000Y-59000D02*
D03*
X436000Y73000D02*
D03*
X466000Y59000D02*
D03*
X357000Y63000D02*
D03*
Y0D02*
D03*
X389000D02*
D03*
Y25000D02*
D03*
Y52000D02*
D03*
X464000Y-4000D02*
D03*
Y-25000D02*
D03*
X427000D02*
D03*
X234039Y7150D02*
D03*
X196000Y-13000D02*
D03*
X187000Y-21000D02*
D03*
X426000Y-52000D02*
D03*
Y-72000D02*
D03*
D56*
X218790Y-19500D02*
D03*
Y-13000D02*
D03*
Y-6500D02*
D03*
Y0D02*
D03*
Y6500D02*
D03*
Y13000D02*
D03*
Y19500D02*
D03*
X277210D02*
D03*
Y13000D02*
D03*
Y6500D02*
D03*
Y0D02*
D03*
Y-6500D02*
D03*
Y-13000D02*
D03*
Y-19500D02*
D03*
M02*
