G04*
G04 #@! TF.GenerationSoftware,Altium Limited,Altium Designer,24.10.1 (45)*
G04*
G04 Layer_Color=65535*
%FSLAX44Y44*%
%MOMM*%
G71*
G04*
G04 #@! TF.SameCoordinates,0F3F22FE-DA61-4AAF-8E1A-7C7289578FEE*
G04*
G04*
G04 #@! TF.FilePolarity,Positive*
G04*
G01*
G75*
%ADD10C,0.1000*%
%ADD11C,0.1500*%
D10*
X314000Y-20000D02*
X316000Y-22000D01*
X300000Y-20000D02*
X314000D01*
X294000Y-26000D02*
X300000Y-20000D01*
X322000Y55000D02*
X326000Y59000D01*
X284000Y55000D02*
X322000D01*
X282000Y53000D02*
X284000Y55000D01*
X150000Y80000D02*
X153000Y83000D01*
X193000D01*
D11*
X342000Y-15000D02*
Y-2000D01*
X328000Y-15000D02*
X342000D01*
X319000Y75000D02*
X326597Y67403D01*
X420000Y0D02*
X427000D01*
Y-15000D02*
Y0D01*
X115660Y-29450D02*
X134660D01*
Y-76450D02*
Y-29450D01*
X116660Y-76450D02*
X134660D01*
X115730Y23550D02*
X134730D01*
Y-23450D02*
Y23550D01*
X116730Y-23450D02*
X134730D01*
X116000Y30000D02*
X135000D01*
Y77000D01*
X116000D02*
X135000D01*
X329000Y-61000D02*
X330000D01*
Y-16000D01*
X303762Y-81762D02*
Y-36000D01*
Y-81762D02*
X305000Y-83000D01*
X310000D01*
X329000D01*
Y-36000D01*
X303762D02*
X329000D01*
X315000Y-15000D02*
Y52000D01*
Y-15000D02*
X328000D01*
X342000Y-2000D02*
Y52000D01*
X315000D02*
X342000D01*
X326597Y67403D02*
X355403D01*
X309000Y59000D02*
Y66000D01*
X414000Y55000D02*
X418000Y52000D01*
X219000Y-45000D02*
Y-39000D01*
X184000Y27000D02*
X190000D01*
X94136Y-37452D02*
X99468Y-45450D01*
Y-37452D02*
X94136Y-45450D01*
X105829Y-37452D02*
X102020D01*
X101639Y-40880D01*
X102020Y-40499D01*
X103163Y-40118D01*
X104305D01*
X105448Y-40499D01*
X106210Y-41260D01*
X106591Y-42403D01*
Y-43165D01*
X106210Y-44307D01*
X105448Y-45069D01*
X104305Y-45450D01*
X103163D01*
X102020Y-45069D01*
X101639Y-44688D01*
X101258Y-43927D01*
X170713Y39094D02*
X170332Y39856D01*
X169571Y40617D01*
X168809Y40998D01*
X167285D01*
X166523Y40617D01*
X165762Y39856D01*
X165381Y39094D01*
X165000Y37951D01*
Y36047D01*
X165381Y34904D01*
X165762Y34143D01*
X166523Y33381D01*
X167285Y33000D01*
X168809D01*
X169571Y33381D01*
X170332Y34143D01*
X170713Y34904D01*
X172960Y39475D02*
X173722Y39856D01*
X174865Y40998D01*
Y33000D01*
X196000Y84998D02*
Y77000D01*
Y84998D02*
X199428D01*
X200570Y84617D01*
X200951Y84237D01*
X201332Y83475D01*
Y82713D01*
X200951Y81951D01*
X200570Y81570D01*
X199428Y81190D01*
X196000D01*
X198666D02*
X201332Y77000D01*
X203122Y83475D02*
X203884Y83856D01*
X205027Y84998D01*
Y77000D01*
X186998Y78000D02*
X179000Y74953D01*
X186998Y71906D02*
X179000Y74953D01*
X185475Y70878D02*
X185856Y70116D01*
X186998Y68973D01*
X179000D01*
X166000Y56998D02*
Y49000D01*
Y56998D02*
X169428D01*
X170571Y56617D01*
X170951Y56237D01*
X171332Y55475D01*
Y54713D01*
X170951Y53951D01*
X170571Y53570D01*
X169428Y53190D01*
X166000D01*
X168666D02*
X171332Y49000D01*
X173503Y55094D02*
Y55475D01*
X173884Y56237D01*
X174265Y56617D01*
X175027Y56998D01*
X176550D01*
X177312Y56617D01*
X177693Y56237D01*
X178074Y55475D01*
Y54713D01*
X177693Y53951D01*
X176931Y52809D01*
X173122Y49000D01*
X178454D01*
X199094Y-71713D02*
X199856Y-71332D01*
X200617Y-70570D01*
X200998Y-69809D01*
Y-68285D01*
X200617Y-67523D01*
X199856Y-66762D01*
X199094Y-66381D01*
X197951Y-66000D01*
X196047D01*
X194904Y-66381D01*
X194143Y-66762D01*
X193381Y-67523D01*
X193000Y-68285D01*
Y-69809D01*
X193381Y-70570D01*
X194143Y-71332D01*
X194904Y-71713D01*
X199856Y-78531D02*
X200617Y-78150D01*
X200998Y-77007D01*
Y-76245D01*
X200617Y-75103D01*
X199475Y-74341D01*
X197570Y-73960D01*
X195666D01*
X194143Y-74341D01*
X193381Y-75103D01*
X193000Y-76245D01*
Y-76626D01*
X193381Y-77769D01*
X194143Y-78531D01*
X195285Y-78911D01*
X195666D01*
X196809Y-78531D01*
X197570Y-77769D01*
X197951Y-76626D01*
Y-76245D01*
X197570Y-75103D01*
X196809Y-74341D01*
X195666Y-73960D01*
X186658Y-42450D02*
X178660Y-45497D01*
X186658Y-48544D02*
X178660Y-45497D01*
X186658Y-50334D02*
Y-54524D01*
X183611Y-52238D01*
Y-53381D01*
X183230Y-54143D01*
X182850Y-54524D01*
X181707Y-54904D01*
X180945D01*
X179803Y-54524D01*
X179041Y-53762D01*
X178660Y-52619D01*
Y-51477D01*
X179041Y-50334D01*
X179422Y-49953D01*
X180184Y-49572D01*
X24829Y13329D02*
Y6665D01*
Y9997D01*
X14832D01*
Y1666D02*
Y-1666D01*
X16498Y-3332D01*
X19831D01*
X21497Y-1666D01*
Y1666D01*
X19831Y3332D01*
X16498D01*
X14832Y1666D01*
X11500Y-6665D02*
X21497D01*
Y-11663D01*
X19831Y-13329D01*
X16498D01*
X14832Y-11663D01*
Y-6665D01*
X31500Y23326D02*
X41497D01*
X38165Y19994D01*
X41497Y16661D01*
X31500D01*
X41497Y13329D02*
Y6665D01*
X39831D01*
X33166Y13329D01*
X31500D01*
Y-1666D02*
X41497D01*
X36498Y3332D01*
Y-3332D01*
X31500Y-6665D02*
X41497D01*
Y-11663D01*
X39831Y-13329D01*
X36498D01*
X34832Y-11663D01*
Y-6665D01*
Y-9997D02*
X31500Y-13329D01*
Y-23326D02*
Y-16661D01*
X38165Y-23326D01*
X39831D01*
X41497Y-21660D01*
Y-18327D01*
X39831Y-16661D01*
X363337Y-43999D02*
Y-36001D01*
X367336D01*
X368668Y-37334D01*
Y-40000D01*
X367336Y-41333D01*
X363337D01*
X366003D02*
X368668Y-43999D01*
X371334Y-37334D02*
X372667Y-36001D01*
X375333D01*
X376666Y-37334D01*
Y-38667D01*
X375333Y-40000D01*
X374000D01*
X375333D01*
X376666Y-41333D01*
Y-42666D01*
X375333Y-43999D01*
X372667D01*
X371334Y-42666D01*
X384663Y-43999D02*
X379332D01*
X384663Y-38667D01*
Y-37334D01*
X383330Y-36001D01*
X380664D01*
X379332Y-37334D01*
X439713Y-59906D02*
X439332Y-59144D01*
X438570Y-58383D01*
X437809Y-58002D01*
X436285D01*
X435523Y-58383D01*
X434762Y-59144D01*
X434381Y-59906D01*
X434000Y-61049D01*
Y-62953D01*
X434381Y-64096D01*
X434762Y-64857D01*
X435523Y-65619D01*
X436285Y-66000D01*
X437809D01*
X438570Y-65619D01*
X439332Y-64857D01*
X439713Y-64096D01*
X442341Y-59906D02*
Y-59525D01*
X442722Y-58763D01*
X443103Y-58383D01*
X443865Y-58002D01*
X445388D01*
X446150Y-58383D01*
X446531Y-58763D01*
X446912Y-59525D01*
Y-60287D01*
X446531Y-61049D01*
X445769Y-62191D01*
X441960Y-66000D01*
X447292D01*
X449463Y-59906D02*
Y-59525D01*
X449844Y-58763D01*
X450225Y-58383D01*
X450987Y-58002D01*
X452510D01*
X453272Y-58383D01*
X453653Y-58763D01*
X454034Y-59525D01*
Y-60287D01*
X453653Y-61049D01*
X452891Y-62191D01*
X449082Y-66000D01*
X454415D01*
X454336Y77999D02*
X459667Y70001D01*
Y77999D02*
X454336Y70001D01*
X462333Y77999D02*
X467664D01*
Y76666D01*
X462333Y71334D01*
Y70001D01*
X52000Y44998D02*
X57332Y37000D01*
Y44998D02*
X52000Y37000D01*
X61027Y44998D02*
X59884Y44617D01*
X59503Y43856D01*
Y43094D01*
X59884Y42332D01*
X60646Y41951D01*
X62169Y41571D01*
X63312Y41190D01*
X64074Y40428D01*
X64454Y39666D01*
Y38523D01*
X64074Y37762D01*
X63693Y37381D01*
X62550Y37000D01*
X61027D01*
X59884Y37381D01*
X59503Y37762D01*
X59122Y38523D01*
Y39666D01*
X59503Y40428D01*
X60265Y41190D01*
X61407Y41571D01*
X62931Y41951D01*
X63693Y42332D01*
X64074Y43094D01*
Y43856D01*
X63693Y44617D01*
X62550Y44998D01*
X61027D01*
X94612Y-61452D02*
X99944Y-69450D01*
Y-61452D02*
X94612Y-69450D01*
X106305Y-62594D02*
X105924Y-61833D01*
X104782Y-61452D01*
X104020D01*
X102877Y-61833D01*
X102115Y-62975D01*
X101735Y-64880D01*
Y-66784D01*
X102115Y-68307D01*
X102877Y-69069D01*
X104020Y-69450D01*
X104401D01*
X105543Y-69069D01*
X106305Y-68307D01*
X106686Y-67165D01*
Y-66784D01*
X106305Y-65641D01*
X105543Y-64880D01*
X104401Y-64499D01*
X104020D01*
X102877Y-64880D01*
X102115Y-65641D01*
X101735Y-66784D01*
X93660Y-8452D02*
X98992Y-16450D01*
Y-8452D02*
X93660Y-16450D01*
X104591Y-8452D02*
X100782Y-13784D01*
X106495D01*
X104591Y-8452D02*
Y-16450D01*
X93000Y14998D02*
X98332Y7000D01*
Y14998D02*
X93000Y7000D01*
X100884Y14998D02*
X105074D01*
X102788Y11951D01*
X103931D01*
X104693Y11571D01*
X105074Y11190D01*
X105455Y10047D01*
Y9285D01*
X105074Y8143D01*
X104312Y7381D01*
X103169Y7000D01*
X102027D01*
X100884Y7381D01*
X100503Y7762D01*
X100122Y8523D01*
X94136Y43998D02*
X99468Y36000D01*
Y43998D02*
X94136Y36000D01*
X101639Y42094D02*
Y42475D01*
X102020Y43237D01*
X102401Y43617D01*
X103163Y43998D01*
X104686D01*
X105448Y43617D01*
X105829Y43237D01*
X106210Y42475D01*
Y41713D01*
X105829Y40951D01*
X105067Y39809D01*
X101258Y36000D01*
X106591D01*
X97000Y67998D02*
X102332Y60000D01*
Y67998D02*
X97000Y60000D01*
X104122Y66475D02*
X104884Y66856D01*
X106027Y67998D01*
Y60000D01*
X195000Y-16002D02*
X198047Y-24000D01*
X201094Y-16002D02*
X198047Y-24000D01*
X206693Y-17144D02*
X206312Y-16383D01*
X205169Y-16002D01*
X204408D01*
X203265Y-16383D01*
X202503Y-17525D01*
X202122Y-19430D01*
Y-21334D01*
X202503Y-22857D01*
X203265Y-23619D01*
X204408Y-24000D01*
X204788D01*
X205931Y-23619D01*
X206693Y-22857D01*
X207074Y-21715D01*
Y-21334D01*
X206693Y-20191D01*
X205931Y-19430D01*
X204788Y-19049D01*
X204408D01*
X203265Y-19430D01*
X202503Y-20191D01*
X202122Y-21334D01*
X209002Y37000D02*
X217000Y40047D01*
X209002Y43094D02*
X217000Y40047D01*
X209002Y48693D02*
Y44884D01*
X212430Y44503D01*
X212049Y44884D01*
X211668Y46027D01*
Y47169D01*
X212049Y48312D01*
X212810Y49074D01*
X213953Y49454D01*
X214715D01*
X215857Y49074D01*
X216619Y48312D01*
X217000Y47169D01*
Y46027D01*
X216619Y44884D01*
X216238Y44503D01*
X215476Y44122D01*
X271000Y-3002D02*
X274047Y-11000D01*
X277094Y-3002D02*
X274047Y-11000D01*
X281931Y-3002D02*
X278122Y-8334D01*
X283835D01*
X281931Y-3002D02*
Y-11000D01*
X186728Y20550D02*
X178730Y17503D01*
X186728Y14456D02*
X178730Y17503D01*
X184824Y13047D02*
X185205D01*
X185967Y12666D01*
X186348Y12285D01*
X186728Y11523D01*
Y10000D01*
X186348Y9238D01*
X185967Y8857D01*
X185205Y8476D01*
X184443D01*
X183681Y8857D01*
X182539Y9619D01*
X178730Y13428D01*
Y8096D01*
X243998Y9000D02*
X236000D01*
X243998D02*
Y5572D01*
X243617Y4430D01*
X243237Y4049D01*
X242475Y3668D01*
X241713D01*
X240951Y4049D01*
X240571Y4430D01*
X240190Y5572D01*
Y9000D01*
Y6334D02*
X236000Y3668D01*
X241332Y-3074D02*
X240190Y-2693D01*
X239428Y-1931D01*
X239047Y-788D01*
Y-408D01*
X239428Y735D01*
X240190Y1497D01*
X241332Y1878D01*
X241713D01*
X242856Y1497D01*
X243617Y735D01*
X243998Y-408D01*
Y-788D01*
X243617Y-1931D01*
X242856Y-2693D01*
X241332Y-3074D01*
X239428D01*
X237523Y-2693D01*
X236381Y-1931D01*
X236000Y-788D01*
Y-27D01*
X236381Y1116D01*
X237143Y1497D01*
X165730Y-452D02*
Y-8450D01*
Y-452D02*
X169158D01*
X170301Y-833D01*
X170681Y-1213D01*
X171062Y-1975D01*
Y-2737D01*
X170681Y-3499D01*
X170301Y-3880D01*
X169158Y-4260D01*
X165730D01*
X168396D02*
X171062Y-8450D01*
X174757Y-452D02*
X173614Y-833D01*
X173233Y-1594D01*
Y-2356D01*
X173614Y-3118D01*
X174376Y-3499D01*
X175899Y-3880D01*
X177042Y-4260D01*
X177804Y-5022D01*
X178185Y-5784D01*
Y-6927D01*
X177804Y-7688D01*
X177423Y-8069D01*
X176280Y-8450D01*
X174757D01*
X173614Y-8069D01*
X173233Y-7688D01*
X172852Y-6927D01*
Y-5784D01*
X173233Y-5022D01*
X173995Y-4260D01*
X175138Y-3880D01*
X176661Y-3499D01*
X177423Y-3118D01*
X177804Y-2356D01*
Y-1594D01*
X177423Y-833D01*
X176280Y-452D01*
X174757D01*
X143730Y32548D02*
Y24550D01*
Y32548D02*
X147158D01*
X148301Y32167D01*
X148681Y31787D01*
X149062Y31025D01*
Y30263D01*
X148681Y29501D01*
X148301Y29121D01*
X147158Y28740D01*
X143730D01*
X146396D02*
X149062Y24550D01*
X156185Y32548D02*
X152376Y24550D01*
X150852Y32548D02*
X156185D01*
X461000Y31998D02*
Y24000D01*
Y31998D02*
X464428D01*
X465570Y31617D01*
X465951Y31237D01*
X466332Y30475D01*
Y29713D01*
X465951Y28951D01*
X465570Y28570D01*
X464428Y28190D01*
X461000D01*
X463666D02*
X466332Y24000D01*
X468884Y31998D02*
X473074D01*
X470788Y28951D01*
X471931D01*
X472693Y28570D01*
X473074Y28190D01*
X473455Y27047D01*
Y26285D01*
X473074Y25143D01*
X472312Y24381D01*
X471169Y24000D01*
X470027D01*
X468884Y24381D01*
X468503Y24762D01*
X468122Y25524D01*
X475245Y30475D02*
X476006Y30856D01*
X477149Y31998D01*
Y24000D01*
X428998Y77000D02*
X421000D01*
X428998D02*
Y73572D01*
X428617Y72429D01*
X428237Y72049D01*
X427475Y71668D01*
X426713D01*
X425951Y72049D01*
X425570Y72429D01*
X425190Y73572D01*
Y77000D01*
Y74334D02*
X421000Y71668D01*
X428998Y69116D02*
Y64926D01*
X425951Y67212D01*
Y66069D01*
X425570Y65307D01*
X425190Y64926D01*
X424047Y64545D01*
X423285D01*
X422143Y64926D01*
X421381Y65688D01*
X421000Y66831D01*
Y67973D01*
X421381Y69116D01*
X421762Y69497D01*
X422523Y69878D01*
X428998Y60470D02*
X428617Y61613D01*
X427475Y62375D01*
X425570Y62755D01*
X424428D01*
X422523Y62375D01*
X421381Y61613D01*
X421000Y60470D01*
Y59708D01*
X421381Y58566D01*
X422523Y57804D01*
X424428Y57423D01*
X425570D01*
X427475Y57804D01*
X428617Y58566D01*
X428998Y59708D01*
Y60470D01*
X229998Y9000D02*
X222000D01*
X229998D02*
Y5572D01*
X229617Y4430D01*
X229237Y4049D01*
X228475Y3668D01*
X227713D01*
X226951Y4049D01*
X226570Y4430D01*
X226190Y5572D01*
Y9000D01*
Y6334D02*
X222000Y3668D01*
X229998Y1116D02*
Y-3074D01*
X226951Y-788D01*
Y-1931D01*
X226570Y-2693D01*
X226190Y-3074D01*
X225047Y-3455D01*
X224285D01*
X223143Y-3074D01*
X222381Y-2312D01*
X222000Y-1169D01*
Y-27D01*
X222381Y1116D01*
X222762Y1497D01*
X223524Y1878D01*
X469998Y65000D02*
X462000D01*
X469998D02*
Y61572D01*
X469617Y60430D01*
X469237Y60049D01*
X468475Y59668D01*
X467713D01*
X466951Y60049D01*
X466570Y60430D01*
X466190Y61572D01*
Y65000D01*
Y62334D02*
X462000Y59668D01*
X468094Y57497D02*
X468475D01*
X469237Y57116D01*
X469617Y56735D01*
X469998Y55973D01*
Y54450D01*
X469617Y53688D01*
X469237Y53307D01*
X468475Y52926D01*
X467713D01*
X466951Y53307D01*
X465809Y54069D01*
X462000Y57878D01*
Y52545D01*
X467332Y45804D02*
X466190Y46185D01*
X465428Y46947D01*
X465047Y48089D01*
Y48470D01*
X465428Y49613D01*
X466190Y50374D01*
X467332Y50755D01*
X467713D01*
X468856Y50374D01*
X469617Y49613D01*
X469998Y48470D01*
Y48089D01*
X469617Y46947D01*
X468856Y46185D01*
X467332Y45804D01*
X465428D01*
X463523Y46185D01*
X462381Y46947D01*
X462000Y48089D01*
Y48851D01*
X462381Y49994D01*
X463143Y50374D01*
X370000Y-70002D02*
Y-78000D01*
Y-70002D02*
X373428D01*
X374570Y-70383D01*
X374951Y-70763D01*
X375332Y-71525D01*
Y-72287D01*
X374951Y-73049D01*
X374570Y-73429D01*
X373428Y-73810D01*
X370000D01*
X372666D02*
X375332Y-78000D01*
X377503Y-71906D02*
Y-71525D01*
X377884Y-70763D01*
X378265Y-70383D01*
X379027Y-70002D01*
X380550D01*
X381312Y-70383D01*
X381693Y-70763D01*
X382074Y-71525D01*
Y-72287D01*
X381693Y-73049D01*
X380931Y-74191D01*
X377122Y-78000D01*
X382454D01*
X386149Y-70002D02*
X385006Y-70383D01*
X384625Y-71144D01*
Y-71906D01*
X385006Y-72668D01*
X385768Y-73049D01*
X387291Y-73429D01*
X388434Y-73810D01*
X389196Y-74572D01*
X389577Y-75334D01*
Y-76476D01*
X389196Y-77238D01*
X388815Y-77619D01*
X387672Y-78000D01*
X386149D01*
X385006Y-77619D01*
X384625Y-77238D01*
X384245Y-76476D01*
Y-75334D01*
X384625Y-74572D01*
X385387Y-73810D01*
X386530Y-73429D01*
X388053Y-73049D01*
X388815Y-72668D01*
X389196Y-71906D01*
Y-71144D01*
X388815Y-70383D01*
X387672Y-70002D01*
X386149D01*
X253000Y-58002D02*
Y-66000D01*
Y-58002D02*
X256428D01*
X257570Y-58383D01*
X257951Y-58763D01*
X258332Y-59525D01*
Y-60287D01*
X257951Y-61049D01*
X257570Y-61430D01*
X256428Y-61810D01*
X253000D01*
X255666D02*
X258332Y-66000D01*
X260503Y-59906D02*
Y-59525D01*
X260884Y-58763D01*
X261265Y-58383D01*
X262027Y-58002D01*
X263550D01*
X264312Y-58383D01*
X264693Y-58763D01*
X265074Y-59525D01*
Y-60287D01*
X264693Y-61049D01*
X263931Y-62191D01*
X260122Y-66000D01*
X265455D01*
X272577Y-58002D02*
X268768Y-66000D01*
X267245Y-58002D02*
X272577D01*
X397000Y-36002D02*
Y-44000D01*
Y-36002D02*
X400428D01*
X401570Y-36383D01*
X401951Y-36763D01*
X402332Y-37525D01*
Y-38287D01*
X401951Y-39049D01*
X401570Y-39430D01*
X400428Y-39810D01*
X397000D01*
X399666D02*
X402332Y-44000D01*
X404503Y-37906D02*
Y-37525D01*
X404884Y-36763D01*
X405265Y-36383D01*
X406027Y-36002D01*
X407550D01*
X408312Y-36383D01*
X408693Y-36763D01*
X409074Y-37525D01*
Y-38287D01*
X408693Y-39049D01*
X407931Y-40191D01*
X404122Y-44000D01*
X409454D01*
X415815Y-37144D02*
X415434Y-36383D01*
X414291Y-36002D01*
X413530D01*
X412387Y-36383D01*
X411625Y-37525D01*
X411245Y-39430D01*
Y-41334D01*
X411625Y-42857D01*
X412387Y-43619D01*
X413530Y-44000D01*
X413911D01*
X415053Y-43619D01*
X415815Y-42857D01*
X416196Y-41715D01*
Y-41334D01*
X415815Y-40191D01*
X415053Y-39430D01*
X413911Y-39049D01*
X413530D01*
X412387Y-39430D01*
X411625Y-40191D01*
X411245Y-41334D01*
X273000Y-27002D02*
Y-35000D01*
Y-27002D02*
X276428D01*
X277570Y-27383D01*
X277951Y-27763D01*
X278332Y-28525D01*
Y-29287D01*
X277951Y-30049D01*
X277570Y-30430D01*
X276428Y-30810D01*
X273000D01*
X275666D02*
X278332Y-35000D01*
X280503Y-28906D02*
Y-28525D01*
X280884Y-27763D01*
X281265Y-27383D01*
X282027Y-27002D01*
X283550D01*
X284312Y-27383D01*
X284693Y-27763D01*
X285074Y-28525D01*
Y-29287D01*
X284693Y-30049D01*
X283931Y-31191D01*
X280122Y-35000D01*
X285455D01*
X288006Y-27002D02*
X292196D01*
X289911Y-30049D01*
X291053D01*
X291815Y-30430D01*
X292196Y-30810D01*
X292577Y-31953D01*
Y-32715D01*
X292196Y-33857D01*
X291434Y-34619D01*
X290292Y-35000D01*
X289149D01*
X288006Y-34619D01*
X287625Y-34238D01*
X287245Y-33477D01*
X370000Y78998D02*
Y71000D01*
Y78998D02*
X373428D01*
X374570Y78617D01*
X374951Y78237D01*
X375332Y77475D01*
Y76713D01*
X374951Y75951D01*
X374570Y75571D01*
X373428Y75190D01*
X370000D01*
X372666D02*
X375332Y71000D01*
X377503Y77094D02*
Y77475D01*
X377884Y78237D01*
X378265Y78617D01*
X379027Y78998D01*
X380550D01*
X381312Y78617D01*
X381693Y78237D01*
X382074Y77475D01*
Y76713D01*
X381693Y75951D01*
X380931Y74809D01*
X377122Y71000D01*
X382454D01*
X384625Y77094D02*
Y77475D01*
X385006Y78237D01*
X385387Y78617D01*
X386149Y78998D01*
X387672D01*
X388434Y78617D01*
X388815Y78237D01*
X389196Y77475D01*
Y76713D01*
X388815Y75951D01*
X388053Y74809D01*
X384245Y71000D01*
X389577D01*
X263000Y54998D02*
Y47000D01*
Y54998D02*
X266428D01*
X267570Y54617D01*
X267951Y54237D01*
X268332Y53475D01*
Y52713D01*
X267951Y51951D01*
X267570Y51571D01*
X266428Y51190D01*
X263000D01*
X265666D02*
X268332Y47000D01*
X270503Y53094D02*
Y53475D01*
X270884Y54237D01*
X271265Y54617D01*
X272027Y54998D01*
X273550D01*
X274312Y54617D01*
X274693Y54237D01*
X275074Y53475D01*
Y52713D01*
X274693Y51951D01*
X273931Y50809D01*
X270122Y47000D01*
X275455D01*
X277245Y53475D02*
X278006Y53856D01*
X279149Y54998D01*
Y47000D01*
X415998Y77000D02*
X408000D01*
X415998D02*
Y73572D01*
X415617Y72429D01*
X415237Y72049D01*
X414475Y71668D01*
X413713D01*
X412951Y72049D01*
X412570Y72429D01*
X412190Y73572D01*
Y77000D01*
Y74334D02*
X408000Y71668D01*
X414094Y69497D02*
X414475D01*
X415237Y69116D01*
X415617Y68735D01*
X415998Y67973D01*
Y66450D01*
X415617Y65688D01*
X415237Y65307D01*
X414475Y64926D01*
X413713D01*
X412951Y65307D01*
X411809Y66069D01*
X408000Y69878D01*
Y64545D01*
X415998Y60470D02*
X415617Y61613D01*
X414475Y62375D01*
X412570Y62755D01*
X411428D01*
X409524Y62375D01*
X408381Y61613D01*
X408000Y60470D01*
Y59708D01*
X408381Y58566D01*
X409524Y57804D01*
X411428Y57423D01*
X412570D01*
X414475Y57804D01*
X415617Y58566D01*
X415998Y59708D01*
Y60470D01*
X431998Y-19000D02*
X424000D01*
X431998D02*
Y-22428D01*
X431617Y-23570D01*
X431237Y-23951D01*
X430475Y-24332D01*
X429713D01*
X428951Y-23951D01*
X428570Y-23570D01*
X428190Y-22428D01*
Y-19000D01*
Y-21666D02*
X424000Y-24332D01*
X430475Y-26122D02*
X430856Y-26884D01*
X431998Y-28027D01*
X424000D01*
X429332Y-36939D02*
X428190Y-36558D01*
X427428Y-35796D01*
X427047Y-34654D01*
Y-34273D01*
X427428Y-33130D01*
X428190Y-32369D01*
X429332Y-31988D01*
X429713D01*
X430856Y-32369D01*
X431617Y-33130D01*
X431998Y-34273D01*
Y-34654D01*
X431617Y-35796D01*
X430856Y-36558D01*
X429332Y-36939D01*
X427428D01*
X425523Y-36558D01*
X424381Y-35796D01*
X424000Y-34654D01*
Y-33892D01*
X424381Y-32749D01*
X425143Y-32369D01*
X226984Y-76048D02*
Y-84046D01*
Y-76048D02*
X230412D01*
X231555Y-76429D01*
X231936Y-76810D01*
X232316Y-77571D01*
Y-78333D01*
X231936Y-79095D01*
X231555Y-79476D01*
X230412Y-79857D01*
X226984D01*
X229650D02*
X232316Y-84046D01*
X234107Y-77571D02*
X234868Y-77190D01*
X236011Y-76048D01*
Y-84046D01*
X244542Y-76048D02*
X240734D01*
X240353Y-79476D01*
X240734Y-79095D01*
X241876Y-78714D01*
X243019D01*
X244161Y-79095D01*
X244923Y-79857D01*
X245304Y-80999D01*
Y-81761D01*
X244923Y-82903D01*
X244161Y-83665D01*
X243019Y-84046D01*
X241876D01*
X240734Y-83665D01*
X240353Y-83284D01*
X239972Y-82523D01*
X141000Y-75002D02*
Y-83000D01*
Y-75002D02*
X144428D01*
X145570Y-75383D01*
X145951Y-75764D01*
X146332Y-76525D01*
Y-77287D01*
X145951Y-78049D01*
X145570Y-78430D01*
X144428Y-78810D01*
X141000D01*
X143666D02*
X146332Y-83000D01*
X148122Y-76525D02*
X148884Y-76144D01*
X150027Y-75002D01*
Y-83000D01*
X157796Y-75002D02*
X153988Y-80334D01*
X159701D01*
X157796Y-75002D02*
Y-83000D01*
X139000Y-30002D02*
Y-38000D01*
Y-30002D02*
X142428D01*
X143570Y-30383D01*
X143951Y-30763D01*
X144332Y-31525D01*
Y-32287D01*
X143951Y-33049D01*
X143570Y-33430D01*
X142428Y-33810D01*
X139000D01*
X141666D02*
X144332Y-38000D01*
X146122Y-31525D02*
X146884Y-31144D01*
X148027Y-30002D01*
Y-38000D01*
X152750Y-30002D02*
X156939D01*
X154654Y-33049D01*
X155796D01*
X156558Y-33430D01*
X156939Y-33810D01*
X157320Y-34953D01*
Y-35715D01*
X156939Y-36857D01*
X156177Y-37619D01*
X155035Y-38000D01*
X153892D01*
X152750Y-37619D01*
X152369Y-37238D01*
X151988Y-36477D01*
X290998Y77000D02*
X283000D01*
X290998D02*
X283000Y71668D01*
X290998D02*
X283000D01*
X290998Y68697D02*
Y64507D01*
X287951Y66793D01*
Y65650D01*
X287570Y64888D01*
X287190Y64507D01*
X286047Y64127D01*
X285285D01*
X284143Y64507D01*
X283381Y65269D01*
X283000Y66412D01*
Y67554D01*
X283381Y68697D01*
X283762Y69078D01*
X284524Y69459D01*
X385000Y3998D02*
Y-4000D01*
Y3998D02*
X390332Y-4000D01*
Y3998D02*
Y-4000D01*
X392541Y2475D02*
X393303Y2856D01*
X394446Y3998D01*
Y-4000D01*
X431000Y2998D02*
Y-5000D01*
X435570D01*
X436827Y1094D02*
Y1475D01*
X437208Y2237D01*
X437589Y2617D01*
X438351Y2998D01*
X439874D01*
X440636Y2617D01*
X441017Y2237D01*
X441398Y1475D01*
Y713D01*
X441017Y-49D01*
X440255Y-1191D01*
X436446Y-5000D01*
X441779D01*
X281998Y31000D02*
X274000D01*
Y26430D01*
X280475Y25554D02*
X280856Y24792D01*
X281998Y23649D01*
X274000D01*
X394000Y66998D02*
Y59000D01*
Y66998D02*
X396666D01*
X397809Y66617D01*
X398570Y65856D01*
X398951Y65094D01*
X399332Y63951D01*
Y62047D01*
X398951Y60904D01*
X398570Y60143D01*
X397809Y59381D01*
X396666Y59000D01*
X394000D01*
X401122Y65475D02*
X401884Y65856D01*
X403027Y66998D01*
Y59000D01*
X466713Y-22906D02*
X466332Y-22144D01*
X465570Y-21383D01*
X464809Y-21002D01*
X463285D01*
X462523Y-21383D01*
X461762Y-22144D01*
X461381Y-22906D01*
X461000Y-24049D01*
Y-25953D01*
X461381Y-27096D01*
X461762Y-27857D01*
X462523Y-28619D01*
X463285Y-29000D01*
X464809D01*
X465570Y-28619D01*
X466332Y-27857D01*
X466713Y-27096D01*
X473912Y-23668D02*
X473531Y-24810D01*
X472769Y-25572D01*
X471626Y-25953D01*
X471245D01*
X470103Y-25572D01*
X469341Y-24810D01*
X468960Y-23668D01*
Y-23287D01*
X469341Y-22144D01*
X470103Y-21383D01*
X471245Y-21002D01*
X471626D01*
X472769Y-21383D01*
X473531Y-22144D01*
X473912Y-23668D01*
Y-25572D01*
X473531Y-27476D01*
X472769Y-28619D01*
X471626Y-29000D01*
X470865D01*
X469722Y-28619D01*
X469341Y-27857D01*
X371094Y-18713D02*
X371856Y-18332D01*
X372617Y-17570D01*
X372998Y-16809D01*
Y-15285D01*
X372617Y-14524D01*
X371856Y-13762D01*
X371094Y-13381D01*
X369951Y-13000D01*
X368047D01*
X366904Y-13381D01*
X366143Y-13762D01*
X365381Y-14524D01*
X365000Y-15285D01*
Y-16809D01*
X365381Y-17570D01*
X366143Y-18332D01*
X366904Y-18713D01*
X372998Y-22865D02*
X372617Y-21722D01*
X371856Y-21341D01*
X371094D01*
X370332Y-21722D01*
X369951Y-22484D01*
X369571Y-24007D01*
X369190Y-25150D01*
X368428Y-25912D01*
X367666Y-26292D01*
X366524D01*
X365762Y-25912D01*
X365381Y-25531D01*
X365000Y-24388D01*
Y-22865D01*
X365381Y-21722D01*
X365762Y-21341D01*
X366524Y-20960D01*
X367666D01*
X368428Y-21341D01*
X369190Y-22103D01*
X369571Y-23245D01*
X369951Y-24769D01*
X370332Y-25531D01*
X371094Y-25912D01*
X371856D01*
X372617Y-25531D01*
X372998Y-24388D01*
Y-22865D01*
X468094Y5287D02*
X468856Y5668D01*
X469617Y6430D01*
X469998Y7191D01*
Y8715D01*
X469617Y9477D01*
X468856Y10238D01*
X468094Y10619D01*
X466951Y11000D01*
X465047D01*
X463904Y10619D01*
X463143Y10238D01*
X462381Y9477D01*
X462000Y8715D01*
Y7191D01*
X462381Y6430D01*
X463143Y5668D01*
X463904Y5287D01*
X469998Y-2292D02*
X462000Y1516D01*
X469998Y3040D02*
Y-2292D01*
X170443Y-18356D02*
X170062Y-17594D01*
X169300Y-16832D01*
X168539Y-16452D01*
X167015D01*
X166254Y-16832D01*
X165492Y-17594D01*
X165111Y-18356D01*
X164730Y-19499D01*
Y-21403D01*
X165111Y-22546D01*
X165492Y-23307D01*
X166254Y-24069D01*
X167015Y-24450D01*
X168539D01*
X169300Y-24069D01*
X170062Y-23307D01*
X170443Y-22546D01*
X176499Y-16452D02*
X172690Y-21784D01*
X178403D01*
X176499Y-16452D02*
Y-24450D01*
X311713Y-62906D02*
X311332Y-62144D01*
X310570Y-61383D01*
X309809Y-61002D01*
X308285D01*
X307523Y-61383D01*
X306762Y-62144D01*
X306381Y-62906D01*
X306000Y-64049D01*
Y-65953D01*
X306381Y-67096D01*
X306762Y-67857D01*
X307523Y-68619D01*
X308285Y-69000D01*
X309809D01*
X310570Y-68619D01*
X311332Y-67857D01*
X311713Y-67096D01*
X314341Y-62906D02*
Y-62525D01*
X314722Y-61763D01*
X315103Y-61383D01*
X315865Y-61002D01*
X317388D01*
X318150Y-61383D01*
X318531Y-61763D01*
X318911Y-62525D01*
Y-63287D01*
X318531Y-64049D01*
X317769Y-65191D01*
X313960Y-69000D01*
X319292D01*
X321844Y-61002D02*
X326034D01*
X323749Y-64049D01*
X324891D01*
X325653Y-64429D01*
X326034Y-64810D01*
X326415Y-65953D01*
Y-66715D01*
X326034Y-67857D01*
X325272Y-68619D01*
X324129Y-69000D01*
X322987D01*
X321844Y-68619D01*
X321463Y-68238D01*
X321082Y-67477D01*
X260713Y-45906D02*
X260332Y-45144D01*
X259570Y-44383D01*
X258809Y-44002D01*
X257285D01*
X256523Y-44383D01*
X255762Y-45144D01*
X255381Y-45906D01*
X255000Y-47049D01*
Y-48953D01*
X255381Y-50096D01*
X255762Y-50857D01*
X256523Y-51619D01*
X257285Y-52000D01*
X258809D01*
X259570Y-51619D01*
X260332Y-50857D01*
X260713Y-50096D01*
X263341Y-45906D02*
Y-45525D01*
X263722Y-44763D01*
X264103Y-44383D01*
X264865Y-44002D01*
X266388D01*
X267150Y-44383D01*
X267531Y-44763D01*
X267911Y-45525D01*
Y-46287D01*
X267531Y-47049D01*
X266769Y-48191D01*
X262960Y-52000D01*
X268292D01*
X270082Y-45525D02*
X270844Y-45144D01*
X271987Y-44002D01*
Y-52000D01*
X441713Y-37906D02*
X441332Y-37144D01*
X440570Y-36383D01*
X439809Y-36002D01*
X438285D01*
X437523Y-36383D01*
X436762Y-37144D01*
X436381Y-37906D01*
X436000Y-39049D01*
Y-40953D01*
X436381Y-42096D01*
X436762Y-42857D01*
X437523Y-43619D01*
X438285Y-44000D01*
X439809D01*
X440570Y-43619D01*
X441332Y-42857D01*
X441713Y-42096D01*
X444341Y-37906D02*
Y-37525D01*
X444722Y-36763D01*
X445103Y-36383D01*
X445865Y-36002D01*
X447388D01*
X448150Y-36383D01*
X448531Y-36763D01*
X448912Y-37525D01*
Y-38287D01*
X448531Y-39049D01*
X447769Y-40191D01*
X443960Y-44000D01*
X449292D01*
X453368Y-36002D02*
X452225Y-36383D01*
X451463Y-37525D01*
X451082Y-39430D01*
Y-40572D01*
X451463Y-42477D01*
X452225Y-43619D01*
X453368Y-44000D01*
X454129D01*
X455272Y-43619D01*
X456034Y-42477D01*
X456415Y-40572D01*
Y-39430D01*
X456034Y-37525D01*
X455272Y-36383D01*
X454129Y-36002D01*
X453368D01*
X311713Y-73906D02*
X311332Y-73144D01*
X310570Y-72383D01*
X309809Y-72002D01*
X308285D01*
X307523Y-72383D01*
X306762Y-73144D01*
X306381Y-73906D01*
X306000Y-75049D01*
Y-76953D01*
X306381Y-78096D01*
X306762Y-78857D01*
X307523Y-79619D01*
X308285Y-80000D01*
X309809D01*
X310570Y-79619D01*
X311332Y-78857D01*
X311713Y-78096D01*
X313960Y-73525D02*
X314722Y-73144D01*
X315865Y-72002D01*
Y-80000D01*
X324777Y-74668D02*
X324396Y-75810D01*
X323634Y-76572D01*
X322492Y-76953D01*
X322111D01*
X320968Y-76572D01*
X320206Y-75810D01*
X319826Y-74668D01*
Y-74287D01*
X320206Y-73144D01*
X320968Y-72383D01*
X322111Y-72002D01*
X322492D01*
X323634Y-72383D01*
X324396Y-73144D01*
X324777Y-74668D01*
Y-76572D01*
X324396Y-78477D01*
X323634Y-79619D01*
X322492Y-80000D01*
X321730D01*
X320587Y-79619D01*
X320206Y-78857D01*
X311713Y-51906D02*
X311332Y-51144D01*
X310570Y-50383D01*
X309809Y-50002D01*
X308285D01*
X307523Y-50383D01*
X306762Y-51144D01*
X306381Y-51906D01*
X306000Y-53049D01*
Y-54953D01*
X306381Y-56096D01*
X306762Y-56857D01*
X307523Y-57619D01*
X308285Y-58000D01*
X309809D01*
X310570Y-57619D01*
X311332Y-56857D01*
X311713Y-56096D01*
X313960Y-51525D02*
X314722Y-51144D01*
X315865Y-50002D01*
Y-58000D01*
X321730Y-50002D02*
X320587Y-50383D01*
X320206Y-51144D01*
Y-51906D01*
X320587Y-52668D01*
X321349Y-53049D01*
X322873Y-53430D01*
X324015Y-53810D01*
X324777Y-54572D01*
X325158Y-55334D01*
Y-56476D01*
X324777Y-57238D01*
X324396Y-57619D01*
X323254Y-58000D01*
X321730D01*
X320587Y-57619D01*
X320206Y-57238D01*
X319826Y-56476D01*
Y-55334D01*
X320206Y-54572D01*
X320968Y-53810D01*
X322111Y-53430D01*
X323634Y-53049D01*
X324396Y-52668D01*
X324777Y-51906D01*
Y-51144D01*
X324396Y-50383D01*
X323254Y-50002D01*
X321730D01*
X246094Y75287D02*
X246856Y75668D01*
X247617Y76430D01*
X247998Y77191D01*
Y78715D01*
X247617Y79476D01*
X246856Y80238D01*
X246094Y80619D01*
X244951Y81000D01*
X243047D01*
X241904Y80619D01*
X241143Y80238D01*
X240381Y79476D01*
X240000Y78715D01*
Y77191D01*
X240381Y76430D01*
X241143Y75668D01*
X241904Y75287D01*
X246475Y73040D02*
X246856Y72278D01*
X247998Y71135D01*
X240000D01*
X247998Y61842D02*
X240000Y65651D01*
X247998Y67174D02*
Y61842D01*
X366094Y73287D02*
X366856Y73668D01*
X367617Y74429D01*
X367998Y75191D01*
Y76715D01*
X367617Y77477D01*
X366856Y78238D01*
X366094Y78619D01*
X364951Y79000D01*
X363047D01*
X361904Y78619D01*
X361143Y78238D01*
X360381Y77477D01*
X360000Y76715D01*
Y75191D01*
X360381Y74429D01*
X361143Y73668D01*
X361904Y73287D01*
X366475Y71040D02*
X366856Y70278D01*
X367998Y69135D01*
X360000D01*
X366856Y60604D02*
X367617Y60985D01*
X367998Y62127D01*
Y62889D01*
X367617Y64032D01*
X366475Y64794D01*
X364570Y65174D01*
X362666D01*
X361143Y64794D01*
X360381Y64032D01*
X360000Y62889D01*
Y62508D01*
X360381Y61366D01*
X361143Y60604D01*
X362285Y60223D01*
X362666D01*
X363809Y60604D01*
X364570Y61366D01*
X364951Y62508D01*
Y62889D01*
X364570Y64032D01*
X363809Y64794D01*
X362666Y65174D01*
X363015Y44046D02*
X362634Y44808D01*
X361872Y45569D01*
X361110Y45950D01*
X359587D01*
X358825Y45569D01*
X358063Y44808D01*
X357682Y44046D01*
X357302Y42903D01*
Y40999D01*
X357682Y39856D01*
X358063Y39095D01*
X358825Y38333D01*
X359587Y37952D01*
X361110D01*
X361872Y38333D01*
X362634Y39095D01*
X363015Y39856D01*
X365262Y44427D02*
X366024Y44808D01*
X367166Y45950D01*
Y37952D01*
X375698Y45950D02*
X371889D01*
X371508Y42522D01*
X371889Y42903D01*
X373032Y43284D01*
X374174D01*
X375317Y42903D01*
X376079Y42141D01*
X376460Y40999D01*
Y40237D01*
X376079Y39095D01*
X375317Y38333D01*
X374174Y37952D01*
X373032D01*
X371889Y38333D01*
X371508Y38714D01*
X371127Y39476D01*
X311713Y-40906D02*
X311332Y-40144D01*
X310570Y-39383D01*
X309809Y-39002D01*
X308285D01*
X307523Y-39383D01*
X306762Y-40144D01*
X306381Y-40906D01*
X306000Y-42049D01*
Y-43953D01*
X306381Y-45096D01*
X306762Y-45857D01*
X307523Y-46619D01*
X308285Y-47000D01*
X309809D01*
X310570Y-46619D01*
X311332Y-45857D01*
X311713Y-45096D01*
X313960Y-40525D02*
X314722Y-40144D01*
X315865Y-39002D01*
Y-47000D01*
X323634Y-39002D02*
X319826Y-44334D01*
X325539D01*
X323634Y-39002D02*
Y-47000D01*
X390713Y22094D02*
X390332Y22856D01*
X389570Y23617D01*
X388809Y23998D01*
X387285D01*
X386524Y23617D01*
X385762Y22856D01*
X385381Y22094D01*
X385000Y20951D01*
Y19047D01*
X385381Y17904D01*
X385762Y17143D01*
X386524Y16381D01*
X387285Y16000D01*
X388809D01*
X389570Y16381D01*
X390332Y17143D01*
X390713Y17904D01*
X392960Y22475D02*
X393722Y22856D01*
X394865Y23998D01*
Y16000D01*
X399587Y23998D02*
X403777D01*
X401492Y20951D01*
X402634D01*
X403396Y20570D01*
X403777Y20190D01*
X404158Y19047D01*
Y18285D01*
X403777Y17143D01*
X403015Y16381D01*
X401873Y16000D01*
X400730D01*
X399587Y16381D01*
X399207Y16762D01*
X398826Y17523D01*
X383713Y-22906D02*
X383332Y-22144D01*
X382570Y-21383D01*
X381809Y-21002D01*
X380285D01*
X379524Y-21383D01*
X378762Y-22144D01*
X378381Y-22906D01*
X378000Y-24049D01*
Y-25953D01*
X378381Y-27096D01*
X378762Y-27857D01*
X379524Y-28619D01*
X380285Y-29000D01*
X381809D01*
X382570Y-28619D01*
X383332Y-27857D01*
X383713Y-27096D01*
X385960Y-22525D02*
X386722Y-22144D01*
X387865Y-21002D01*
Y-29000D01*
X392206Y-22906D02*
Y-22525D01*
X392587Y-21763D01*
X392968Y-21383D01*
X393730Y-21002D01*
X395253D01*
X396015Y-21383D01*
X396396Y-21763D01*
X396777Y-22525D01*
Y-23287D01*
X396396Y-24049D01*
X395634Y-25191D01*
X391826Y-29000D01*
X397158D01*
X234713Y57094D02*
X234332Y57856D01*
X233570Y58617D01*
X232809Y58998D01*
X231285D01*
X230523Y58617D01*
X229762Y57856D01*
X229381Y57094D01*
X229000Y55951D01*
Y54047D01*
X229381Y52904D01*
X229762Y52143D01*
X230523Y51381D01*
X231285Y51000D01*
X232809D01*
X233570Y51381D01*
X234332Y52143D01*
X234713Y52904D01*
X236960Y57475D02*
X237722Y57856D01*
X238865Y58998D01*
Y51000D01*
X245111Y58998D02*
X243968Y58617D01*
X243207Y57475D01*
X242826Y55570D01*
Y54428D01*
X243207Y52523D01*
X243968Y51381D01*
X245111Y51000D01*
X245873D01*
X247015Y51381D01*
X247777Y52523D01*
X248158Y54428D01*
Y55570D01*
X247777Y57475D01*
X247015Y58617D01*
X245873Y58998D01*
X245111D01*
M02*
