G04*
G04 #@! TF.GenerationSoftware,Altium Limited,Altium Designer,24.10.1 (45)*
G04*
G04 Layer_Color=16711935*
%FSLAX44Y44*%
%MOMM*%
G71*
G04*
G04 #@! TF.SameCoordinates,0F3F22FE-DA61-4AAF-8E1A-7C7289578FEE*
G04*
G04*
G04 #@! TF.FilePolarity,Negative*
G04*
G01*
G75*
%ADD23C,0.0100*%
%ADD24R,0.8500X1.1000*%
%ADD26R,1.1000X0.8500*%
%ADD27R,1.7032X1.7032*%
%ADD34C,1.6000*%
%ADD35C,3.4032*%
%ADD36R,2.4032X2.4032*%
%ADD37R,1.5032X1.5032*%
%ADD38C,2.3000*%
%ADD57C,0.0050*%
%ADD58R,1.6000X0.5000*%
D23*
X127660Y-41450D02*
G03*
X127660Y-41450I-4000J0D01*
G01*
X127730Y11550D02*
G03*
X127730Y11550I-4000J0D01*
G01*
X127730Y-11450D02*
G03*
X127730Y-11450I-4000J0D01*
G01*
X127660Y-64450D02*
G03*
X127660Y-64450I-4000J0D01*
G01*
X214000Y-42000D02*
G03*
X214000Y-42000I-2000J0D01*
G01*
X190000Y35000D02*
G03*
X190000Y35000I-2000J0D01*
G01*
X82000Y55000D02*
G03*
X82000Y55000I-6000J0D01*
G01*
X128000Y41000D02*
G03*
X128000Y41000I-4000J0D01*
G01*
Y64000D02*
G03*
X128000Y64000I-4000J0D01*
G01*
X137300Y44350D02*
X162700D01*
X137300Y31650D02*
Y44350D01*
Y31650D02*
X162700D01*
Y44350D01*
X137300Y68650D02*
X162700D01*
Y81350D01*
X137300D02*
X162700D01*
X137300Y68650D02*
Y81350D01*
X176000Y62000D02*
Y77350D01*
X166000D02*
X176000D01*
X166000Y62000D02*
Y77350D01*
Y62000D02*
X176000D01*
X166000Y77350D02*
Y80000D01*
X176000D01*
Y77350D02*
Y80000D01*
X137300Y60350D02*
X162700D01*
X137300Y47650D02*
Y60350D01*
Y47650D02*
X162700D01*
Y60350D01*
X177650Y-60300D02*
X190350Y-60300D01*
Y-85700D02*
Y-60300D01*
X177650Y-85700D02*
X190350Y-85700D01*
X177650Y-85700D02*
Y-60300D01*
X175660Y-43100D02*
X175660Y-40450D01*
X165660D02*
X175660D01*
X165660Y-43100D02*
X165660Y-40450D01*
X165660Y-58450D02*
X175660D01*
X165660D02*
Y-43100D01*
X175660D01*
Y-58450D02*
Y-43100D01*
X211170Y-23495D02*
X284830D01*
Y23495D01*
X211170D02*
X284830D01*
X211170Y-23495D02*
Y23495D01*
X226300Y35650D02*
X251700D01*
Y48350D01*
X226300D02*
X251700D01*
X226300Y35650D02*
Y48350D01*
X232650Y-31700D02*
Y-6300D01*
Y-31700D02*
X245350D01*
Y-6300D01*
X232650D02*
X245350D01*
X266015Y26665D02*
Y53335D01*
Y26665D02*
X279985D01*
Y53335D01*
X266015D02*
X279985D01*
X289665Y25985D02*
X316335D01*
X289665Y12015D02*
Y25985D01*
Y12015D02*
X316335D01*
Y25985D01*
X299015Y-55335D02*
Y-28665D01*
Y-55335D02*
X312985D01*
Y-28665D01*
X299015D02*
X312985D01*
X314015Y-55335D02*
Y-28665D01*
Y-55335D02*
X327985D01*
Y-28665D01*
X314015D02*
X327985D01*
X268665Y-42015D02*
X295335D01*
X268665Y-55985D02*
Y-42015D01*
Y-55985D02*
X295335D01*
Y-42015D01*
X268665Y-26015D02*
X295335D01*
X268665Y-39985D02*
Y-26015D01*
Y-39985D02*
X295335D01*
Y-26015D01*
X184015Y-53335D02*
Y-26665D01*
Y-53335D02*
X197985D01*
Y-26665D01*
X184015D02*
X197985D01*
X212665Y-54985D02*
X239335D01*
Y-41015D01*
X212665D02*
X239335D01*
X212665Y-54985D02*
Y-41015D01*
X211985Y-53335D02*
Y-26665D01*
X198015D02*
X211985D01*
X198015Y-53335D02*
Y-26665D01*
Y-53335D02*
X211985D01*
X212665Y-38985D02*
X239335D01*
Y-25015D01*
X212665D02*
X239335D01*
X212665Y-38985D02*
Y-25015D01*
X219650Y-31700D02*
Y-6300D01*
Y-31700D02*
X232350D01*
Y-6300D01*
X219650D02*
X232350D01*
X197015Y54335D02*
X210985D01*
Y27665D02*
Y54335D01*
X197015Y27665D02*
X210985D01*
X197015D02*
Y54335D01*
X212665Y26015D02*
X239335D01*
Y39985D01*
X212665D02*
X239335D01*
X212665Y26015D02*
Y39985D01*
Y42015D02*
X239335D01*
Y55985D01*
X212665D02*
X239335D01*
X212665Y42015D02*
Y55985D01*
X197985Y27665D02*
Y54335D01*
X184015D02*
X197985D01*
X184015Y27665D02*
Y54335D01*
Y27665D02*
X197985D01*
X431300Y-65650D02*
X456700D01*
X431300Y-78350D02*
Y-65650D01*
Y-78350D02*
X456700D01*
Y-65650D01*
X431300Y-45650D02*
X456700D01*
X431300Y-58350D02*
Y-45650D01*
Y-58350D02*
X456700D01*
Y-45650D01*
X137030Y11200D02*
X162430D01*
Y23900D01*
X137030D02*
X162430D01*
X137030Y11200D02*
Y23900D01*
Y-13100D02*
X162430D01*
X137030Y-25800D02*
Y-13100D01*
Y-25800D02*
X162430D01*
Y-13100D01*
X137030Y2900D02*
X162430D01*
X137030D02*
X137030Y-9800D01*
X162430D01*
Y2900D01*
X175730Y4550D02*
Y19900D01*
X165730D02*
X175730D01*
X165730Y4550D02*
Y19900D01*
Y4550D02*
X175730D01*
X165730Y19900D02*
X165730Y22550D01*
X175730D01*
X175730Y19900D02*
X175730Y22550D01*
X136960Y-51800D02*
X162360D01*
X162360Y-39100D01*
X136960D02*
X162360D01*
X136960D02*
X136960Y-51800D01*
X136960Y-60100D02*
X162360D01*
X136960D02*
X136960Y-72800D01*
X162360D01*
X162360Y-60100D01*
X448150Y42300D02*
Y67700D01*
Y42300D02*
X460850D01*
Y67700D01*
X448150D02*
X460850D01*
X274300Y-42650D02*
X299700D01*
X274300Y-55350D02*
Y-42650D01*
Y-55350D02*
X299700D01*
Y-42650D01*
X316300Y2140D02*
X341700Y2140D01*
X341700Y14840D01*
X316300Y14840D02*
X341700Y14840D01*
X316300Y2140D02*
X316300Y14840D01*
X196650Y-24205D02*
X209350D01*
X196650Y-45795D02*
Y-24205D01*
Y-45795D02*
X209350D01*
Y-24205D01*
X205795Y37650D02*
Y50350D01*
X184205D02*
X205795D01*
X184205Y37650D02*
Y50350D01*
Y37650D02*
X205795D01*
X443620Y-18145D02*
Y16145D01*
X428380D02*
X443620D01*
X428380Y-18145D02*
Y16145D01*
Y-18145D02*
X443620D01*
X285000Y-16500D02*
X288000D01*
X285000Y-21500D02*
Y-16500D01*
Y-21500D02*
X288000D01*
X302000Y-7000D02*
X305000D01*
Y-12000D02*
Y-7000D01*
X302000Y-12000D02*
X305000D01*
X302000Y-26000D02*
X305000D01*
Y-31000D02*
Y-26000D01*
X302000Y-31000D02*
X305000D01*
X302000Y-34240D02*
Y-3760D01*
X288000Y-34240D02*
X302000Y-34240D01*
X288000Y-34240D02*
Y-3760D01*
X302000Y-3760D01*
X457950Y21650D02*
Y34350D01*
X432550Y21650D02*
X457950D01*
X432550D02*
Y34350D01*
X457950D01*
X430150Y42300D02*
X442850D01*
X430150D02*
Y67700D01*
X442850D01*
Y42300D02*
Y67700D01*
X391300Y-78350D02*
Y-65650D01*
X416700D01*
Y-78350D02*
Y-65650D01*
X391300Y-78350D02*
X416700D01*
X274300Y-68350D02*
Y-55650D01*
X299700D01*
Y-68350D02*
Y-55650D01*
X274300Y-68350D02*
X299700D01*
X391300Y-58350D02*
Y-45650D01*
X416700D01*
Y-58350D02*
Y-45650D01*
X391300Y-58350D02*
X416700D01*
X341700Y-19650D02*
X341700Y-32350D01*
X316300D02*
X341700D01*
X316300D02*
X316300Y-19650D01*
X341700D01*
X324300Y81350D02*
X324300Y68650D01*
X324300Y81350D02*
X349700D01*
X349700Y68650D02*
X349700Y81350D01*
X324300Y68650D02*
X349700D01*
X350700Y53650D02*
Y66350D01*
X325300Y53650D02*
X350700Y53650D01*
X325300Y53650D02*
X325300Y66350D01*
X350700D01*
X414650Y51700D02*
X427350D01*
Y26300D02*
Y51700D01*
X414650Y26300D02*
X427350D01*
X414650D02*
Y51700D01*
X411650Y-12700D02*
X424350D01*
X411650Y12700D02*
X411650Y-12700D01*
X411650Y12700D02*
X424350Y12700D01*
Y-12700D02*
Y12700D01*
X248284Y-86396D02*
Y-73696D01*
X273684D01*
Y-86396D02*
Y-73696D01*
X248284Y-86396D02*
X273684D01*
X295490Y85605D02*
X295490Y56395D01*
X279490D02*
X295490D01*
X279490Y85605D02*
X279490Y56395D01*
X279490Y85605D02*
X295490D01*
X291490Y56500D02*
X295490Y60500D01*
X398000Y-14605D02*
Y14605D01*
X382000Y-14605D02*
X398000Y-14605D01*
X382000Y-14605D02*
Y14605D01*
X398000D01*
X283760Y54035D02*
X314240D01*
Y1965D02*
Y54035D01*
X283760Y1965D02*
X314240D01*
X283760D02*
Y54035D01*
X385000Y41500D02*
X388000D01*
X385000Y36500D02*
Y41500D01*
Y36500D02*
X388000D01*
X402000Y51000D02*
X405000D01*
Y46000D02*
Y51000D01*
X402000Y46000D02*
X405000D01*
X402000Y32000D02*
X405000D01*
Y27000D02*
Y32000D01*
X402000Y27000D02*
X405000D01*
X402000Y24395D02*
Y53605D01*
X388000Y24395D02*
X402000D01*
X388000D02*
Y53605D01*
X402000D01*
X433300Y-31350D02*
Y-18650D01*
X458700D01*
Y-31350D02*
Y-18650D01*
X433300Y-31350D02*
X458700D01*
X351650Y-4300D02*
X364350D01*
Y-29700D02*
Y-4300D01*
X351650Y-29700D02*
X364350D01*
X351650D02*
Y-4300D01*
X447650Y17200D02*
X460350D01*
Y-8200D02*
Y17200D01*
X447650Y-8200D02*
X460350D01*
X447650D02*
Y17200D01*
X341700Y-1160D02*
X341700Y-13860D01*
X316300Y-13860D02*
X341700Y-13860D01*
X316300Y-1160D02*
X316300Y-13860D01*
X316300Y-1160D02*
X341700Y-1160D01*
X341700Y29350D02*
X341700Y16650D01*
X316300D02*
X341700D01*
X316300D02*
Y29350D01*
X341700D01*
X250140Y58300D02*
X262840Y58300D01*
X250140Y58300D02*
Y83700D01*
X262840Y83700D01*
Y58300D02*
Y83700D01*
X309650Y60300D02*
X322350Y60300D01*
X309650Y60300D02*
Y85700D01*
X322350Y85700D01*
Y60300D02*
Y85700D01*
X359602Y46602D02*
Y59302D01*
X385002D01*
Y46602D02*
Y59302D01*
X359602Y46602D02*
X385002D01*
X316300Y37650D02*
Y50350D01*
X341700D01*
Y37650D02*
Y50350D01*
X316300Y37650D02*
X341700D01*
X358300Y31350D02*
X358300Y18650D01*
X358300Y31350D02*
X383700D01*
X383700Y18650D02*
X383700Y31350D01*
X358300Y18650D02*
X383700D01*
X397300Y-31350D02*
Y-18650D01*
X422700D01*
Y-31350D02*
Y-18650D01*
X397300Y-31350D02*
X422700D01*
X289665Y-2985D02*
Y10985D01*
X316335D01*
Y-2985D02*
Y10985D01*
X289665Y-2985D02*
X316335D01*
D24*
X310620Y19000D02*
D03*
X295380D02*
D03*
X289620Y-49000D02*
D03*
X274380D02*
D03*
X289620Y-33000D02*
D03*
X274380D02*
D03*
X218380Y-48000D02*
D03*
X233620D02*
D03*
X218380Y-32000D02*
D03*
X233620D02*
D03*
X218380Y33000D02*
D03*
X233620D02*
D03*
X218380Y49000D02*
D03*
X233620D02*
D03*
X310620Y4000D02*
D03*
X295380D02*
D03*
D26*
X273000Y47620D02*
D03*
Y32380D02*
D03*
X306000Y-34380D02*
D03*
Y-49620D02*
D03*
X321000Y-34380D02*
D03*
Y-49620D02*
D03*
X191000Y-32380D02*
D03*
Y-47620D02*
D03*
X205000D02*
D03*
Y-32380D02*
D03*
X204000Y33380D02*
D03*
Y48620D02*
D03*
X191000Y33380D02*
D03*
Y48620D02*
D03*
D27*
X10000Y-60000D02*
D03*
X630000Y60000D02*
D03*
D34*
X123660Y-41450D02*
D03*
X123730Y11550D02*
D03*
X123730Y-11450D02*
D03*
X123660Y-64450D02*
D03*
X124000Y41000D02*
D03*
Y64000D02*
D03*
D35*
X572750Y-57150D02*
D03*
Y57150D02*
D03*
D36*
X603250Y77500D02*
D03*
Y-77500D02*
D03*
D37*
X509250Y-44450D02*
D03*
X483850Y-31750D02*
D03*
X509250Y-19050D02*
D03*
X483850Y-6350D02*
D03*
X509250Y6350D02*
D03*
X483850Y19050D02*
D03*
X509250Y31750D02*
D03*
X483850Y44450D02*
D03*
D38*
X76000Y55000D02*
D03*
D57*
X110243Y-38365D02*
X113576Y-43365D01*
Y-38365D02*
X110243Y-43365D01*
X117551Y-38365D02*
X115171D01*
X114932Y-40508D01*
X115171Y-40270D01*
X115885Y-40032D01*
X116599D01*
X117313Y-40270D01*
X117789Y-40746D01*
X118027Y-41460D01*
Y-41936D01*
X117789Y-42650D01*
X117313Y-43126D01*
X116599Y-43365D01*
X115885D01*
X115171Y-43126D01*
X114932Y-42888D01*
X114694Y-42412D01*
X168051Y67565D02*
X174049Y69850D01*
X168051Y72136D02*
X174049Y69850D01*
X169193Y72907D02*
X168908Y73478D01*
X168051Y74335D01*
X174049D01*
X173609Y-44730D02*
X167611Y-47015D01*
X173609Y-49300D02*
X167611Y-47015D01*
X173609Y-50643D02*
Y-53785D01*
X171324Y-52071D01*
Y-52928D01*
X171039Y-53499D01*
X170753Y-53785D01*
X169896Y-54070D01*
X169325D01*
X168468Y-53785D01*
X167896Y-53214D01*
X167611Y-52357D01*
Y-51500D01*
X167896Y-50643D01*
X168182Y-50357D01*
X168753Y-50071D01*
X109043Y14634D02*
X112376Y9636D01*
Y14634D02*
X109043Y9636D01*
X113971Y14634D02*
X116589D01*
X115161Y12730D01*
X115875D01*
X116351Y12492D01*
X116589Y12254D01*
X116827Y11540D01*
Y11064D01*
X116589Y10350D01*
X116113Y9874D01*
X115399Y9636D01*
X114685D01*
X113971Y9874D01*
X113733Y10112D01*
X113495Y10588D01*
X167781Y8830D02*
X173779Y11115D01*
X167781Y13400D02*
X173779Y11115D01*
X169209Y14457D02*
X168923D01*
X168352Y14743D01*
X168066Y15028D01*
X167781Y15600D01*
Y16742D01*
X168066Y17313D01*
X168352Y17599D01*
X168923Y17885D01*
X169495D01*
X170066Y17599D01*
X170923Y17028D01*
X173779Y14171D01*
Y18170D01*
X109559Y-8365D02*
X112892Y-13364D01*
Y-8365D02*
X109559Y-13364D01*
X116391Y-8365D02*
X114010Y-11698D01*
X117581D01*
X116391Y-8365D02*
Y-13364D01*
X109727Y-61365D02*
X113060Y-66364D01*
Y-61365D02*
X109727Y-66364D01*
X117035Y-62080D02*
X116797Y-61604D01*
X116083Y-61365D01*
X115607D01*
X114893Y-61604D01*
X114417Y-62318D01*
X114178Y-63508D01*
Y-64698D01*
X114417Y-65650D01*
X114893Y-66126D01*
X115607Y-66364D01*
X115845D01*
X116559Y-66126D01*
X117035Y-65650D01*
X117273Y-64936D01*
Y-64698D01*
X117035Y-63984D01*
X116559Y-63508D01*
X115845Y-63270D01*
X115607D01*
X114893Y-63508D01*
X114417Y-63984D01*
X114178Y-64698D01*
X109948Y44085D02*
X113281Y39086D01*
Y44085D02*
X109948Y39086D01*
X114637Y42894D02*
Y43132D01*
X114875Y43608D01*
X115114Y43846D01*
X115590Y44085D01*
X116542D01*
X117018Y43846D01*
X117256Y43608D01*
X117494Y43132D01*
Y42656D01*
X117256Y42180D01*
X116780Y41466D01*
X114399Y39086D01*
X117732D01*
X110384Y67084D02*
X113717Y62086D01*
Y67084D02*
X110384Y62086D01*
X114836Y66132D02*
X115312Y66370D01*
X116026Y67084D01*
Y62086D01*
X295301Y24504D02*
X302799D01*
Y28789D01*
X296729Y29610D02*
X296372Y30324D01*
X295301Y31396D01*
X302799D01*
X397449Y41871D02*
X392450D01*
X397449D02*
Y40205D01*
X397211Y39490D01*
X396735Y39014D01*
X396259Y38776D01*
X395545Y38538D01*
X394355D01*
X393641Y38776D01*
X393165Y39014D01*
X392689Y39490D01*
X392450Y40205D01*
Y41871D01*
X396497Y37419D02*
X396735Y36943D01*
X397449Y36229D01*
X392450D01*
D58*
X218790Y-19500D02*
D03*
Y-13000D02*
D03*
Y-6500D02*
D03*
Y0D02*
D03*
Y6500D02*
D03*
Y13000D02*
D03*
Y19500D02*
D03*
X277210D02*
D03*
Y13000D02*
D03*
Y6500D02*
D03*
Y0D02*
D03*
Y-6500D02*
D03*
Y-13000D02*
D03*
Y-19500D02*
D03*
M02*
