G04*
G04 #@! TF.GenerationSoftware,Altium Limited,Altium Designer,24.10.1 (45)*
G04*
G04 Layer_Color=255*
%FSLAX44Y44*%
%MOMM*%
G71*
G04*
G04 #@! TF.SameCoordinates,0F3F22FE-DA61-4AAF-8E1A-7C7289578FEE*
G04*
G04*
G04 #@! TF.FilePolarity,Positive*
G04*
G01*
G75*
%ADD12R,0.7500X1.0000*%
%ADD14R,1.0000X0.7500*%
%ADD15R,1.5000X1.5000*%
%ADD50C,1.5000*%
%ADD51C,3.2000*%
%ADD52R,2.2000X2.2000*%
%ADD53R,1.3000X1.3000*%
%ADD54C,2.2000*%
%ADD56R,1.5000X0.4000*%
D12*
X310620Y19000D02*
D03*
X295380D02*
D03*
X289620Y-49000D02*
D03*
X274380D02*
D03*
X289620Y-33000D02*
D03*
X274380D02*
D03*
X218380Y-48000D02*
D03*
X233620D02*
D03*
X218380Y-32000D02*
D03*
X233620D02*
D03*
X218380Y33000D02*
D03*
X233620D02*
D03*
X218380Y49000D02*
D03*
X233620D02*
D03*
X310620Y4000D02*
D03*
X295380D02*
D03*
D14*
X273000Y47620D02*
D03*
Y32380D02*
D03*
X306000Y-34380D02*
D03*
Y-49620D02*
D03*
X321000Y-34380D02*
D03*
Y-49620D02*
D03*
X191000Y-32380D02*
D03*
Y-47620D02*
D03*
X205000D02*
D03*
Y-32380D02*
D03*
X204000Y33380D02*
D03*
Y48620D02*
D03*
X191000Y33380D02*
D03*
Y48620D02*
D03*
D15*
X10000Y-60000D02*
D03*
X630000Y60000D02*
D03*
D50*
X123660Y-41450D02*
D03*
X123730Y11550D02*
D03*
X123730Y-11450D02*
D03*
X123660Y-64450D02*
D03*
X124000Y41000D02*
D03*
Y64000D02*
D03*
D51*
X572750Y-57150D02*
D03*
Y57150D02*
D03*
D52*
X603250Y77500D02*
D03*
Y-77500D02*
D03*
D53*
X509250Y-44450D02*
D03*
X483850Y-31750D02*
D03*
X509250Y-19050D02*
D03*
X483850Y-6350D02*
D03*
X509250Y6350D02*
D03*
X483850Y19050D02*
D03*
X509250Y31750D02*
D03*
X483850Y44450D02*
D03*
D54*
X76000Y55000D02*
D03*
D56*
X218790Y-19500D02*
D03*
Y-13000D02*
D03*
Y-6500D02*
D03*
Y0D02*
D03*
Y6500D02*
D03*
Y13000D02*
D03*
Y19500D02*
D03*
X277210D02*
D03*
Y13000D02*
D03*
Y6500D02*
D03*
Y0D02*
D03*
Y-6500D02*
D03*
Y-13000D02*
D03*
Y-19500D02*
D03*
M02*
