M48
;Layer_Color=9474304
;FILE_FORMAT=4:4
METRIC,LZ
;TYPE=PLATED
T1F00S00C0.3000
T2F00S00C0.8000
T3F00S00C0.9500
T4F00S00C1.2000
T5F00S00C1.6000
;TYPE=NON_PLATED
T6F00S00C3.2000
%
T01
X00114Y-00104
X00162
X00171Y-00076
X00187Y-00021
X0018Y00051
X00169
X00186Y0009
X00114
Y00032
Y-00031
X00196Y-00013
Y00002
X00234039Y0000715
X00245952Y-00002461
X00261Y00001
X00296Y-00005
X00311Y00028
X00348Y00059
X00357Y00063
X00389Y00052
Y00025
Y0
X00357
X00345Y-00032
X00333Y-00037
X00312Y-00061
X00272Y-0006
X0027962Y-00086849
X00299Y-00104
X00343Y-00102
X00347Y-00084
X00384Y-0005
X00426Y-00052
Y-00072
X00427Y-00025
X00464
Y-00004
X00467Y-00045
Y-00064
X00524Y-00073
X00528Y-00023
Y00016
X00466Y00059
X00436Y00073
X00244Y00071
X00235Y00077
X00222Y0009
X00209Y00062
X00253Y00054
X00242Y00024
X00246121Y-00039207
X00234Y-00059
X00233Y-00069
X00240975Y-00089
X00251Y-00104
X00207
X002Y-00059
X00603Y00006
T02
X0012366Y-0007445
Y-0005145
X0012373Y-0001145
X0012373Y0001155
X00124Y00051
Y00074
T03
X0048385Y-0003175
Y-0000635
Y0001905
Y0004445
X0050925Y0003175
X0050925Y0000635
Y-0001905
Y-0004445
T04
X00096Y00096
T05
X0060325Y-000775
Y000775
T06
X0057275Y-0005715
Y0005715
M30
