G04*
G04 #@! TF.GenerationSoftware,Altium Limited,Altium Designer,24.10.1 (45)*
G04*
G04 Layer_Color=65280*
%FSLAX44Y44*%
%MOMM*%
G71*
G04*
G04 #@! TF.SameCoordinates,0B8B6D01-8723-4DA0-AD69-83BFE1F98CA5*
G04*
G04*
G04 #@! TF.FilePolarity,Positive*
G04*
G01*
G75*
%ADD10C,0.1500*%
%ADD23C,0.1000*%
%ADD61C,0.2000*%
%ADD62C,0.1524*%
%ADD63C,0.0500*%
D10*
X112164Y239831D02*
X110498Y241497D01*
X107166D01*
X105500Y239831D01*
Y233166D01*
X107166Y231500D01*
X110498D01*
X112164Y233166D01*
X117163Y238165D02*
X120495D01*
X122161Y236498D01*
Y231500D01*
X117163D01*
X115497Y233166D01*
X117163Y234832D01*
X122161D01*
X125493Y241497D02*
Y231500D01*
X130492D01*
X132158Y233166D01*
Y234832D01*
Y236498D01*
X130492Y238165D01*
X125493D01*
X135490Y231500D02*
X138823D01*
X137156D01*
Y241497D01*
X135490D01*
X148819Y231500D02*
X145487D01*
X143821Y233166D01*
Y236498D01*
X145487Y238165D01*
X148819D01*
X150485Y236498D01*
Y234832D01*
X143821D01*
X165481Y239831D02*
Y238165D01*
X163815D01*
X167147D01*
X165481D01*
Y233166D01*
X167147Y231500D01*
X172145D02*
X175477D01*
X173811D01*
Y238165D01*
X172145D01*
X185474Y231500D02*
X182142D01*
X180476Y233166D01*
Y236498D01*
X182142Y238165D01*
X185474D01*
X187140Y236498D01*
Y234832D01*
X180476D01*
X200469Y239831D02*
X202136Y241497D01*
X205468D01*
X207134Y239831D01*
Y238165D01*
X205468Y236498D01*
X203802D01*
X205468D01*
X207134Y234832D01*
Y233166D01*
X205468Y231500D01*
X202136D01*
X200469Y233166D01*
X210466Y231500D02*
Y238165D01*
X212132D01*
X213798Y236498D01*
Y231500D01*
Y236498D01*
X215464Y238165D01*
X217131Y236498D01*
Y231500D01*
X220463D02*
Y238165D01*
X222129D01*
X223795Y236498D01*
Y231500D01*
Y236498D01*
X225461Y238165D01*
X227127Y236498D01*
Y231500D01*
D23*
X655540Y-81000D02*
X799540D01*
X655540Y81000D02*
X799540D01*
X797000Y-81000D02*
Y-41137D01*
Y33009D02*
Y81000D01*
Y-81000D02*
X802080Y-65760D01*
X791920D02*
X797000Y-81000D01*
X791920Y65760D02*
X797000Y81000D01*
X802080Y65760D01*
X652500Y-221540D02*
Y-84040D01*
X0Y-221540D02*
Y-96040D01*
X359146Y-219000D02*
X652500D01*
X0D02*
X282460D01*
X637260Y-213920D02*
X652500Y-219000D01*
X637260Y-224080D02*
X652500Y-219000D01*
X0D02*
X15240Y-224080D01*
X0Y-219000D02*
X15240Y-213920D01*
X0Y-192540D02*
Y-96040D01*
X80000Y-192540D02*
Y-113040D01*
X0Y-190000D02*
X40000D01*
X80000D01*
X0D02*
X15240Y-195080D01*
X0Y-190000D02*
X15240Y-184920D01*
X64760D02*
X80000Y-190000D01*
X64760Y-195080D02*
X80000Y-190000D01*
X-47790Y-110000D02*
X76960D01*
X-47790Y-93000D02*
X80000D01*
X-45250D02*
Y-67600D01*
Y-135400D02*
Y-110000D01*
Y-93000D02*
X-40170Y-77760D01*
X-50330D02*
X-45250Y-93000D01*
X-50330Y-125240D02*
X-45250Y-110000D01*
X-40170Y-125240D01*
X83040Y-110000D02*
X833540D01*
X83040Y110000D02*
X833540D01*
X831000Y-110000D02*
Y-42407D01*
Y34279D02*
Y110000D01*
Y-110000D02*
X836080Y-94760D01*
X825920D02*
X831000Y-110000D01*
X825920Y94760D02*
X831000Y110000D01*
X836080Y94760D01*
X352500Y113040D02*
Y214540D01*
X80000Y113040D02*
Y214540D01*
X250529Y212000D02*
X352500D01*
X80000D02*
X173843D01*
X337260Y217080D02*
X352500Y212000D01*
X337260Y206920D02*
X352500Y212000D01*
X80000D02*
X95240Y206920D01*
X80000Y212000D02*
X95240Y217080D01*
X652500Y84040D02*
Y154290D01*
X352500Y84040D02*
Y154290D01*
X536779Y151750D02*
X652500D01*
X352500D02*
X460093D01*
X637260Y156830D02*
X652500Y151750D01*
X637260Y146670D02*
X652500Y151750D01*
X352500D02*
X367740Y146670D01*
X352500Y151750D02*
X367740Y156830D01*
X505070Y-157160D02*
X576190D01*
X432045Y-84135D02*
X505070Y-157160D01*
X425695Y-90485D02*
X432045Y-84135D01*
X0Y60000D02*
X351000D01*
Y-60000D02*
Y60000D01*
X0Y-60000D02*
X351000D01*
X-74160Y-63190D02*
Y7930D01*
X-1135Y80955D01*
X-7485Y87305D02*
X-1135Y80955D01*
X300695Y-118485D02*
X307045Y-112135D01*
X380070Y-185160D01*
X451190D01*
X250145Y112975D02*
X256495Y119325D01*
X177120Y186000D02*
X250145Y112975D01*
X106000Y186000D02*
X177120D01*
X656135Y-70955D02*
X662485Y-77305D01*
X656135Y-70955D02*
X729160Y2070D01*
Y73190D01*
D61*
X74000Y234000D02*
X98000D01*
X39000Y199000D02*
X74000Y234000D01*
X39000Y-101000D02*
Y199000D01*
D62*
X806142Y-37073D02*
Y-31995D01*
Y-34534D01*
X790907D01*
X793446Y-37073D01*
X790907Y-14221D02*
X793446Y-19299D01*
X798524Y-24377D01*
X803602D01*
X806142Y-21838D01*
Y-16760D01*
X803602Y-14221D01*
X801063D01*
X798524Y-16760D01*
Y-24377D01*
X806142Y-9142D02*
X803602D01*
Y-6603D01*
X806142D01*
Y-9142D01*
Y13710D02*
Y3553D01*
X795985Y13710D01*
X793446D01*
X790907Y11171D01*
Y6093D01*
X793446Y3553D01*
Y18789D02*
X790907Y21328D01*
Y26406D01*
X793446Y28945D01*
X803602D01*
X806142Y26406D01*
Y21328D01*
X803602Y18789D01*
X793446D01*
X296681Y-210241D02*
X291602Y-212780D01*
X286524Y-217859D01*
Y-222937D01*
X289063Y-225476D01*
X294142D01*
X296681Y-222937D01*
Y-220398D01*
X294142Y-217859D01*
X286524D01*
X311916Y-210241D02*
X301759D01*
Y-217859D01*
X306837Y-215319D01*
X309377D01*
X311916Y-217859D01*
Y-222937D01*
X309377Y-225476D01*
X304298D01*
X301759Y-222937D01*
X316994Y-225476D02*
Y-222937D01*
X319533D01*
Y-225476D01*
X316994D01*
X339847D02*
X329690D01*
X339847Y-215319D01*
Y-212780D01*
X337308Y-210241D01*
X332229D01*
X329690Y-212780D01*
X355082Y-210241D02*
X344925D01*
Y-217859D01*
X350003Y-215319D01*
X352543D01*
X355082Y-217859D01*
Y-222937D01*
X352543Y-225476D01*
X347464D01*
X344925Y-222937D01*
X91524Y-181702D02*
X94063Y-179163D01*
X99142D01*
X101681Y-181702D01*
Y-184241D01*
X99142Y-186780D01*
X101681Y-189319D01*
Y-191859D01*
X99142Y-194398D01*
X94063D01*
X91524Y-191859D01*
Y-189319D01*
X94063Y-186780D01*
X91524Y-184241D01*
Y-181702D01*
X94063Y-186780D02*
X99142D01*
X106759Y-194398D02*
Y-191859D01*
X109298D01*
Y-194398D01*
X106759D01*
X119455Y-181702D02*
X121994Y-179163D01*
X127072D01*
X129612Y-181702D01*
Y-191859D01*
X127072Y-194398D01*
X121994D01*
X119455Y-191859D01*
Y-181702D01*
X134690D02*
X137229Y-179163D01*
X142308D01*
X144847Y-181702D01*
Y-191859D01*
X142308Y-194398D01*
X137229D01*
X134690Y-191859D01*
Y-181702D01*
X-63533Y-130956D02*
Y-125877D01*
Y-128417D01*
X-78768D01*
X-76229Y-130956D01*
X-63533Y-118260D02*
X-66072D01*
Y-115721D01*
X-63533D01*
Y-118260D01*
X-78768Y-105564D02*
Y-95407D01*
X-76229D01*
X-66072Y-105564D01*
X-63533D01*
X-76229Y-90329D02*
X-78768Y-87790D01*
Y-82711D01*
X-76229Y-80172D01*
X-66072D01*
X-63533Y-82711D01*
Y-87790D01*
X-66072Y-90329D01*
X-76229D01*
X840142Y-28186D02*
Y-38343D01*
X829985Y-28186D01*
X827446D01*
X824906Y-30725D01*
Y-35804D01*
X827446Y-38343D01*
X840142Y-12951D02*
Y-23108D01*
X829985Y-12951D01*
X827446D01*
X824906Y-15490D01*
Y-20569D01*
X827446Y-23108D01*
X840142Y-7873D02*
X837602D01*
Y-5334D01*
X840142D01*
Y-7873D01*
X827446Y4823D02*
X824906Y7362D01*
Y12441D01*
X827446Y14980D01*
X837602D01*
X840142Y12441D01*
Y7362D01*
X837602Y4823D01*
X827446D01*
Y20058D02*
X824906Y22597D01*
Y27676D01*
X827446Y30215D01*
X837602D01*
X840142Y27676D01*
Y22597D01*
X837602Y20058D01*
X827446D01*
X188064Y202859D02*
X177907D01*
X188064Y213015D01*
Y215554D01*
X185525Y218093D01*
X180446D01*
X177907Y215554D01*
X193142Y218093D02*
X203299D01*
Y215554D01*
X193142Y205398D01*
Y202859D01*
X208377D02*
Y205398D01*
X210916D01*
Y202859D01*
X208377D01*
X231230D02*
X221073D01*
X231230Y213015D01*
Y215554D01*
X228691Y218093D01*
X223612D01*
X221073Y215554D01*
X246465Y218093D02*
X236308D01*
Y210476D01*
X241387Y213015D01*
X243926D01*
X246465Y210476D01*
Y205398D01*
X243926Y202859D01*
X238847D01*
X236308Y205398D01*
X464157Y155304D02*
X466696Y157844D01*
X471775D01*
X474314Y155304D01*
Y152765D01*
X471775Y150226D01*
X469235D01*
X471775D01*
X474314Y147687D01*
Y145148D01*
X471775Y142608D01*
X466696D01*
X464157Y145148D01*
X479392Y155304D02*
X481931Y157844D01*
X487010D01*
X489549Y155304D01*
Y145148D01*
X487010Y142608D01*
X481931D01*
X479392Y145148D01*
Y155304D01*
X494627Y142608D02*
Y145148D01*
X497166D01*
Y142608D01*
X494627D01*
X507323Y155304D02*
X509862Y157844D01*
X514941D01*
X517480Y155304D01*
Y145148D01*
X514941Y142608D01*
X509862D01*
X507323Y145148D01*
Y155304D01*
X522558D02*
X525097Y157844D01*
X530176D01*
X532715Y155304D01*
Y145148D01*
X530176Y142608D01*
X525097D01*
X522558Y145148D01*
Y155304D01*
D63*
X513325Y-143352D02*
Y-153350D01*
Y-143352D02*
X517134Y-153350D01*
X520942Y-143352D02*
X517134Y-153350D01*
X520942Y-143352D02*
Y-153350D01*
X523799Y-143352D02*
Y-153350D01*
X525894Y-143352D02*
Y-153350D01*
X531607D01*
X532702Y-143352D02*
Y-153350D01*
X538415D01*
X539510Y-143352D02*
Y-153350D01*
X541605Y-143352D02*
Y-153350D01*
Y-143352D02*
X548270Y-153350D01*
Y-143352D02*
Y-153350D01*
X558172Y-145733D02*
X557696Y-144780D01*
X556744Y-143828D01*
X555792Y-143352D01*
X553888D01*
X552936Y-143828D01*
X551983Y-144780D01*
X551507Y-145733D01*
X551031Y-147161D01*
Y-149541D01*
X551507Y-150969D01*
X551983Y-151922D01*
X552936Y-152874D01*
X553888Y-153350D01*
X555792D01*
X556744Y-152874D01*
X557696Y-151922D01*
X558172Y-150969D01*
Y-149541D01*
X555792D02*
X558172D01*
X-60352Y-325D02*
X-70350Y-4134D01*
X-60352Y-7942D02*
X-70350Y-4134D01*
X-66065Y-9228D02*
Y-17797D01*
X-62733Y-27891D02*
X-61780Y-27414D01*
X-60828Y-26462D01*
X-60352Y-25510D01*
Y-23606D01*
X-60828Y-22654D01*
X-61780Y-21701D01*
X-62733Y-21225D01*
X-64161Y-20749D01*
X-66541D01*
X-67969Y-21225D01*
X-68922Y-21701D01*
X-69874Y-22654D01*
X-70350Y-23606D01*
Y-25510D01*
X-69874Y-26462D01*
X-68922Y-27414D01*
X-67969Y-27891D01*
X-60352Y-30699D02*
X-67493D01*
X-68922Y-31175D01*
X-69874Y-32128D01*
X-70350Y-33556D01*
Y-34508D01*
X-69874Y-35936D01*
X-68922Y-36889D01*
X-67493Y-37365D01*
X-60352D01*
Y-43459D02*
X-70350D01*
X-60352Y-40126D02*
Y-46791D01*
X388325Y-171352D02*
X392134Y-181350D01*
X395942Y-171352D02*
X392134Y-181350D01*
X397228Y-177065D02*
X405798D01*
X415891Y-173732D02*
X415414Y-172780D01*
X414462Y-171828D01*
X413510Y-171352D01*
X411606D01*
X410654Y-171828D01*
X409701Y-172780D01*
X409225Y-173732D01*
X408749Y-175161D01*
Y-177541D01*
X409225Y-178969D01*
X409701Y-179922D01*
X410654Y-180874D01*
X411606Y-181350D01*
X413510D01*
X414462Y-180874D01*
X415414Y-179922D01*
X415891Y-178969D01*
X418699Y-171352D02*
Y-178493D01*
X419175Y-179922D01*
X420128Y-180874D01*
X421556Y-181350D01*
X422508D01*
X423936Y-180874D01*
X424889Y-179922D01*
X425365Y-178493D01*
Y-171352D01*
X431459D02*
Y-181350D01*
X428126Y-171352D02*
X434791D01*
X110000Y197998D02*
X113809Y188000D01*
X117617Y197998D02*
X113809Y188000D01*
X118903Y192285D02*
X127472D01*
X137565Y195617D02*
X137089Y196570D01*
X136137Y197522D01*
X135185Y197998D01*
X133281D01*
X132329Y197522D01*
X131376Y196570D01*
X130900Y195617D01*
X130424Y194189D01*
Y191809D01*
X130900Y190380D01*
X131376Y189428D01*
X132329Y188476D01*
X133281Y188000D01*
X135185D01*
X136137Y188476D01*
X137089Y189428D01*
X137565Y190380D01*
X140374Y197998D02*
Y190856D01*
X140850Y189428D01*
X141803Y188476D01*
X143231Y188000D01*
X144183D01*
X145611Y188476D01*
X146564Y189428D01*
X147040Y190856D01*
Y197998D01*
X153134D02*
Y188000D01*
X149801Y197998D02*
X156466D01*
X715352Y10325D02*
X725350Y14134D01*
X715352Y17942D02*
X725350Y14134D01*
X721065Y19228D02*
Y27798D01*
X717732Y37891D02*
X716780Y37414D01*
X715828Y36462D01*
X715352Y35510D01*
Y33606D01*
X715828Y32654D01*
X716780Y31701D01*
X717732Y31225D01*
X719161Y30749D01*
X721541D01*
X722970Y31225D01*
X723922Y31701D01*
X724874Y32654D01*
X725350Y33606D01*
Y35510D01*
X724874Y36462D01*
X723922Y37414D01*
X722970Y37891D01*
X715352Y40699D02*
X722493D01*
X723922Y41175D01*
X724874Y42128D01*
X725350Y43556D01*
Y44508D01*
X724874Y45936D01*
X723922Y46889D01*
X722493Y47365D01*
X715352D01*
Y53459D02*
X725350D01*
X715352Y50126D02*
Y56791D01*
M02*
