G04*
G04 #@! TF.GenerationSoftware,Altium Limited,Altium Designer,20.2.8 (258)*
G04*
G04 Layer_Color=16711935*
%FSLAX44Y44*%
%MOMM*%
G71*
G04*
G04 #@! TF.SameCoordinates,1B73D90B-C723-4D7B-A954-5B6EDA06906F*
G04*
G04*
G04 #@! TF.FilePolarity,Positive*
G04*
G01*
G75*
%ADD10C,0.1500*%
%ADD23C,0.1000*%
%ADD61C,0.2000*%
%ADD62C,0.0500*%
%ADD63C,0.1524*%
D10*
X112164Y239831D02*
X110498Y241497D01*
X107166D01*
X105500Y239831D01*
Y233166D01*
X107166Y231500D01*
X110498D01*
X112164Y233166D01*
X117163Y238165D02*
X120495D01*
X122161Y236498D01*
Y231500D01*
X117163D01*
X115497Y233166D01*
X117163Y234832D01*
X122161D01*
X125493Y241497D02*
Y231500D01*
X130492D01*
X132158Y233166D01*
Y234832D01*
Y236498D01*
X130492Y238165D01*
X125493D01*
X135490Y231500D02*
X138823D01*
X137156D01*
Y241497D01*
X135490D01*
X148819Y231500D02*
X145487D01*
X143821Y233166D01*
Y236498D01*
X145487Y238165D01*
X148819D01*
X150485Y236498D01*
Y234832D01*
X143821D01*
X165481Y239831D02*
Y238165D01*
X163815D01*
X167147D01*
X165481D01*
Y233166D01*
X167147Y231500D01*
X172145D02*
X175477D01*
X173811D01*
Y238165D01*
X172145D01*
X185474Y231500D02*
X182142D01*
X180476Y233166D01*
Y236498D01*
X182142Y238165D01*
X185474D01*
X187140Y236498D01*
Y234832D01*
X180476D01*
X200469Y239831D02*
X202136Y241497D01*
X205468D01*
X207134Y239831D01*
Y238165D01*
X205468Y236498D01*
X203802D01*
X205468D01*
X207134Y234832D01*
Y233166D01*
X205468Y231500D01*
X202136D01*
X200469Y233166D01*
X210466Y231500D02*
Y238165D01*
X212132D01*
X213798Y236498D01*
Y231500D01*
Y236498D01*
X215464Y238165D01*
X217131Y236498D01*
Y231500D01*
X220463D02*
Y238165D01*
X222129D01*
X223795Y236498D01*
Y231500D01*
Y236498D01*
X225461Y238165D01*
X227127Y236498D01*
Y231500D01*
D23*
X729160Y2070D02*
Y73190D01*
X656135Y-70955D02*
X729160Y2070D01*
X656135Y-70955D02*
X662485Y-77305D01*
X106000Y186000D02*
X177120D01*
X250145Y112975D01*
X256495Y119325D01*
X380070Y-185160D02*
X451190D01*
X307045Y-112135D02*
X380070Y-185160D01*
X300695Y-118485D02*
X307045Y-112135D01*
X-7485Y87305D02*
X-1135Y80955D01*
X-74160Y7930D02*
X-1135Y80955D01*
X-74160Y-63190D02*
Y7930D01*
X0Y-60000D02*
X351000D01*
Y60000D01*
X0D02*
X351000D01*
X425695Y-90485D02*
X432045Y-84135D01*
X505070Y-157160D01*
X576190D01*
X352500Y151750D02*
X367740Y156830D01*
X352500Y151750D02*
X367740Y146670D01*
X637260D02*
X652500Y151750D01*
X637260Y156830D02*
X652500Y151750D01*
X352500D02*
X458824D01*
X538049D02*
X652500D01*
X352500Y84040D02*
Y154290D01*
X652500Y84040D02*
Y154290D01*
X80000Y212000D02*
X95240Y217080D01*
X80000Y212000D02*
X95240Y206920D01*
X337260D02*
X352500Y212000D01*
X337260Y217080D02*
X352500Y212000D01*
X80000D02*
X172574D01*
X251798D02*
X352500D01*
X80000Y113040D02*
Y214540D01*
X352500Y113040D02*
Y214540D01*
X831000Y110000D02*
X836080Y94760D01*
X825920D02*
X831000Y110000D01*
X825920Y-94760D02*
X831000Y-110000D01*
X836080Y-94760D01*
X831000Y35549D02*
Y110000D01*
Y-110000D02*
Y-43677D01*
X83040Y110000D02*
X833540D01*
X83040Y-110000D02*
X833540D01*
X-45250D02*
X-40170Y-125240D01*
X-50330D02*
X-45250Y-110000D01*
X-50330Y-77760D02*
X-45250Y-93000D01*
X-40170Y-77760D01*
X-45250Y-135400D02*
Y-110000D01*
Y-93000D02*
Y-67600D01*
X-47790Y-93000D02*
X80000D01*
X-47790Y-110000D02*
X76960D01*
X64760Y-195080D02*
X80000Y-190000D01*
X64760Y-184920D02*
X80000Y-190000D01*
X0D02*
X15240Y-184920D01*
X0Y-190000D02*
X15240Y-195080D01*
X40000Y-190000D02*
X80000D01*
X0D02*
X40000D01*
X80000Y-192540D02*
Y-113040D01*
X0Y-192540D02*
Y-96040D01*
Y-219000D02*
X15240Y-213920D01*
X0Y-219000D02*
X15240Y-224080D01*
X637260D02*
X652500Y-219000D01*
X637260Y-213920D02*
X652500Y-219000D01*
X0D02*
X282460D01*
X361685D02*
X652500D01*
X0Y-221540D02*
Y-96040D01*
X652500Y-221540D02*
Y-84040D01*
X797000Y81000D02*
X802080Y65760D01*
X791920D02*
X797000Y81000D01*
X791920Y-65760D02*
X797000Y-81000D01*
X802080Y-65760D01*
X797000Y34279D02*
Y81000D01*
Y-81000D02*
Y-42407D01*
X655540Y81000D02*
X799540D01*
X655540Y-81000D02*
X799540D01*
D61*
X39000Y-101000D02*
Y199000D01*
X74000Y234000D01*
X98000D01*
D62*
X715352Y10325D02*
X725350Y14134D01*
X715352Y17942D02*
X725350Y14134D01*
X721065Y19228D02*
Y27798D01*
X717732Y37891D02*
X716780Y37414D01*
X715828Y36462D01*
X715352Y35510D01*
Y33606D01*
X715828Y32654D01*
X716780Y31701D01*
X717732Y31225D01*
X719161Y30749D01*
X721541D01*
X722970Y31225D01*
X723922Y31701D01*
X724874Y32654D01*
X725350Y33606D01*
Y35510D01*
X724874Y36462D01*
X723922Y37414D01*
X722970Y37891D01*
X715352Y40699D02*
X722493D01*
X723922Y41175D01*
X724874Y42128D01*
X725350Y43556D01*
Y44508D01*
X724874Y45936D01*
X723922Y46889D01*
X722493Y47365D01*
X715352D01*
Y53459D02*
X725350D01*
X715352Y50126D02*
Y56791D01*
X110000Y197998D02*
X113809Y188000D01*
X117617Y197998D02*
X113809Y188000D01*
X118903Y192285D02*
X127472D01*
X137565Y195617D02*
X137089Y196570D01*
X136137Y197522D01*
X135185Y197998D01*
X133281D01*
X132329Y197522D01*
X131376Y196570D01*
X130900Y195617D01*
X130424Y194189D01*
Y191809D01*
X130900Y190380D01*
X131376Y189428D01*
X132329Y188476D01*
X133281Y188000D01*
X135185D01*
X136137Y188476D01*
X137089Y189428D01*
X137565Y190380D01*
X140374Y197998D02*
Y190856D01*
X140850Y189428D01*
X141803Y188476D01*
X143231Y188000D01*
X144183D01*
X145611Y188476D01*
X146564Y189428D01*
X147040Y190856D01*
Y197998D01*
X153134D02*
Y188000D01*
X149801Y197998D02*
X156466D01*
X388325Y-171352D02*
X392134Y-181350D01*
X395942Y-171352D02*
X392134Y-181350D01*
X397228Y-177065D02*
X405798D01*
X415891Y-173732D02*
X415414Y-172780D01*
X414462Y-171828D01*
X413510Y-171352D01*
X411606D01*
X410654Y-171828D01*
X409701Y-172780D01*
X409225Y-173732D01*
X408749Y-175161D01*
Y-177541D01*
X409225Y-178969D01*
X409701Y-179922D01*
X410654Y-180874D01*
X411606Y-181350D01*
X413510D01*
X414462Y-180874D01*
X415414Y-179922D01*
X415891Y-178969D01*
X418699Y-171352D02*
Y-178493D01*
X419175Y-179922D01*
X420128Y-180874D01*
X421556Y-181350D01*
X422508D01*
X423936Y-180874D01*
X424889Y-179922D01*
X425365Y-178493D01*
Y-171352D01*
X431459D02*
Y-181350D01*
X428126Y-171352D02*
X434791D01*
X-60352Y-325D02*
X-70350Y-4134D01*
X-60352Y-7942D02*
X-70350Y-4134D01*
X-66065Y-9228D02*
Y-17797D01*
X-62733Y-27891D02*
X-61780Y-27414D01*
X-60828Y-26462D01*
X-60352Y-25510D01*
Y-23606D01*
X-60828Y-22654D01*
X-61780Y-21701D01*
X-62733Y-21225D01*
X-64161Y-20749D01*
X-66541D01*
X-67969Y-21225D01*
X-68922Y-21701D01*
X-69874Y-22654D01*
X-70350Y-23606D01*
Y-25510D01*
X-69874Y-26462D01*
X-68922Y-27414D01*
X-67969Y-27891D01*
X-60352Y-30699D02*
X-67493D01*
X-68922Y-31175D01*
X-69874Y-32128D01*
X-70350Y-33556D01*
Y-34508D01*
X-69874Y-35936D01*
X-68922Y-36889D01*
X-67493Y-37365D01*
X-60352D01*
Y-43459D02*
X-70350D01*
X-60352Y-40126D02*
Y-46791D01*
X513325Y-143352D02*
Y-153350D01*
Y-143352D02*
X517134Y-153350D01*
X520942Y-143352D02*
X517134Y-153350D01*
X520942Y-143352D02*
Y-153350D01*
X523799Y-143352D02*
Y-153350D01*
X525894Y-143352D02*
Y-153350D01*
X531607D01*
X532702Y-143352D02*
Y-153350D01*
X538415D01*
X539510Y-143352D02*
Y-153350D01*
X541605Y-143352D02*
Y-153350D01*
Y-143352D02*
X548270Y-153350D01*
Y-143352D02*
Y-153350D01*
X558172Y-145733D02*
X557696Y-144780D01*
X556744Y-143828D01*
X555792Y-143352D01*
X553888D01*
X552936Y-143828D01*
X551983Y-144780D01*
X551507Y-145733D01*
X551031Y-147161D01*
Y-149541D01*
X551507Y-150969D01*
X551983Y-151922D01*
X552936Y-152874D01*
X553888Y-153350D01*
X555792D01*
X556744Y-152874D01*
X557696Y-151922D01*
X558172Y-150969D01*
Y-149541D01*
X555792D02*
X558172D01*
D63*
X462887Y152765D02*
X465427Y155304D01*
X470505D01*
X473044Y152765D01*
Y150226D01*
X470505Y147687D01*
X467966D01*
X470505D01*
X473044Y145148D01*
Y142608D01*
X470505Y140069D01*
X465427D01*
X462887Y142608D01*
X478123Y152765D02*
X480662Y155304D01*
X485740D01*
X488279Y152765D01*
Y142608D01*
X485740Y140069D01*
X480662D01*
X478123Y142608D01*
Y152765D01*
X495897Y137530D02*
X498436Y140069D01*
Y142608D01*
X495897D01*
Y140069D01*
X498436D01*
X495897Y137530D01*
X493358Y134991D01*
X508593Y152765D02*
X511132Y155304D01*
X516210D01*
X518749Y152765D01*
Y142608D01*
X516210Y140069D01*
X511132D01*
X508593Y142608D01*
Y152765D01*
X523828D02*
X526367Y155304D01*
X531445D01*
X533984Y152765D01*
Y142608D01*
X531445Y140069D01*
X526367D01*
X523828Y142608D01*
Y152765D01*
X186794Y200319D02*
X176637D01*
X186794Y210476D01*
Y213015D01*
X184255Y215554D01*
X179177D01*
X176637Y213015D01*
X191873Y215554D02*
X202029D01*
Y213015D01*
X191873Y202859D01*
Y200319D01*
X209647Y197780D02*
X212186Y200319D01*
Y202859D01*
X209647D01*
Y200319D01*
X212186D01*
X209647Y197780D01*
X207108Y195241D01*
X232499Y200319D02*
X222343D01*
X232499Y210476D01*
Y213015D01*
X229960Y215554D01*
X224882D01*
X222343Y213015D01*
X247735Y215554D02*
X237578D01*
Y207937D01*
X242656Y210476D01*
X245195D01*
X247735Y207937D01*
Y202859D01*
X245195Y200319D01*
X240117D01*
X237578Y202859D01*
X842681Y-29456D02*
Y-39613D01*
X832524Y-29456D01*
X829985D01*
X827446Y-31995D01*
Y-37073D01*
X829985Y-39613D01*
X842681Y-14221D02*
Y-24377D01*
X832524Y-14221D01*
X829985D01*
X827446Y-16760D01*
Y-21838D01*
X829985Y-24377D01*
X845220Y-6603D02*
X842681Y-4064D01*
X840142D01*
Y-6603D01*
X842681D01*
Y-4064D01*
X845220Y-6603D01*
X847759Y-9142D01*
X829985Y6093D02*
X827446Y8632D01*
Y13710D01*
X829985Y16249D01*
X840142D01*
X842681Y13710D01*
Y8632D01*
X840142Y6093D01*
X829985D01*
Y21328D02*
X827446Y23867D01*
Y28945D01*
X829985Y31484D01*
X840142D01*
X842681Y28945D01*
Y23867D01*
X840142Y21328D01*
X829985D01*
X-68611Y-132225D02*
Y-127147D01*
Y-129686D01*
X-83847D01*
X-81307Y-132225D01*
X-66072Y-116990D02*
X-68611Y-114451D01*
X-71151D01*
Y-116990D01*
X-68611D01*
Y-114451D01*
X-66072Y-116990D01*
X-63533Y-119529D01*
X-83847Y-104294D02*
Y-94138D01*
X-81307D01*
X-71151Y-104294D01*
X-68611D01*
X-81307Y-89059D02*
X-83847Y-86520D01*
Y-81442D01*
X-81307Y-78903D01*
X-71151D01*
X-68611Y-81442D01*
Y-86520D01*
X-71151Y-89059D01*
X-81307D01*
X91524Y-181702D02*
X94063Y-179163D01*
X99142D01*
X101681Y-181702D01*
Y-184241D01*
X99142Y-186780D01*
X101681Y-189319D01*
Y-191859D01*
X99142Y-194398D01*
X94063D01*
X91524Y-191859D01*
Y-189319D01*
X94063Y-186780D01*
X91524Y-184241D01*
Y-181702D01*
X94063Y-186780D02*
X99142D01*
X109298Y-196937D02*
X111837Y-194398D01*
Y-191859D01*
X109298D01*
Y-194398D01*
X111837D01*
X109298Y-196937D01*
X106759Y-199476D01*
X121994Y-181702D02*
X124533Y-179163D01*
X129612D01*
X132151Y-181702D01*
Y-191859D01*
X129612Y-194398D01*
X124533D01*
X121994Y-191859D01*
Y-181702D01*
X137229D02*
X139768Y-179163D01*
X144847D01*
X147386Y-181702D01*
Y-191859D01*
X144847Y-194398D01*
X139768D01*
X137229Y-191859D01*
Y-181702D01*
X296681Y-210241D02*
X291602Y-212780D01*
X286524Y-217859D01*
Y-222937D01*
X289063Y-225476D01*
X294142D01*
X296681Y-222937D01*
Y-220398D01*
X294142Y-217859D01*
X286524D01*
X311916Y-210241D02*
X301759D01*
Y-217859D01*
X306837Y-215319D01*
X309377D01*
X311916Y-217859D01*
Y-222937D01*
X309377Y-225476D01*
X304298D01*
X301759Y-222937D01*
X319533Y-228015D02*
X322072Y-225476D01*
Y-222937D01*
X319533D01*
Y-225476D01*
X322072D01*
X319533Y-228015D01*
X316994Y-230554D01*
X342386Y-225476D02*
X332229D01*
X342386Y-215319D01*
Y-212780D01*
X339847Y-210241D01*
X334768D01*
X332229Y-212780D01*
X357621Y-210241D02*
X347464D01*
Y-217859D01*
X352543Y-215319D01*
X355082D01*
X357621Y-217859D01*
Y-222937D01*
X355082Y-225476D01*
X350004D01*
X347464Y-222937D01*
X808681Y-38343D02*
Y-33265D01*
Y-35804D01*
X793446D01*
X795985Y-38343D01*
X793446Y-15490D02*
X795985Y-20569D01*
X801063Y-25647D01*
X806142D01*
X808681Y-23108D01*
Y-18030D01*
X806142Y-15490D01*
X803602D01*
X801063Y-18030D01*
Y-25647D01*
X811220Y-7873D02*
X808681Y-5334D01*
X806142D01*
Y-7873D01*
X808681D01*
Y-5334D01*
X811220Y-7873D01*
X813759Y-10412D01*
X808681Y14980D02*
Y4823D01*
X798524Y14980D01*
X795985D01*
X793446Y12441D01*
Y7362D01*
X795985Y4823D01*
Y20058D02*
X793446Y22597D01*
Y27676D01*
X795985Y30215D01*
X806142D01*
X808681Y27676D01*
Y22597D01*
X806142Y20058D01*
X795985D01*
M02*
