G04*
G04 #@! TF.GenerationSoftware,Altium Limited,Altium Designer,24.10.1 (45)*
G04*
G04 Layer_Color=128*
%FSLAX44Y44*%
%MOMM*%
G71*
G04*
G04 #@! TF.SameCoordinates,0B8B6D01-8723-4DA0-AD69-83BFE1F98CA5*
G04*
G04*
G04 #@! TF.FilePolarity,Positive*
G04*
G01*
G75*
%ADD11R,1.5000X1.5000*%
%ADD13R,0.7500X1.0000*%
%ADD14R,1.0000X0.7500*%
%ADD59R,1.2700X0.1700*%
D11*
X20000Y-60000D02*
D03*
X630000Y60000D02*
D03*
D13*
X289620Y-49000D02*
D03*
X274380D02*
D03*
X289620Y-33000D02*
D03*
X274380D02*
D03*
X218380Y-48000D02*
D03*
X233620D02*
D03*
X218380Y-32000D02*
D03*
X233620D02*
D03*
X218380Y33000D02*
D03*
X233620D02*
D03*
X218380Y49000D02*
D03*
X233620D02*
D03*
X310620Y4000D02*
D03*
X295380D02*
D03*
D14*
X273000Y47620D02*
D03*
Y32380D02*
D03*
X289000Y47620D02*
D03*
Y32380D02*
D03*
X306000Y-34380D02*
D03*
Y-49620D02*
D03*
X321000Y-34380D02*
D03*
Y-49620D02*
D03*
X191000Y-32380D02*
D03*
Y-47620D02*
D03*
X205000D02*
D03*
Y-32380D02*
D03*
X204000Y33380D02*
D03*
Y48620D02*
D03*
X191000Y33380D02*
D03*
Y48620D02*
D03*
D59*
X218790Y-19500D02*
D03*
Y-13000D02*
D03*
Y-6500D02*
D03*
Y0D02*
D03*
Y6500D02*
D03*
Y13000D02*
D03*
Y19500D02*
D03*
X277210D02*
D03*
Y13000D02*
D03*
Y6500D02*
D03*
Y0D02*
D03*
Y-6500D02*
D03*
Y-13000D02*
D03*
Y-19500D02*
D03*
M02*
