G04*
G04 #@! TF.GenerationSoftware,Altium Limited,Altium Designer,20.2.8 (258)*
G04*
G04 Layer_Physical_Order=1*
G04 Layer_Color=255*
%FSLAX44Y44*%
%MOMM*%
G71*
G04*
G04 #@! TF.SameCoordinates,1B73D90B-C723-4D7B-A954-5B6EDA06906F*
G04*
G04*
G04 #@! TF.FilePolarity,Positive*
G04*
G01*
G75*
%ADD11R,1.5000X1.5000*%
%ADD13R,0.7500X1.0000*%
%ADD14R,1.0000X0.7500*%
%ADD19R,1.0000X0.6000*%
%ADD20R,1.1000X0.6000*%
%ADD39C,0.3000*%
%ADD40R,1.0000X0.7000*%
%ADD41R,0.9000X0.4000*%
%ADD42R,0.4000X0.9000*%
%ADD43R,1.2000X1.0000*%
%ADD44R,2.7000X1.5000*%
%ADD45C,0.8000*%
%ADD46C,0.4000*%
%ADD47C,0.3500*%
%ADD48C,0.5000*%
%ADD49C,0.6000*%
%ADD50C,1.5000*%
%ADD51C,3.2000*%
%ADD52R,2.2000X2.2000*%
%ADD53R,1.3000X1.3000*%
%ADD54C,2.2000*%
%ADD55C,0.6000*%
G36*
X265090Y90460D02*
X267261D01*
Y87065D01*
X266750D01*
Y81262D01*
X264957Y80359D01*
X264030Y81002D01*
Y84910D01*
X248950D01*
Y77477D01*
X248309Y76846D01*
X247229Y76246D01*
X246410Y76053D01*
X246162Y76219D01*
X245616Y76327D01*
X245102Y76540D01*
X244546D01*
X244000Y76649D01*
X243454Y76540D01*
X242898D01*
X241242Y77426D01*
X240695Y77952D01*
X240444Y78334D01*
X239697Y80138D01*
X238138Y81697D01*
X236102Y82540D01*
X233898D01*
X231862Y81697D01*
X230303Y80138D01*
X229460Y78102D01*
Y75898D01*
X229861Y74929D01*
Y42540D01*
X229090D01*
Y39119D01*
X221731D01*
X206040Y54810D01*
Y60565D01*
X191612D01*
X191593Y60593D01*
X185629Y66557D01*
Y78000D01*
X185629Y78000D01*
X185277Y79771D01*
X184273Y81273D01*
X184273Y81273D01*
X181273Y84273D01*
X179771Y85277D01*
X178540Y85521D01*
Y87540D01*
X163910D01*
Y87540D01*
X151330D01*
Y72460D01*
X163460D01*
Y71770D01*
X171000D01*
Y69230D01*
X163460D01*
Y66540D01*
X151330D01*
Y51460D01*
X151330D01*
Y50540D01*
X151330D01*
Y35460D01*
X163910D01*
Y50540D01*
X163910D01*
Y51460D01*
X163910D01*
Y54371D01*
X170000D01*
X170000Y54371D01*
X171771Y54723D01*
X172962Y55519D01*
X173337Y55522D01*
X173410Y55470D01*
X174160Y54530D01*
X174669Y52607D01*
X174460Y52102D01*
Y49898D01*
X175303Y47862D01*
X176862Y46303D01*
X177586Y46003D01*
X178288Y43113D01*
X176317Y41143D01*
X175424Y39806D01*
X175111Y38230D01*
Y25090D01*
X151060D01*
Y10010D01*
X163190D01*
Y9320D01*
X170730D01*
Y6780D01*
X163190D01*
Y4090D01*
X151060D01*
Y-10990D01*
X151060D01*
Y-11910D01*
X151060D01*
Y-26990D01*
X163640D01*
Y-11910D01*
X163640D01*
Y-10990D01*
X163640D01*
Y-8079D01*
X169730D01*
X169730Y-8079D01*
X171501Y-7727D01*
X173003Y-6723D01*
X174647Y-5079D01*
X177730D01*
X177730Y-5079D01*
X179501Y-4727D01*
X181003Y-3723D01*
X184003Y-723D01*
X184003Y-723D01*
X185007Y779D01*
X185359Y2550D01*
X185359Y2550D01*
Y15550D01*
X185359Y15550D01*
X185007Y17321D01*
X184003Y18823D01*
X184003Y18823D01*
X183349Y19477D01*
Y25148D01*
X183960Y27435D01*
X190993D01*
X191194Y26424D01*
X192087Y25087D01*
X196087Y21087D01*
X197424Y20194D01*
X199000Y19881D01*
X211294D01*
X216881Y14294D01*
Y5745D01*
X213049Y1913D01*
X212156Y576D01*
X211842Y-1000D01*
Y-14881D01*
X209000D01*
X207424Y-15194D01*
X206087Y-16087D01*
X203565Y-18610D01*
X200910Y-17672D01*
X200697Y-16138D01*
X201540Y-14102D01*
Y-11898D01*
X200697Y-9862D01*
X199138Y-8303D01*
X197102Y-7460D01*
X194898D01*
X192862Y-8303D01*
X191303Y-9862D01*
X190460Y-11898D01*
Y-14102D01*
X191303Y-16138D01*
X191881Y-16716D01*
Y-23960D01*
X186435D01*
Y-37416D01*
X185034Y-37694D01*
X183697Y-38587D01*
X181108Y-41177D01*
X180933D01*
X179431Y-40173D01*
X178200Y-39928D01*
Y-37910D01*
X150990D01*
Y-52990D01*
X163120D01*
Y-53680D01*
X170660D01*
Y-56220D01*
X163120D01*
Y-58910D01*
X150990D01*
Y-73990D01*
X150990D01*
Y-74910D01*
X150990D01*
Y-89990D01*
X163570D01*
Y-74910D01*
X163570D01*
Y-73990D01*
X163570D01*
Y-71079D01*
X169660D01*
X169660Y-71079D01*
X171432Y-70727D01*
X172933Y-69723D01*
X174577Y-68079D01*
X177660D01*
X177660Y-68079D01*
X179431Y-67727D01*
X180933Y-66723D01*
X183933Y-63723D01*
X183933Y-63723D01*
X184937Y-62221D01*
X185289Y-60450D01*
X185289Y-60450D01*
Y-48646D01*
X187895Y-46040D01*
X198881D01*
Y-51025D01*
X199194Y-52601D01*
X200087Y-53938D01*
X235435Y-89285D01*
Y-90102D01*
X236278Y-92138D01*
X237837Y-93697D01*
X239873Y-94540D01*
X242077D01*
X244113Y-93697D01*
X244550Y-93260D01*
X247090Y-93458D01*
Y-97540D01*
X259670D01*
Y-85486D01*
X261000Y-84770D01*
X262330Y-85486D01*
Y-97540D01*
X274910D01*
Y-93434D01*
X275121Y-93180D01*
X277450Y-91947D01*
X278518Y-92389D01*
X280722D01*
X282758Y-91546D01*
X283336Y-90968D01*
X332151D01*
X333727Y-90655D01*
X335064Y-89762D01*
X344706Y-80119D01*
X348004D01*
X350000Y-82000D01*
Y-95280D01*
X349500Y-97792D01*
X348521Y-100158D01*
X347098Y-102287D01*
X345287Y-104098D01*
X343158Y-105520D01*
X340792Y-106500D01*
X338280Y-107000D01*
X111000D01*
Y93000D01*
X265090D01*
Y90460D01*
D02*
G37*
G36*
X414000Y77000D02*
X414000Y77000D01*
X414000D01*
X416300Y76778D01*
X417500Y76539D01*
X419684Y75634D01*
X421650Y74321D01*
X423321Y72650D01*
X424634Y70684D01*
X425539Y68500D01*
X426000Y66182D01*
X426000Y65000D01*
X426000Y58000D01*
X426077Y57220D01*
X426674Y55778D01*
X427042Y55410D01*
X426006Y52910D01*
X420321D01*
X419095Y53154D01*
X419095Y53154D01*
X413970D01*
Y54065D01*
X407436D01*
X395228Y66273D01*
X393726Y67277D01*
X391955Y67629D01*
X391955Y67629D01*
X372000D01*
X372000Y67629D01*
X370229Y67277D01*
X368727Y66273D01*
X368727Y66273D01*
X362994Y60540D01*
X357090D01*
Y45460D01*
X358751D01*
Y32540D01*
X357090D01*
Y17460D01*
X358751D01*
Y4620D01*
X358751Y4620D01*
X359103Y2849D01*
X360107Y1347D01*
X362044Y-590D01*
X361008Y-3090D01*
X353357D01*
X353139Y-2871D01*
Y10648D01*
X353173Y10700D01*
X353699Y11968D01*
X353966Y13314D01*
X354000Y14000D01*
Y71000D01*
Y72193D01*
X354913Y74399D01*
X356601Y76087D01*
X358806Y77000D01*
X414000D01*
X414000Y77000D01*
D02*
G37*
G36*
X398890Y49519D02*
Y42985D01*
X413460D01*
Y40330D01*
X426775D01*
X428540Y40330D01*
X430725Y41090D01*
X435230D01*
Y47380D01*
X436500D01*
Y48650D01*
X444040D01*
X444040Y51061D01*
X445500Y51929D01*
X446960Y51061D01*
Y48650D01*
X462040D01*
Y52045D01*
X462513Y52501D01*
X464384Y53673D01*
X464898Y53460D01*
X465454D01*
X466000Y53351D01*
X466546Y53460D01*
X467102D01*
X467616Y53673D01*
X468162Y53781D01*
X468489Y54000D01*
X472521D01*
X474810Y53490D01*
Y45720D01*
X483850D01*
Y43180D01*
X474810D01*
Y36889D01*
X461750D01*
X459784Y36498D01*
X458350Y35540D01*
X446580D01*
Y20860D01*
X446460Y18412D01*
X446460Y18410D01*
X444638Y16772D01*
X444540Y16700D01*
X427460D01*
Y15310D01*
X425540Y13910D01*
X417321D01*
X416095Y14154D01*
X416095Y14154D01*
X410740D01*
Y15065D01*
X394660D01*
Y3985D01*
Y1270D01*
X402700D01*
Y-1270D01*
X394660D01*
Y-5540D01*
Y-15065D01*
X395594D01*
X396079Y-17465D01*
X396078Y-17577D01*
X395852Y-19861D01*
X377128D01*
X374642Y-17375D01*
X375599Y-15065D01*
X385340D01*
Y-3985D01*
X381866D01*
X381577Y-2529D01*
X380573Y-1027D01*
X380573Y-1027D01*
X377871Y1675D01*
X378828Y3985D01*
X385340D01*
Y15065D01*
X385163D01*
X384910Y17460D01*
X384910Y17565D01*
Y23730D01*
X378620D01*
Y26270D01*
X384910D01*
Y30960D01*
X384910Y32540D01*
X387029Y33460D01*
X391110D01*
Y37730D01*
X383570D01*
Y40270D01*
X391110D01*
Y44540D01*
X387029D01*
X384910Y45460D01*
X384910Y47040D01*
Y51730D01*
X378620D01*
Y54270D01*
X384910D01*
Y58371D01*
X390038D01*
X398890Y49519D01*
D02*
G37*
G36*
X266750Y56935D02*
X282586D01*
X282952Y54600D01*
X282960Y54449D01*
Y34470D01*
X314580D01*
Y29460D01*
X314580D01*
Y28540D01*
X314580D01*
Y21530D01*
X282960D01*
Y1450D01*
X291023D01*
X292075Y-1090D01*
X291303Y-1862D01*
X290460Y-3898D01*
Y-6102D01*
X291099Y-7645D01*
X285285Y-13460D01*
X278030D01*
Y-14881D01*
X246540D01*
Y-9665D01*
X249018Y-7187D01*
X249090Y-7157D01*
X250648Y-5599D01*
X251492Y-3563D01*
Y-1359D01*
X250648Y677D01*
X249090Y2236D01*
X247054Y3079D01*
X246237D01*
X246119Y3197D01*
Y13000D01*
X245806Y14576D01*
X244913Y15913D01*
X244525Y16300D01*
X245121Y19296D01*
X245138Y19303D01*
X246697Y20862D01*
X247540Y22898D01*
Y25102D01*
X249313Y27460D01*
X256910D01*
Y42540D01*
X256237D01*
X255839Y44542D01*
X254614Y46374D01*
X254614Y46374D01*
X249648Y51340D01*
Y57090D01*
X264030D01*
Y58751D01*
X266750D01*
Y56935D01*
D02*
G37*
G36*
X493582Y7796D02*
X493087Y6601D01*
X491399Y4913D01*
X489193Y4000D01*
X480000D01*
X478824Y3942D01*
X476517Y3483D01*
X474343Y2583D01*
X472387Y1276D01*
X470724Y-387D01*
X469417Y-2343D01*
X468517Y-4517D01*
X468058Y-6824D01*
X468000Y-8000D01*
Y-19788D01*
X467693Y-21333D01*
X467090Y-22789D01*
X466214Y-24100D01*
X465100Y-25214D01*
X463789Y-26089D01*
X462333Y-26693D01*
X459910Y-24809D01*
Y-17460D01*
X454890D01*
Y-25000D01*
X453620D01*
Y-26270D01*
X447330D01*
Y-27000D01*
X444670D01*
Y-17460D01*
X444540D01*
Y-10810D01*
X446460Y-9410D01*
X447040Y-9410D01*
X452730D01*
Y-3120D01*
Y3170D01*
X448397D01*
X447612Y4522D01*
X448377Y5830D01*
X461540D01*
Y6981D01*
X476920D01*
X478886Y7372D01*
X480554Y8486D01*
X482077Y10010D01*
X491937D01*
X493582Y7796D01*
D02*
G37*
G36*
X328460Y-5700D02*
Y-16420D01*
X328410Y-16670D01*
Y-19330D01*
X328460Y-19580D01*
Y-23460D01*
X323460D01*
Y-28540D01*
X328460D01*
Y-31910D01*
X335065D01*
X335856Y-32494D01*
X336057Y-32703D01*
X336846Y-33902D01*
X336914Y-34410D01*
X336978Y-34729D01*
X336995Y-35054D01*
X337075Y-35220D01*
X337111Y-35401D01*
X337521Y-36390D01*
X338082Y-37230D01*
X339770Y-38918D01*
X340610Y-39479D01*
X342815Y-40393D01*
X343806Y-40590D01*
X346194D01*
X346550Y-40519D01*
X349090Y-41942D01*
Y-42730D01*
X354110D01*
Y-35277D01*
X353855Y-35000D01*
X353773Y-34867D01*
X353442Y-33966D01*
X353442Y-33920D01*
X353446Y-33683D01*
X353500Y-33410D01*
X353930Y-32385D01*
X355088Y-31000D01*
X371905D01*
X372500Y-33298D01*
X372474Y-33540D01*
X370033Y-35413D01*
X369230Y-36460D01*
X364330D01*
Y-51540D01*
X364330D01*
Y-53460D01*
X364330D01*
Y-66326D01*
X361670D01*
Y-53460D01*
X361670D01*
Y-51540D01*
X361670D01*
Y-45270D01*
X355380D01*
X349090D01*
Y-51540D01*
X349090D01*
Y-53460D01*
X349090D01*
Y-59881D01*
X338000D01*
X336424Y-60194D01*
X335087Y-61087D01*
X329294Y-66881D01*
X247706D01*
X239825Y-59000D01*
X241913Y-56913D01*
X242806Y-55576D01*
X243119Y-54000D01*
Y-33910D01*
X246540D01*
Y-23119D01*
X278030D01*
Y-24540D01*
X293110D01*
Y-17285D01*
X298350Y-12045D01*
X300570Y-12741D01*
X300890Y-12984D01*
Y-15015D01*
X308568D01*
X309620Y-17555D01*
X305517Y-21657D01*
X304630Y-22985D01*
X300890D01*
Y-34065D01*
X315970D01*
Y-22985D01*
X317674Y-21151D01*
X323783Y-15043D01*
X324676Y-13706D01*
X324989Y-12130D01*
Y-4535D01*
X326151Y-3984D01*
X328460Y-5700D01*
D02*
G37*
G36*
X348746Y-13014D02*
X350414Y-14128D01*
X350460Y-14137D01*
Y-15670D01*
X356192D01*
X356299Y-15830D01*
X354963Y-18330D01*
X350460D01*
Y-23350D01*
X358000D01*
Y-25890D01*
X350460D01*
Y-30910D01*
X350460D01*
X350910Y-33410D01*
X350087Y-35399D01*
X348399Y-37087D01*
X346194Y-38000D01*
X343806D01*
X341601Y-37087D01*
X339913Y-35399D01*
X339504Y-34410D01*
X340983Y-31910D01*
X343540D01*
Y-26890D01*
X336000D01*
Y-25620D01*
X334730D01*
Y-19330D01*
X331000D01*
Y-16670D01*
X343540D01*
Y-11343D01*
X346040Y-10307D01*
X348746Y-13014D01*
D02*
G37*
G36*
X517145Y-56030D02*
X505294Y-67881D01*
X457910D01*
Y-64460D01*
X449905D01*
X447525Y-62080D01*
X448577Y-59540D01*
X457910D01*
Y-58119D01*
X499700D01*
X501276Y-57806D01*
X502613Y-56913D01*
X506035Y-53490D01*
X516092D01*
X517145Y-56030D01*
D02*
G37*
G36*
X415329Y-42466D02*
X413335Y-44460D01*
X405330D01*
Y-59540D01*
X414663D01*
X415715Y-62080D01*
X413335Y-64460D01*
X405330D01*
Y-78000D01*
X402670D01*
Y-64460D01*
X393337D01*
X392285Y-61920D01*
X394665Y-59540D01*
X402670D01*
Y-44460D01*
X390090D01*
Y-52465D01*
X379257Y-63298D01*
X376910Y-62326D01*
Y-53460D01*
X376910D01*
Y-51540D01*
X376910D01*
Y-41831D01*
X378620Y-40119D01*
X414357D01*
X415329Y-42466D01*
D02*
G37*
G36*
X530312Y18312D02*
X531000Y16792D01*
X531000Y-69000D01*
X531000Y-69000D01*
X531000Y-69886D01*
X530654Y-71625D01*
X529976Y-73263D01*
X528991Y-74737D01*
X527737Y-75991D01*
X526263Y-76976D01*
X524625Y-77654D01*
X522886Y-78000D01*
X522000Y-78000D01*
X509573D01*
X509094Y-75460D01*
X509913Y-74913D01*
X525913Y-58913D01*
X526806Y-57576D01*
X527119Y-56000D01*
Y-32800D01*
X526806Y-31224D01*
X525913Y-29887D01*
X518290Y-22265D01*
Y-10010D01*
X500210D01*
Y-28090D01*
X512465D01*
X517245Y-32870D01*
X516193Y-35410D01*
X500210D01*
Y-47665D01*
X497994Y-49881D01*
X457910D01*
Y-44460D01*
X450285D01*
X448291Y-42466D01*
X449263Y-40119D01*
X474619D01*
X474619Y-40119D01*
X474810Y-40790D01*
X492890D01*
Y-22710D01*
X474810D01*
Y-29450D01*
X474619Y-31881D01*
X468906D01*
X468136Y-29341D01*
X468710Y-28957D01*
X469957Y-27710D01*
X470937Y-26243D01*
X471613Y-24613D01*
X471957Y-22882D01*
X472000Y-22000D01*
Y-21204D01*
X472609Y-19734D01*
X473734Y-18609D01*
X475204Y-18000D01*
X493000D01*
X493780Y-17923D01*
X495222Y-17326D01*
X496326Y-16222D01*
X496923Y-14780D01*
X497000Y-14000D01*
X497000Y19000D01*
X528792D01*
X530312Y18312D01*
D02*
G37*
%LPC*%
G36*
X148670Y87540D02*
X136090D01*
Y83629D01*
X129000D01*
X127769Y83384D01*
X125322Y84040D01*
X122678D01*
X120125Y83356D01*
X117835Y82034D01*
X115966Y80165D01*
X114644Y77875D01*
X113960Y75322D01*
Y72678D01*
X114644Y70125D01*
X115966Y67835D01*
X117835Y65966D01*
X120125Y64644D01*
X122678Y63960D01*
X125322D01*
X127875Y64644D01*
X130165Y65966D01*
X132034Y67835D01*
X133356Y70125D01*
X133767Y71660D01*
X136090Y72460D01*
X136090Y72460D01*
X136090Y72460D01*
X148670D01*
Y87540D01*
D02*
G37*
G36*
Y66540D02*
X143650D01*
Y60270D01*
X148670D01*
Y66540D01*
D02*
G37*
G36*
X141110D02*
X136090D01*
Y60270D01*
X141110D01*
Y66540D01*
D02*
G37*
G36*
X122730Y61040D02*
X122678D01*
X120125Y60356D01*
X117835Y59034D01*
X115966Y57165D01*
X114644Y54875D01*
X113960Y52322D01*
Y52270D01*
X122730D01*
Y61040D01*
D02*
G37*
G36*
X125322D02*
X125270D01*
Y51000D01*
Y40960D01*
X125322D01*
X127875Y41644D01*
X130165Y42966D01*
X132034Y44835D01*
X133356Y47125D01*
X133550Y47849D01*
X136090Y47515D01*
Y44270D01*
X142380D01*
X148670D01*
Y48920D01*
X148670Y50540D01*
X148670Y53080D01*
Y57730D01*
X142380D01*
X136090D01*
Y54485D01*
X133550Y54151D01*
X133356Y54875D01*
X132034Y57165D01*
X130165Y59034D01*
X127875Y60356D01*
X125322Y61040D01*
D02*
G37*
G36*
X122730Y49730D02*
X113960D01*
Y49678D01*
X114644Y47125D01*
X115966Y44835D01*
X117835Y42966D01*
X120125Y41644D01*
X122678Y40960D01*
X122730D01*
Y49730D01*
D02*
G37*
G36*
X148670Y41730D02*
X143650D01*
Y35460D01*
X148670D01*
Y41730D01*
D02*
G37*
G36*
X141110D02*
X136090D01*
Y35460D01*
X141110D01*
Y41730D01*
D02*
G37*
G36*
X148400Y25090D02*
X135820D01*
Y21179D01*
X128730D01*
X127499Y20934D01*
X125052Y21590D01*
X122408D01*
X119855Y20906D01*
X117565Y19584D01*
X115696Y17715D01*
X114374Y15425D01*
X113690Y12872D01*
Y10228D01*
X114374Y7675D01*
X115696Y5385D01*
X117565Y3516D01*
X119855Y2194D01*
X122408Y1510D01*
X125052D01*
X127605Y2194D01*
X129895Y3516D01*
X131764Y5385D01*
X133086Y7675D01*
X133497Y9210D01*
X135820Y10010D01*
X135820Y10010D01*
X135820Y10010D01*
X148400D01*
Y25090D01*
D02*
G37*
G36*
Y4090D02*
X143380D01*
Y-2180D01*
X148400D01*
Y4090D01*
D02*
G37*
G36*
X140840D02*
X135820D01*
Y-2180D01*
X140840D01*
Y4090D01*
D02*
G37*
G36*
X122460Y-1410D02*
X122408D01*
X119855Y-2094D01*
X117565Y-3416D01*
X115696Y-5285D01*
X114374Y-7575D01*
X113690Y-10128D01*
Y-10180D01*
X122460D01*
Y-1410D01*
D02*
G37*
G36*
X125052D02*
X125000D01*
Y-11450D01*
Y-21490D01*
X125052D01*
X127605Y-20806D01*
X129895Y-19484D01*
X131764Y-17615D01*
X133086Y-15325D01*
X133280Y-14600D01*
X135820Y-14935D01*
Y-18180D01*
X142110D01*
X148400D01*
Y-13530D01*
X148400Y-11910D01*
X148400Y-9370D01*
Y-4720D01*
X142110D01*
X135820D01*
Y-7965D01*
X133280Y-8299D01*
X133086Y-7575D01*
X131764Y-5285D01*
X129895Y-3416D01*
X127605Y-2094D01*
X125052Y-1410D01*
D02*
G37*
G36*
X122460Y-12720D02*
X113690D01*
Y-12772D01*
X114374Y-15325D01*
X115696Y-17615D01*
X117565Y-19484D01*
X119855Y-20806D01*
X122408Y-21490D01*
X122460D01*
Y-12720D01*
D02*
G37*
G36*
X148400Y-20720D02*
X143380D01*
Y-26990D01*
X148400D01*
Y-20720D01*
D02*
G37*
G36*
X140840D02*
X135820D01*
Y-26990D01*
X140840D01*
Y-20720D01*
D02*
G37*
G36*
X148330Y-37910D02*
X135750D01*
Y-41821D01*
X128660D01*
X127429Y-42066D01*
X124982Y-41410D01*
X122338D01*
X119785Y-42094D01*
X117495Y-43416D01*
X115626Y-45285D01*
X114304Y-47575D01*
X113620Y-50128D01*
Y-52772D01*
X114304Y-55325D01*
X115626Y-57615D01*
X117495Y-59484D01*
X119785Y-60806D01*
X122338Y-61490D01*
X124982D01*
X127535Y-60806D01*
X129825Y-59484D01*
X131694Y-57615D01*
X133016Y-55325D01*
X133427Y-53790D01*
X135750Y-52990D01*
X135750Y-52990D01*
X135750Y-52990D01*
X148330D01*
Y-37910D01*
D02*
G37*
G36*
Y-58910D02*
X143310D01*
Y-65180D01*
X148330D01*
Y-58910D01*
D02*
G37*
G36*
X140770D02*
X135750D01*
Y-65180D01*
X140770D01*
Y-58910D01*
D02*
G37*
G36*
X122390Y-64410D02*
X122338D01*
X119785Y-65094D01*
X117495Y-66416D01*
X115626Y-68285D01*
X114304Y-70575D01*
X113620Y-73128D01*
Y-73180D01*
X122390D01*
Y-64410D01*
D02*
G37*
G36*
X124982D02*
X124930D01*
Y-74450D01*
Y-84490D01*
X124982D01*
X127535Y-83806D01*
X129825Y-82484D01*
X131694Y-80615D01*
X133016Y-78325D01*
X133210Y-77600D01*
X135750Y-77935D01*
Y-81180D01*
X142040D01*
X148330D01*
Y-76530D01*
X148330Y-74910D01*
X148330Y-72370D01*
Y-67720D01*
X142040D01*
X135750D01*
Y-70965D01*
X133210Y-71300D01*
X133016Y-70575D01*
X131694Y-68285D01*
X129825Y-66416D01*
X127535Y-65094D01*
X124982Y-64410D01*
D02*
G37*
G36*
X122390Y-75720D02*
X113620D01*
Y-75772D01*
X114304Y-78325D01*
X115626Y-80615D01*
X117495Y-82484D01*
X119785Y-83806D01*
X122338Y-84490D01*
X122390D01*
Y-75720D01*
D02*
G37*
G36*
X148330Y-83720D02*
X143310D01*
Y-89990D01*
X148330D01*
Y-83720D01*
D02*
G37*
G36*
X140770D02*
X135750D01*
Y-89990D01*
X140770D01*
Y-83720D01*
D02*
G37*
G36*
X462040Y46110D02*
X455770D01*
Y41090D01*
X462040D01*
Y46110D01*
D02*
G37*
G36*
X453230D02*
X446960D01*
Y41090D01*
X453230D01*
Y46110D01*
D02*
G37*
G36*
X444040Y46110D02*
X437770D01*
Y41090D01*
X444040D01*
Y46110D01*
D02*
G37*
G36*
X428540Y37670D02*
X413460D01*
Y35015D01*
X398890D01*
Y23935D01*
X413970D01*
Y25090D01*
X421230D01*
X422380Y24861D01*
X423530Y25090D01*
X428540D01*
Y25371D01*
X431340D01*
Y20460D01*
X443920D01*
Y35540D01*
X431340D01*
Y34629D01*
X428540D01*
Y37670D01*
D02*
G37*
G36*
X455270Y3170D02*
Y-1850D01*
X461540D01*
Y3170D01*
X455270D01*
D02*
G37*
G36*
X461540Y-4390D02*
X455270D01*
Y-9410D01*
X461540D01*
Y-4390D01*
D02*
G37*
G36*
X452350Y-17460D02*
X447330D01*
Y-23730D01*
X452350D01*
Y-17460D01*
D02*
G37*
G36*
X361670Y-36460D02*
X356650D01*
Y-42730D01*
X361670D01*
Y-36460D01*
D02*
G37*
G36*
X343540Y-19330D02*
X337270D01*
Y-24350D01*
X343540D01*
Y-19330D01*
D02*
G37*
G36*
X518290Y15390D02*
X510520D01*
Y7620D01*
X518290D01*
Y15390D01*
D02*
G37*
G36*
X507980D02*
X500210D01*
Y7620D01*
X507980D01*
Y15390D01*
D02*
G37*
G36*
X518290Y5080D02*
X510520D01*
Y-2690D01*
X518290D01*
Y5080D01*
D02*
G37*
G36*
X507980D02*
X500210D01*
Y-2690D01*
X507980D01*
Y5080D01*
D02*
G37*
%LPD*%
D11*
X630000Y-60000D02*
D03*
X20000Y60000D02*
D03*
D13*
X235380Y35000D02*
D03*
X250620D02*
D03*
X451620Y-72000D02*
D03*
X436380D02*
D03*
X451620Y-52000D02*
D03*
X436380D02*
D03*
X142110Y17550D02*
D03*
X157350D02*
D03*
Y-19450D02*
D03*
X142110D02*
D03*
X157350Y-3450D02*
D03*
X142110D02*
D03*
X142040Y-45450D02*
D03*
X157280D02*
D03*
Y-82450D02*
D03*
X142040D02*
D03*
X157280Y-66450D02*
D03*
X142040D02*
D03*
X370620Y-44000D02*
D03*
X355380D02*
D03*
X320870Y37000D02*
D03*
X336110D02*
D03*
X437630Y28000D02*
D03*
X452870D02*
D03*
X411620Y-72000D02*
D03*
X396380D02*
D03*
X370620Y-61000D02*
D03*
X355380D02*
D03*
X411620Y-52000D02*
D03*
X396380D02*
D03*
X320870Y5000D02*
D03*
X336110D02*
D03*
X271380Y98000D02*
D03*
X286620D02*
D03*
X320870Y98000D02*
D03*
X336110D02*
D03*
X142380Y59000D02*
D03*
X157620D02*
D03*
X268620Y-90000D02*
D03*
X253380D02*
D03*
X157620Y80000D02*
D03*
X142380D02*
D03*
X453620Y-25000D02*
D03*
X438380D02*
D03*
X320870Y21000D02*
D03*
X336110D02*
D03*
X320870Y53000D02*
D03*
X336110D02*
D03*
X378620D02*
D03*
X363380D02*
D03*
X378620Y25000D02*
D03*
X363380D02*
D03*
X417620Y-25000D02*
D03*
X402380D02*
D03*
X142380Y43000D02*
D03*
X157620D02*
D03*
D14*
X336000Y-10380D02*
D03*
Y-25620D02*
D03*
X239000Y-10380D02*
D03*
Y-27620D02*
D03*
X226000Y-10380D02*
D03*
Y-27620D02*
D03*
X454500Y62620D02*
D03*
Y47380D02*
D03*
X436500Y62620D02*
D03*
Y47380D02*
D03*
X421000Y31380D02*
D03*
Y46620D02*
D03*
X418000Y7620D02*
D03*
Y-7620D02*
D03*
X358000Y-24620D02*
D03*
Y-9380D02*
D03*
X454000Y-3120D02*
D03*
Y12120D02*
D03*
X256490Y78620D02*
D03*
Y63380D02*
D03*
X320490Y82620D02*
D03*
Y67380D02*
D03*
X335490Y82620D02*
D03*
Y67380D02*
D03*
D19*
X308430Y-9475D02*
D03*
X285570Y-19000D02*
D03*
X308430Y-28525D02*
D03*
X383570Y39000D02*
D03*
X406430Y48525D02*
D03*
Y29475D02*
D03*
D20*
X274790Y62475D02*
D03*
X274790Y72000D02*
D03*
Y81525D02*
D03*
X300190Y81525D02*
D03*
Y72000D02*
D03*
Y62475D02*
D03*
X377300Y-9525D02*
D03*
Y9525D02*
D03*
X402700D02*
D03*
Y0D02*
D03*
Y-9525D02*
D03*
D39*
X378620Y-36000D02*
G03*
X370620Y-44000I0J-8000D01*
G01*
X474619Y-36000D02*
G03*
X483750Y-31669I-0J11790D01*
G01*
X271380Y81525D02*
Y98000D01*
Y81525D02*
X274790D01*
X203598Y-33598D02*
Y-24402D01*
X209000Y-19000D02*
X215962D01*
X203598Y-24402D02*
X209000Y-19000D01*
X215962D02*
Y-1000D01*
X188889Y35000D02*
X195389D01*
X215962Y-1000D02*
X221000Y4038D01*
Y16000D01*
X213000Y24000D02*
X221000Y16000D01*
X199000Y24000D02*
X213000D01*
X195000Y28000D02*
X199000Y24000D01*
X195000Y28000D02*
Y34475D01*
X242000Y1491D02*
Y13000D01*
X227000Y28000D02*
X242000Y13000D01*
X217000Y28000D02*
X227000D01*
X210525Y34475D02*
X217000Y28000D01*
X201500Y34475D02*
X210525D01*
X215962Y-19000D02*
X285570D01*
X242000Y24000D02*
Y26000D01*
Y1491D02*
X245952Y-2461D01*
X314000Y-19000D02*
X320870Y-12130D01*
Y5000D01*
X308430Y-28525D02*
Y-24570D01*
X314000Y-19000D01*
X233810Y34190D02*
X242000Y26000D01*
X195088Y53000D02*
X201588D01*
X196000Y-28500D02*
Y-13000D01*
X239000Y-11380D02*
X247000Y-3380D01*
X251380Y-89000D02*
X253380Y-87000D01*
X451620Y-54000D02*
X499700D01*
X378620Y-36000D02*
X474619D01*
X370620Y-61000D02*
Y-44000D01*
X226000Y-27620D02*
Y-26620D01*
Y-62000D02*
Y-27620D01*
X239000D02*
Y-26620D01*
Y-54000D02*
Y-27620D01*
X234000Y-59000D02*
X246000Y-71000D01*
X331000D01*
X296000Y-8570D02*
Y-5000D01*
X285570Y-19000D02*
X296000Y-8570D01*
X451620Y-72000D02*
X507000D01*
X523000Y-56000D01*
Y-32800D01*
X509250Y-19050D02*
X523000Y-32800D01*
X499700Y-54000D02*
X509250Y-44450D01*
X441620Y-62000D02*
X451620Y-72000D01*
X411620D02*
X421620Y-62000D01*
X451620Y-52000D02*
Y-51620D01*
Y-54000D02*
Y-52000D01*
X442000Y-42000D02*
X451620Y-51620D01*
X411620Y-52000D02*
X421620Y-42000D01*
X442000D01*
X220025Y35000D02*
X235380D01*
X201500Y53525D02*
X220025Y35000D01*
X233000Y-69000D02*
X242087Y-78087D01*
X245952Y-2461D02*
X246081D01*
X247000Y-3380D01*
X352380Y-64000D02*
X355380Y-61000D01*
X338000Y-64000D02*
X352380D01*
X331000Y-71000D02*
X338000Y-64000D01*
X279620Y-86849D02*
X332151D01*
X340555Y-70445D02*
X377935D01*
X332912Y-78087D02*
X340555Y-70445D01*
X332151Y-86849D02*
X343000Y-76000D01*
X392380D01*
X242087Y-78087D02*
X332912D01*
X203000Y-51025D02*
X240975Y-89000D01*
X251380D01*
X268620D02*
X270771Y-86849D01*
X279620D01*
X193475Y-41500D02*
X200500D01*
X203000Y-44000D01*
Y-51025D02*
Y-44000D01*
X377935Y-70445D02*
X396380Y-52000D01*
X392380Y-76000D02*
X396380Y-72000D01*
X186610Y-41500D02*
X193475D01*
X226000Y-62000D02*
X232000Y-68000D01*
X234000Y-59000D02*
X239000Y-54000D01*
X179230Y17050D02*
Y38230D01*
X203598Y-33598D02*
X205000Y-35000D01*
X212525Y-40465D02*
Y-35000D01*
X205000D02*
X212525D01*
X193475D02*
Y-28500D01*
X419095Y29475D02*
X421000Y31380D01*
X406430Y29475D02*
X419095D01*
X179230Y38230D02*
X185000Y44000D01*
X199000D01*
X201500Y41500D01*
Y34475D02*
Y41500D01*
X180660Y-47450D02*
X186610Y-41500D01*
X421620Y-62000D02*
X441620D01*
D40*
X170730Y8050D02*
D03*
Y19050D02*
D03*
X170660Y-54950D02*
D03*
Y-43950D02*
D03*
X171000Y81500D02*
D03*
Y70500D02*
D03*
D41*
X212525Y-41500D02*
D03*
Y-35000D02*
D03*
Y-28500D02*
D03*
X193475D02*
D03*
Y-35000D02*
D03*
Y-41500D02*
D03*
D42*
X188500Y34475D02*
D03*
X195000D02*
D03*
X201500D02*
D03*
Y53525D02*
D03*
X195000D02*
D03*
X188500D02*
D03*
D43*
X436000Y-11160D02*
D03*
Y9160D02*
D03*
D44*
X299000Y11490D02*
D03*
Y44510D02*
D03*
D45*
X603250Y-77500D02*
Y77500D01*
D46*
X320490Y68000D02*
X334870D01*
X286620Y95095D02*
Y98000D01*
Y95095D02*
X300190Y81525D01*
X311490Y68000D02*
X320490D01*
X144000Y69000D02*
X171000D01*
X143730Y6550D02*
X170730D01*
X143660Y-56450D02*
X170660D01*
X157620Y80000D02*
X171000D01*
X157350Y17550D02*
X170730D01*
X157280Y-45450D02*
X170660D01*
X129000Y79000D02*
X142380D01*
X128730Y16550D02*
X142110D01*
X128660Y-46450D02*
X142040D01*
X300190Y45700D02*
X307490Y53000D01*
X299000Y44510D02*
X300190Y45700D01*
X307490Y53000D02*
X320870D01*
X300190Y45700D02*
Y62475D01*
X308430Y-9475D02*
Y8560D01*
X314870Y15000D01*
X336000Y4890D02*
X336110Y5000D01*
X336000Y-10380D02*
Y4890D01*
X177730Y18550D02*
X180730Y15550D01*
X363380Y53000D02*
Y54380D01*
X372000Y63000D01*
X391955D01*
X406430Y48525D01*
X419095D01*
X421000Y46620D01*
X363380Y25000D02*
Y53000D01*
Y4620D02*
Y25000D01*
Y4620D02*
X367000Y1000D01*
X372000D01*
X377300Y-4300D01*
Y-9525D02*
Y-4300D01*
X402700Y9525D02*
X416095D01*
X418000Y7620D01*
X422380Y30000D02*
X435630D01*
X180730Y2550D02*
Y15550D01*
X170730Y6550D02*
Y8050D01*
X142110Y4930D02*
X143730Y6550D01*
X426000Y-72000D02*
X436380D01*
X426000Y-52000D02*
X436380D01*
X123660Y-51450D02*
X128660Y-46450D01*
X170660Y-45450D02*
Y-43950D01*
X171160Y-44450D01*
X142040Y-82450D02*
Y-66450D01*
X131660D02*
X142040D01*
X123660Y-74450D02*
X131660Y-66450D01*
X170660Y-56450D02*
Y-54950D01*
X142040Y-58070D02*
X143660Y-56450D01*
X142040Y-66450D02*
Y-58070D01*
X171160Y-44450D02*
X177660D01*
X180660Y-47450D01*
Y-60450D02*
Y-47450D01*
X177660Y-63450D02*
X180660Y-60450D01*
X172660Y-63450D02*
X177660D01*
X169660Y-66450D02*
X172660Y-63450D01*
X157280Y-66450D02*
X169660D01*
X157280Y-82450D02*
Y-66450D01*
X123730Y11550D02*
X128730Y16550D01*
X170730Y17550D02*
Y19050D01*
X171230Y18550D01*
X142110Y-3450D02*
X142110Y-19450D01*
X131730Y-3450D02*
X142110Y-3450D01*
X123730Y-11450D02*
X131730Y-3450D01*
X142110Y-3450D02*
Y4930D01*
X171230Y18550D02*
X177730D01*
X177730Y-450D02*
X180730Y2550D01*
X172730Y-450D02*
X177730D01*
X169730Y-3450D02*
X172730Y-450D01*
X157350Y-3450D02*
X169730D01*
X157350Y-19450D02*
Y-3450D01*
X171000Y81500D02*
X171500Y81000D01*
X178000D01*
X181000Y78000D01*
Y65000D02*
Y78000D01*
X178000Y62000D02*
X181000Y65000D01*
X173000Y62000D02*
X178000D01*
X171000Y80000D02*
Y81500D01*
Y69000D02*
Y70500D01*
X157620Y43000D02*
Y59000D01*
X142380Y43000D02*
Y59000D01*
Y67380D02*
X144000Y69000D01*
X142380Y59000D02*
Y67380D01*
X132000Y59000D02*
X142380D01*
X124000Y51000D02*
X132000Y59000D01*
X157620D02*
X170000D01*
X173000Y62000D01*
X124000Y74000D02*
X129000Y79000D01*
X299715Y62000D02*
X300190Y62475D01*
X314870Y15000D02*
X320870Y21000D01*
Y37000D01*
X336110Y5000D02*
Y21000D01*
Y37000D01*
Y53000D01*
X336110Y66760D01*
X335490Y67380D02*
X336110Y66760D01*
X334870Y68000D02*
X335490Y67380D01*
X307490Y72000D02*
X311490Y68000D01*
X300190Y72000D02*
X307490D01*
X256490Y63380D02*
X273885D01*
X274790Y62475D01*
X256490Y78620D02*
X263110Y72000D01*
X274790Y72000D01*
X320490Y82620D02*
X320870Y83000D01*
Y98000D01*
X320490Y82620D02*
X335490D01*
X319395Y81525D02*
X320490Y82620D01*
X300190Y81525D02*
X319395D01*
D47*
X180000Y51000D02*
X182525Y53525D01*
X188500D01*
X227000Y-11380D02*
Y111D01*
X234039Y7150D01*
X188500Y53525D02*
Y57500D01*
X181000Y65000D02*
X188500Y57500D01*
D48*
X436000Y11160D02*
X453040D01*
X375000Y-25000D02*
X402380D01*
X352380Y-9380D02*
X358000D01*
X348000Y-5000D02*
X352380Y-9380D01*
X358000D02*
X359380D01*
X375000Y-25000D01*
X235000Y35380D02*
X235380Y35000D01*
X235000Y35380D02*
Y77000D01*
X348000Y59000D02*
Y88620D01*
Y-5000D02*
Y59000D01*
X421000Y31380D02*
X422380Y30000D01*
X435630D02*
X437630Y28000D01*
X452870D02*
X458000D01*
X461750Y31750D01*
X509250D01*
X454000Y12120D02*
X476920D01*
X483850Y19050D01*
X453040Y11160D02*
X454000Y12120D01*
X482780Y43380D02*
X483850Y44450D01*
X338620Y98000D02*
X348000Y88620D01*
X402380Y-9845D02*
X402700Y-9525D01*
X402380Y-25000D02*
Y-9845D01*
X402700Y-9525D02*
X410475D01*
X412380Y-7620D01*
X418000D01*
X434460D01*
X438380Y-11540D01*
Y-25000D02*
Y-11540D01*
D49*
X417620Y-25000D02*
X427000D01*
X436000Y63120D02*
X436500Y62620D01*
X436000Y63120D02*
Y73000D01*
X454500Y62620D02*
X462380D01*
X466000Y59000D01*
X250620Y35000D02*
Y42380D01*
X244000Y49000D02*
X250620Y42380D01*
X244000Y49000D02*
Y71000D01*
D50*
X123730Y11550D02*
D03*
X123730Y-11450D02*
D03*
X123660Y-51450D02*
D03*
Y-74450D02*
D03*
X124000Y51000D02*
D03*
Y74000D02*
D03*
D51*
X572750Y-57150D02*
D03*
Y57150D02*
D03*
D52*
X603250Y77500D02*
D03*
Y-77500D02*
D03*
D53*
X509250Y-44450D02*
D03*
X483850Y-31750D02*
D03*
X509250Y-19050D02*
D03*
X483850Y-6350D02*
D03*
X509250Y6350D02*
D03*
X483850Y19050D02*
D03*
X509250Y31750D02*
D03*
X483850Y44450D02*
D03*
D54*
X96000Y96000D02*
D03*
D55*
X603000Y6000D02*
D03*
X180000Y51000D02*
D03*
X242000Y24000D02*
D03*
X311000Y28000D02*
D03*
X253000Y54000D02*
D03*
X186000Y90000D02*
D03*
X528000Y16000D02*
D03*
X347000Y-84000D02*
D03*
X114000Y90000D02*
D03*
X246121Y-39207D02*
D03*
X345000Y-32000D02*
D03*
X296000Y-5000D02*
D03*
X222000Y90000D02*
D03*
X114000Y32000D02*
D03*
Y-31000D02*
D03*
Y-104000D02*
D03*
X162000D02*
D03*
X207000D02*
D03*
X251000D02*
D03*
X528000Y-23000D02*
D03*
X524000Y-73000D02*
D03*
X467000Y-64000D02*
D03*
Y-45000D02*
D03*
X384000Y-50000D02*
D03*
X333000Y-37000D02*
D03*
X261000Y1000D02*
D03*
X196000Y2000D02*
D03*
X244000Y71000D02*
D03*
X240975Y-89000D02*
D03*
X245952Y-2461D02*
D03*
X235000Y77000D02*
D03*
X348000Y59000D02*
D03*
X233000Y-69000D02*
D03*
X343000Y-102000D02*
D03*
X200000Y-59000D02*
D03*
X171000Y-76000D02*
D03*
X169000Y51000D02*
D03*
X272000Y-60000D02*
D03*
X279620Y-86849D02*
D03*
X209000Y62000D02*
D03*
X312000Y-61000D02*
D03*
X299000Y-104000D02*
D03*
X234000Y-59000D02*
D03*
X436000Y73000D02*
D03*
X466000Y59000D02*
D03*
X357000Y63000D02*
D03*
Y0D02*
D03*
X389000D02*
D03*
Y25000D02*
D03*
Y52000D02*
D03*
X464000Y-4000D02*
D03*
Y-25000D02*
D03*
X427000D02*
D03*
X234039Y7150D02*
D03*
X196000Y-13000D02*
D03*
X187000Y-21000D02*
D03*
X426000Y-52000D02*
D03*
Y-72000D02*
D03*
M02*
