G04*
G04 #@! TF.GenerationSoftware,Altium Limited,Altium Designer,24.10.1 (45)*
G04*
G04 Layer_Color=8421504*
%FSLAX44Y44*%
%MOMM*%
G71*
G04*
G04 #@! TF.SameCoordinates,FD984B7A-8438-4C43-BE95-A6A47EEA4E16*
G04*
G04*
G04 #@! TF.FilePolarity,Positive*
G04*
G01*
G75*
%ADD12R,0.9000X0.6500*%
%ADD13R,3.1000X0.7600*%
%ADD14R,0.7500X1.0000*%
%ADD15R,0.8300X0.5300*%
%ADD16R,1.5000X1.5000*%
%ADD17R,0.6500X0.9000*%
%ADD18R,1.0000X0.7500*%
%ADD19R,0.8100X0.3100*%
%ADD20R,0.3100X0.8100*%
%ADD21R,1.0800X0.8800*%
%ADD22R,1.0000X0.6000*%
%ADD23R,1.1000X0.6000*%
%ADD24R,2.2900X1.0900*%
D12*
X453000Y47380D02*
D03*
Y62620D02*
D03*
D13*
X478000Y-44450D02*
D03*
Y-31750D02*
D03*
Y44450D02*
D03*
Y31750D02*
D03*
Y19050D02*
D03*
Y-6350D02*
D03*
Y-19050D02*
D03*
Y6350D02*
D03*
D14*
X157620Y38000D02*
D03*
X142380D02*
D03*
Y75000D02*
D03*
X157620D02*
D03*
Y54000D02*
D03*
X142380D02*
D03*
X190918Y-69586D02*
D03*
X175678D02*
D03*
X231380Y42000D02*
D03*
X246620D02*
D03*
X451620Y-72000D02*
D03*
X436380D02*
D03*
X451620Y-52000D02*
D03*
X436380D02*
D03*
X142110Y17550D02*
D03*
X157350D02*
D03*
Y-19450D02*
D03*
X142110D02*
D03*
X157350Y-3450D02*
D03*
X142110D02*
D03*
X142040Y-45450D02*
D03*
X157280D02*
D03*
Y-66450D02*
D03*
X142040D02*
D03*
X294620Y-49000D02*
D03*
X279380D02*
D03*
X321380Y8490D02*
D03*
X336620D02*
D03*
X437630Y28000D02*
D03*
X452870D02*
D03*
X411620Y-72000D02*
D03*
X396380D02*
D03*
X294620Y-62000D02*
D03*
X279380D02*
D03*
X411620Y-52000D02*
D03*
X396380D02*
D03*
X321380Y-26000D02*
D03*
X336620D02*
D03*
X344620Y75000D02*
D03*
X329380D02*
D03*
X330380Y60000D02*
D03*
X345620D02*
D03*
X262620Y-76000D02*
D03*
X247380D02*
D03*
X453620Y-25000D02*
D03*
X438380D02*
D03*
X321380Y-7510D02*
D03*
X336620D02*
D03*
X321380Y23000D02*
D03*
X336620D02*
D03*
X379922Y52952D02*
D03*
X364682D02*
D03*
X336620Y44000D02*
D03*
X321380D02*
D03*
X378620Y25000D02*
D03*
X363380D02*
D03*
X417620Y-25000D02*
D03*
X402380D02*
D03*
D15*
X171000Y65500D02*
D03*
Y76500D02*
D03*
X170660Y-43950D02*
D03*
Y-54950D02*
D03*
X170730Y8050D02*
D03*
Y19050D02*
D03*
D16*
X630000Y-60000D02*
D03*
X10000Y60000D02*
D03*
D17*
X342380Y-40000D02*
D03*
X357620D02*
D03*
D18*
X239000Y-10380D02*
D03*
Y-27620D02*
D03*
X226000Y-10380D02*
D03*
Y-27620D02*
D03*
X436500Y62620D02*
D03*
Y47380D02*
D03*
X421000Y31380D02*
D03*
Y46620D02*
D03*
X418000Y7620D02*
D03*
Y-7620D02*
D03*
X358000Y-24620D02*
D03*
Y-9380D02*
D03*
X454000Y-3120D02*
D03*
Y12120D02*
D03*
X256490Y78620D02*
D03*
Y63380D02*
D03*
X316000Y80620D02*
D03*
Y65380D02*
D03*
D19*
X212525Y-41500D02*
D03*
Y-35000D02*
D03*
Y-28500D02*
D03*
X193475D02*
D03*
Y-35000D02*
D03*
Y-41500D02*
D03*
D20*
X188500Y34475D02*
D03*
X195000D02*
D03*
X201500D02*
D03*
Y53525D02*
D03*
X195000D02*
D03*
X188500D02*
D03*
D21*
X436000Y-11160D02*
D03*
Y9160D02*
D03*
D22*
X306430Y-9475D02*
D03*
X283570Y-19000D02*
D03*
X306430Y-28525D02*
D03*
X383570Y39000D02*
D03*
X406430Y48525D02*
D03*
Y29475D02*
D03*
D23*
X274790Y61475D02*
D03*
X274790Y71000D02*
D03*
Y80525D02*
D03*
X300190Y80525D02*
D03*
Y71000D02*
D03*
Y61475D02*
D03*
X377300Y-9525D02*
D03*
Y9525D02*
D03*
X402700D02*
D03*
Y0D02*
D03*
Y-9525D02*
D03*
D24*
X299000Y11490D02*
D03*
Y44510D02*
D03*
M02*
