G04*
G04 #@! TF.GenerationSoftware,Altium Limited,Altium Designer,24.10.1 (45)*
G04*
G04 Layer_Color=33789*
%FSLAX44Y44*%
%MOMM*%
G71*
G04*
G04 #@! TF.SameCoordinates,4BF9AD32-D27A-42C2-B849-32530D397306*
G04*
G04*
G04 #@! TF.FilePolarity,Positive*
G04*
G01*
G75*
%ADD10C,0.1500*%
%ADD42C,0.3000*%
%ADD62C,0.1250*%
D10*
X285000Y-26000D02*
X288000Y-23000D01*
X294000D01*
X208000Y-22000D02*
Y-17000D01*
X24497Y-13663D02*
X14500D01*
Y-8665D01*
X16166Y-6998D01*
X17832D01*
X19498Y-8665D01*
Y-13663D01*
Y-8665D01*
X21165Y-6998D01*
X22831D01*
X24497Y-8665D01*
Y-13663D01*
X14500Y-2000D02*
Y1332D01*
X16166Y2998D01*
X19498D01*
X21165Y1332D01*
Y-2000D01*
X19498Y-3666D01*
X16166D01*
X14500Y-2000D01*
X22831Y7997D02*
X21165D01*
Y6331D01*
Y9663D01*
Y7997D01*
X16166D01*
X14500Y9663D01*
X31500Y-30823D02*
X41497D01*
X38165Y-27491D01*
X41497Y-24159D01*
X31500D01*
X41497Y-20827D02*
Y-14162D01*
X39831D01*
X33166Y-20827D01*
X31500D01*
Y-5831D02*
X41497D01*
X36498Y-10830D01*
Y-4165D01*
X31500Y-833D02*
X41497D01*
Y4165D01*
X39831Y5832D01*
X36498D01*
X34832Y4165D01*
Y-833D01*
Y2499D02*
X31500Y5832D01*
X39831Y9164D02*
X41497Y10830D01*
Y14162D01*
X39831Y15828D01*
X38165D01*
X36498Y14162D01*
Y12496D01*
Y14162D01*
X34832Y15828D01*
X33166D01*
X31500Y14162D01*
Y10830D01*
X33166Y9164D01*
X31500Y19160D02*
X33166D01*
Y20827D01*
X31500D01*
Y19160D01*
Y27491D02*
Y30823D01*
Y29157D01*
X41497D01*
X39831Y27491D01*
X163663Y-58999D02*
Y-51001D01*
X159664D01*
X158332Y-52334D01*
Y-55000D01*
X159664Y-56333D01*
X163663D01*
X160997D02*
X158332Y-58999D01*
X155666Y-52334D02*
X154333Y-51001D01*
X151667D01*
X150334Y-52334D01*
Y-53667D01*
X151667Y-55000D01*
X153000D01*
X151667D01*
X150334Y-56333D01*
Y-57666D01*
X151667Y-58999D01*
X154333D01*
X155666Y-57666D01*
X142337Y-51001D02*
X147668D01*
Y-55000D01*
X145003Y-53667D01*
X143670D01*
X142337Y-55000D01*
Y-57666D01*
X143670Y-58999D01*
X146335D01*
X147668Y-57666D01*
X163663Y-1999D02*
Y5999D01*
X159664D01*
X158332Y4666D01*
Y2000D01*
X159664Y667D01*
X163663D01*
X160997D02*
X158332Y-1999D01*
X155666Y4666D02*
X154333Y5999D01*
X151667D01*
X150334Y4666D01*
Y3333D01*
X151667Y2000D01*
X153000D01*
X151667D01*
X150334Y667D01*
Y-666D01*
X151667Y-1999D01*
X154333D01*
X155666Y-666D01*
X143670Y-1999D02*
Y5999D01*
X147668Y2000D01*
X142337D01*
X163663Y50001D02*
Y57999D01*
X159664D01*
X158332Y56666D01*
Y54000D01*
X159664Y52667D01*
X163663D01*
X160997D02*
X158332Y50001D01*
X155666Y56666D02*
X154333Y57999D01*
X151667D01*
X150334Y56666D01*
Y55333D01*
X151667Y54000D01*
X153000D01*
X151667D01*
X150334Y52667D01*
Y51334D01*
X151667Y50001D01*
X154333D01*
X155666Y51334D01*
X147668Y56666D02*
X146335Y57999D01*
X143670D01*
X142337Y56666D01*
Y55333D01*
X143670Y54000D01*
X145003D01*
X143670D01*
X142337Y52667D01*
Y51334D01*
X143670Y50001D01*
X146335D01*
X147668Y51334D01*
X192000Y-1998D02*
Y6000D01*
Y-1998D02*
X197332Y6000D01*
Y-1998D02*
Y6000D01*
X199922Y-94D02*
Y-475D01*
X200303Y-1237D01*
X200684Y-1617D01*
X201446Y-1998D01*
X202969D01*
X203731Y-1617D01*
X204112Y-1237D01*
X204493Y-475D01*
Y287D01*
X204112Y1049D01*
X203350Y2191D01*
X199541Y6000D01*
X204874D01*
X220000Y58002D02*
Y66000D01*
Y58002D02*
X223428D01*
X224570Y58383D01*
X224951Y58763D01*
X225332Y59525D01*
Y60287D01*
X224951Y61049D01*
X224570Y61430D01*
X223428Y61810D01*
X220000D01*
X222666D02*
X225332Y66000D01*
X231693Y59144D02*
X231312Y58383D01*
X230169Y58002D01*
X229408D01*
X228265Y58383D01*
X227503Y59525D01*
X227122Y61430D01*
Y63334D01*
X227503Y64857D01*
X228265Y65619D01*
X229408Y66000D01*
X229788D01*
X230931Y65619D01*
X231693Y64857D01*
X232074Y63715D01*
Y63334D01*
X231693Y62191D01*
X230931Y61430D01*
X229788Y61049D01*
X229408D01*
X228265Y61430D01*
X227503Y62191D01*
X227122Y63334D01*
X194998Y59000D02*
X187000D01*
X194998D02*
Y62428D01*
X194617Y63570D01*
X194237Y63951D01*
X193475Y64332D01*
X192713D01*
X191951Y63951D01*
X191570Y63570D01*
X191190Y62428D01*
Y59000D01*
Y61666D02*
X187000Y64332D01*
X194998Y70693D02*
Y66884D01*
X191570Y66503D01*
X191951Y66884D01*
X192332Y68027D01*
Y69169D01*
X191951Y70312D01*
X191190Y71074D01*
X190047Y71455D01*
X189285D01*
X188143Y71074D01*
X187381Y70312D01*
X187000Y69169D01*
Y68027D01*
X187381Y66884D01*
X187762Y66503D01*
X188524Y66122D01*
X207998Y59000D02*
X200000D01*
X207998D02*
Y62428D01*
X207617Y63570D01*
X207237Y63951D01*
X206475Y64332D01*
X205713D01*
X204951Y63951D01*
X204571Y63570D01*
X204190Y62428D01*
Y59000D01*
Y61666D02*
X200000Y64332D01*
X207998Y69931D02*
X202666Y66122D01*
Y71835D01*
X207998Y69931D02*
X200000D01*
X276998Y58000D02*
X269000D01*
X276998D02*
Y61428D01*
X276617Y62571D01*
X276237Y62951D01*
X275475Y63332D01*
X274713D01*
X273951Y62951D01*
X273570Y62571D01*
X273190Y61428D01*
Y58000D01*
Y60666D02*
X269000Y63332D01*
X275094Y65503D02*
X275475D01*
X276237Y65884D01*
X276617Y66265D01*
X276998Y67027D01*
Y68550D01*
X276617Y69312D01*
X276237Y69693D01*
X275475Y70074D01*
X274713D01*
X273951Y69693D01*
X272809Y68931D01*
X269000Y65122D01*
Y70455D01*
X276998Y76815D02*
Y73006D01*
X273570Y72625D01*
X273951Y73006D01*
X274332Y74149D01*
Y75292D01*
X273951Y76434D01*
X273190Y77196D01*
X272047Y77577D01*
X271285D01*
X270143Y77196D01*
X269381Y76434D01*
X269000Y75292D01*
Y74149D01*
X269381Y73006D01*
X269762Y72625D01*
X270523Y72245D01*
X321000Y15002D02*
Y23000D01*
Y15002D02*
X324428D01*
X325570Y15383D01*
X325951Y15763D01*
X326332Y16525D01*
Y17287D01*
X325951Y18049D01*
X325570Y18430D01*
X324428Y18810D01*
X321000D01*
X323666D02*
X326332Y23000D01*
X328503Y16906D02*
Y16525D01*
X328884Y15763D01*
X329265Y15383D01*
X330027Y15002D01*
X331550D01*
X332312Y15383D01*
X332693Y15763D01*
X333074Y16525D01*
Y17287D01*
X332693Y18049D01*
X331931Y19191D01*
X328122Y23000D01*
X333455D01*
X339053Y15002D02*
X335245Y20334D01*
X340958D01*
X339053Y15002D02*
Y23000D01*
X309998Y-76000D02*
X302000D01*
X309998D02*
Y-72572D01*
X309617Y-71430D01*
X309237Y-71049D01*
X308475Y-70668D01*
X307713D01*
X306951Y-71049D01*
X306570Y-71430D01*
X306190Y-72572D01*
Y-76000D01*
Y-73334D02*
X302000Y-70668D01*
X308475Y-68878D02*
X308856Y-68116D01*
X309998Y-66973D01*
X302000D01*
X309998Y-61108D02*
X309617Y-62250D01*
X308856Y-62631D01*
X308094D01*
X307332Y-62250D01*
X306951Y-61489D01*
X306570Y-59965D01*
X306190Y-58823D01*
X305428Y-58061D01*
X304666Y-57680D01*
X303524D01*
X302762Y-58061D01*
X302381Y-58442D01*
X302000Y-59584D01*
Y-61108D01*
X302381Y-62250D01*
X302762Y-62631D01*
X303524Y-63012D01*
X304666D01*
X305428Y-62631D01*
X306190Y-61870D01*
X306570Y-60727D01*
X306951Y-59204D01*
X307332Y-58442D01*
X308094Y-58061D01*
X308856D01*
X309617Y-58442D01*
X309998Y-59584D01*
Y-61108D01*
X323998Y-76000D02*
X316000D01*
X323998D02*
Y-72572D01*
X323617Y-71430D01*
X323237Y-71049D01*
X322475Y-70668D01*
X321713D01*
X320951Y-71049D01*
X320570Y-71430D01*
X320190Y-72572D01*
Y-76000D01*
Y-73334D02*
X316000Y-70668D01*
X322475Y-68878D02*
X322856Y-68116D01*
X323998Y-66973D01*
X316000D01*
X323998Y-57680D02*
X316000Y-61489D01*
X323998Y-63012D02*
Y-57680D01*
X297000Y-25998D02*
Y-18000D01*
Y-25998D02*
X300428D01*
X301570Y-25617D01*
X301951Y-25237D01*
X302332Y-24475D01*
Y-23713D01*
X301951Y-22951D01*
X301570Y-22570D01*
X300428Y-22190D01*
X297000D01*
X299666D02*
X302332Y-18000D01*
X304122Y-24475D02*
X304884Y-24856D01*
X306027Y-25998D01*
Y-18000D01*
X314558Y-24856D02*
X314177Y-25617D01*
X313035Y-25998D01*
X312273D01*
X311130Y-25617D01*
X310369Y-24475D01*
X309988Y-22570D01*
Y-20666D01*
X310369Y-19143D01*
X311130Y-18381D01*
X312273Y-18000D01*
X312654D01*
X313796Y-18381D01*
X314558Y-19143D01*
X314939Y-20285D01*
Y-20666D01*
X314558Y-21809D01*
X313796Y-22570D01*
X312654Y-22951D01*
X312273D01*
X311130Y-22570D01*
X310369Y-21809D01*
X309988Y-20666D01*
X217000Y-65998D02*
Y-58000D01*
Y-65998D02*
X220428D01*
X221570Y-65617D01*
X221951Y-65237D01*
X222332Y-64475D01*
Y-63713D01*
X221951Y-62951D01*
X221570Y-62571D01*
X220428Y-62190D01*
X217000D01*
X219666D02*
X222332Y-58000D01*
X224122Y-64475D02*
X224884Y-64856D01*
X226027Y-65998D01*
Y-58000D01*
X230369Y-64094D02*
Y-64475D01*
X230749Y-65237D01*
X231130Y-65617D01*
X231892Y-65998D01*
X233416D01*
X234177Y-65617D01*
X234558Y-65237D01*
X234939Y-64475D01*
Y-63713D01*
X234558Y-62951D01*
X233796Y-61809D01*
X229988Y-58000D01*
X235320D01*
X194998Y-71000D02*
X187000D01*
X194998D02*
Y-67572D01*
X194617Y-66430D01*
X194237Y-66049D01*
X193475Y-65668D01*
X192713D01*
X191951Y-66049D01*
X191570Y-66430D01*
X191190Y-67572D01*
Y-71000D01*
Y-68334D02*
X187000Y-65668D01*
X193475Y-63878D02*
X193856Y-63116D01*
X194998Y-61973D01*
X187000D01*
X193475Y-58012D02*
X193856Y-57251D01*
X194998Y-56108D01*
X187000D01*
X241000Y-34998D02*
Y-27000D01*
Y-34998D02*
X244428D01*
X245571Y-34617D01*
X245951Y-34237D01*
X246332Y-33475D01*
Y-32713D01*
X245951Y-31951D01*
X245571Y-31570D01*
X244428Y-31190D01*
X241000D01*
X243666D02*
X246332Y-27000D01*
X248122Y-33475D02*
X248884Y-33856D01*
X250027Y-34998D01*
Y-27000D01*
X256273Y-34998D02*
X255130Y-34617D01*
X254369Y-33475D01*
X253988Y-31570D01*
Y-30428D01*
X254369Y-28523D01*
X255130Y-27381D01*
X256273Y-27000D01*
X257035D01*
X258177Y-27381D01*
X258939Y-28523D01*
X259320Y-30428D01*
Y-31570D01*
X258939Y-33475D01*
X258177Y-34617D01*
X257035Y-34998D01*
X256273D01*
X280713Y-63094D02*
X280332Y-63856D01*
X279571Y-64617D01*
X278809Y-64998D01*
X277285D01*
X276523Y-64617D01*
X275762Y-63856D01*
X275381Y-63094D01*
X275000Y-61951D01*
Y-60047D01*
X275381Y-58904D01*
X275762Y-58143D01*
X276523Y-57381D01*
X277285Y-57000D01*
X278809D01*
X279571Y-57381D01*
X280332Y-58143D01*
X280713Y-58904D01*
X287531Y-64998D02*
X283722D01*
X283341Y-61570D01*
X283722Y-61951D01*
X284865Y-62332D01*
X286007D01*
X287150Y-61951D01*
X287911Y-61190D01*
X288292Y-60047D01*
Y-59285D01*
X287911Y-58143D01*
X287150Y-57381D01*
X286007Y-57000D01*
X284865D01*
X283722Y-57381D01*
X283341Y-57762D01*
X282960Y-58524D01*
X207094Y-64287D02*
X207856Y-64668D01*
X208617Y-65430D01*
X208998Y-66191D01*
Y-67715D01*
X208617Y-68477D01*
X207856Y-69238D01*
X207094Y-69619D01*
X205951Y-70000D01*
X204047D01*
X202904Y-69619D01*
X202143Y-69238D01*
X201381Y-68477D01*
X201000Y-67715D01*
Y-66191D01*
X201381Y-65430D01*
X202143Y-64668D01*
X202904Y-64287D01*
X208998Y-61278D02*
Y-57088D01*
X205951Y-59374D01*
Y-58231D01*
X205571Y-57469D01*
X205190Y-57088D01*
X204047Y-56708D01*
X203285D01*
X202143Y-57088D01*
X201381Y-57850D01*
X201000Y-58993D01*
Y-60135D01*
X201381Y-61278D01*
X201762Y-61659D01*
X202523Y-62040D01*
X246713Y29906D02*
X246332Y29144D01*
X245571Y28383D01*
X244809Y28002D01*
X243285D01*
X242523Y28383D01*
X241762Y29144D01*
X241381Y29906D01*
X241000Y31049D01*
Y32953D01*
X241381Y34096D01*
X241762Y34857D01*
X242523Y35619D01*
X243285Y36000D01*
X244809D01*
X245571Y35619D01*
X246332Y34857D01*
X246713Y34096D01*
X249341Y29906D02*
Y29525D01*
X249722Y28763D01*
X250103Y28383D01*
X250865Y28002D01*
X252388D01*
X253150Y28383D01*
X253531Y28763D01*
X253911Y29525D01*
Y30287D01*
X253531Y31049D01*
X252769Y32191D01*
X248960Y36000D01*
X254292D01*
X324713Y1906D02*
X324332Y1144D01*
X323570Y383D01*
X322809Y2D01*
X321285D01*
X320523Y383D01*
X319762Y1144D01*
X319381Y1906D01*
X319000Y3049D01*
Y4953D01*
X319381Y6096D01*
X319762Y6857D01*
X320523Y7619D01*
X321285Y8000D01*
X322809D01*
X323570Y7619D01*
X324332Y6857D01*
X324713Y6096D01*
X326960Y1525D02*
X327722Y1144D01*
X328865Y2D01*
Y8000D01*
X332826Y1525D02*
X333587Y1144D01*
X334730Y2D01*
Y8000D01*
D42*
X443625Y2840D02*
G03*
X433625Y12840I-10000J0D01*
G01*
X378625D02*
G03*
X368625Y2840I0J-10000D01*
G01*
Y-52160D02*
G03*
X378625Y-62160I10000J0D01*
G01*
X433625D02*
G03*
X443625Y-52160I0J10000D01*
G01*
X378625Y12840D02*
X433625D01*
X368625Y-52160D02*
Y2840D01*
X378625Y-62160D02*
X433625D01*
X443625Y-52160D02*
Y2840D01*
D62*
X462497Y-37429D02*
X461902Y-38620D01*
X460712Y-39810D01*
X459522Y-40405D01*
X457736Y-41000D01*
X454761D01*
X452976Y-40405D01*
X451785Y-39810D01*
X450595Y-38620D01*
X450000Y-37429D01*
Y-35049D01*
X450595Y-33859D01*
X451785Y-32668D01*
X452976Y-32073D01*
X454761Y-31478D01*
X457736D01*
X459522Y-32073D01*
X460712Y-32668D01*
X461902Y-33859D01*
X462497Y-35049D01*
Y-37429D01*
X452380Y-35644D02*
X448810Y-32073D01*
X462497Y-28562D02*
X450000D01*
X462497D02*
Y-23206D01*
X461902Y-21421D01*
X461307Y-20826D01*
X460117Y-20231D01*
X458927D01*
X457736Y-20826D01*
X457141Y-21421D01*
X456546Y-23206D01*
Y-28562D01*
Y-24396D02*
X450000Y-20231D01*
X459522Y-8507D02*
X460712Y-9102D01*
X461902Y-10292D01*
X462497Y-11482D01*
Y-13863D01*
X461902Y-15053D01*
X460712Y-16243D01*
X459522Y-16839D01*
X457736Y-17434D01*
X454761D01*
X452976Y-16839D01*
X451785Y-16243D01*
X450595Y-15053D01*
X450000Y-13863D01*
Y-11482D01*
X450595Y-10292D01*
X451785Y-9102D01*
X452976Y-8507D01*
M02*
