G04*
G04 #@! TF.GenerationSoftware,Altium Limited,Altium Designer,24.10.1 (45)*
G04*
G04 Layer_Color=255*
%FSLAX44Y44*%
%MOMM*%
G71*
G04*
G04 #@! TF.SameCoordinates,4BF9AD32-D27A-42C2-B849-32530D397306*
G04*
G04*
G04 #@! TF.FilePolarity,Positive*
G04*
G01*
G75*
%ADD14R,0.7500X1.0000*%
%ADD16R,1.5000X1.5000*%
%ADD18R,1.0000X0.7500*%
%ADD53R,2.5000X2.2000*%
%ADD54O,2.0000X1.6000*%
%ADD55C,2.2000*%
%ADD58R,1.5000X0.4000*%
D14*
X160620Y41000D02*
D03*
X145380D02*
D03*
X160620Y-12000D02*
D03*
X145380D02*
D03*
Y-42000D02*
D03*
X160620D02*
D03*
X310620Y19000D02*
D03*
X295380D02*
D03*
X289620Y-49000D02*
D03*
X274380D02*
D03*
X289620Y-33000D02*
D03*
X274380D02*
D03*
X218380Y-48000D02*
D03*
X233620D02*
D03*
X218380Y-32000D02*
D03*
X233620D02*
D03*
X218380Y33000D02*
D03*
X233620D02*
D03*
X218380Y49000D02*
D03*
X233620D02*
D03*
X310620Y4000D02*
D03*
X295380D02*
D03*
D16*
X10000Y-60000D02*
D03*
X630000Y60000D02*
D03*
D18*
X273000Y47620D02*
D03*
Y32380D02*
D03*
X306000Y-34380D02*
D03*
Y-49620D02*
D03*
X321000Y-34380D02*
D03*
Y-49620D02*
D03*
X191000Y-32380D02*
D03*
Y-47620D02*
D03*
X205000D02*
D03*
Y-32380D02*
D03*
X204000Y33380D02*
D03*
Y48620D02*
D03*
X191000Y33380D02*
D03*
Y48620D02*
D03*
D53*
X602000Y-77800D02*
D03*
Y77800D02*
D03*
D54*
X123660Y-64450D02*
D03*
Y-41450D02*
D03*
X123730Y-11450D02*
D03*
X123730Y11550D02*
D03*
X124000Y41000D02*
D03*
Y64000D02*
D03*
D55*
X76000Y-56000D02*
D03*
Y-500D02*
D03*
Y55000D02*
D03*
D58*
X218790Y-19500D02*
D03*
Y-13000D02*
D03*
Y-6500D02*
D03*
Y0D02*
D03*
Y6500D02*
D03*
Y13000D02*
D03*
Y19500D02*
D03*
X277210D02*
D03*
Y13000D02*
D03*
Y6500D02*
D03*
Y0D02*
D03*
Y-6500D02*
D03*
Y-13000D02*
D03*
Y-19500D02*
D03*
M02*
