G04*
G04 #@! TF.GenerationSoftware,Altium Limited,Altium Designer,24.10.1 (45)*
G04*
G04 Layer_Color=32768*
%FSLAX44Y44*%
%MOMM*%
G71*
G04*
G04 #@! TF.SameCoordinates,FD984B7A-8438-4C43-BE95-A6A47EEA4E16*
G04*
G04*
G04 #@! TF.FilePolarity,Positive*
G04*
G01*
G75*
%ADD10C,0.1500*%
%ADD25C,0.0100*%
%ADD63C,0.2000*%
D10*
X314015Y-55335D02*
X327985D01*
X314015D02*
Y-28665D01*
X327985Y-55335D02*
Y-28665D01*
X314015D02*
X327985D01*
X299015Y-55335D02*
X312985D01*
X299015D02*
Y-28665D01*
X312985Y-55335D02*
Y-28665D01*
X299015D02*
X312985D01*
X268665Y-55985D02*
Y-42015D01*
Y-55985D02*
X295335D01*
Y-42015D01*
X268665D02*
X295335D01*
X268665Y-39985D02*
Y-26015D01*
X295335D01*
Y-39985D02*
Y-26015D01*
X268665Y-39985D02*
X295335D01*
X289665Y-2985D02*
Y10985D01*
Y-2985D02*
X316335D01*
Y10985D01*
X289665D02*
X316335D01*
X289665Y12015D02*
Y25985D01*
Y12015D02*
X316335D01*
Y25985D01*
X289665D02*
X316335D01*
X212665Y-54985D02*
Y-41015D01*
Y-54985D02*
X239335D01*
Y-41015D01*
X212665D02*
X239335D01*
X212665Y-38985D02*
X239335D01*
X212665D02*
Y-25015D01*
X239335Y-38985D02*
Y-25015D01*
X212665D02*
X239335D01*
X211985Y-53335D02*
Y-26665D01*
X198015Y-53335D02*
X211985D01*
X198015D02*
Y-26665D01*
X211985D01*
X184015Y-53335D02*
X197985D01*
X184015D02*
Y-26665D01*
X197985Y-53335D02*
Y-26665D01*
X184015D02*
X197985D01*
X266015Y26665D02*
X279985D01*
X266015D02*
Y53335D01*
X279985Y26665D02*
Y53335D01*
X266015D02*
X279985D01*
X239335Y26015D02*
Y39985D01*
X212665Y26015D02*
X239335D01*
X212665D02*
Y39985D01*
X239335D01*
X212665Y42015D02*
Y55985D01*
Y42015D02*
X239335D01*
X212665Y55985D02*
X239335D01*
Y42015D02*
Y55985D01*
X197015Y27665D02*
X210985D01*
Y54335D01*
X197015Y27665D02*
Y54335D01*
X210985D01*
X184015Y27665D02*
X197985D01*
Y54335D01*
X184015Y27665D02*
Y54335D01*
X197985D01*
D25*
X140300Y34650D02*
Y47350D01*
Y34650D02*
X165700D01*
Y47350D01*
X140300D02*
X165700D01*
X140300Y-18350D02*
Y-5650D01*
Y-18350D02*
X165700D01*
Y-5650D01*
X140300D02*
X165700D01*
Y-48350D02*
Y-35650D01*
X140300D02*
X165700D01*
X140300Y-48350D02*
Y-35650D01*
Y-48350D02*
X165700D01*
D63*
X228315Y-23495D02*
X267685D01*
X228315D02*
Y23495D01*
X267685Y-23495D02*
Y23495D01*
X228315D02*
X267685D01*
M02*
